<?xml version="1.0" encoding="UTF-8"?>
<svg xmlns="http://www.w3.org/2000/svg" viewBox="0 0 1500 1500" width="1500" height="1500">
  <path fill="#606060" fill-rule="evenodd" d="M270.00,752.57 L270.00,710.00L290.03,710.00 C311.56,710.00 313.95,710.44 320.71,715.59 C328.35,721.42 331.09,735.12 326.25,743.31 L323.99,747.12L326.92,749.59 C331.82,753.71 335.00,761.36 334.98,768.95 C334.94,779.46 330.21,787.17 320.63,792.29 C316.77,794.36 315.00,794.52 293.25,794.82 L270.00,795.13L270.00,752.57 Z M404.00,752.50 L404.00,710.00L422.75,710.08 C442.94,710.16 445.15,710.57 452.18,715.56 C468.58,727.19 464.62,753.41 445.40,760.54 C442.71,761.54 440.30,762.52 440.05,762.71 C439.80,762.91 446.77,770.26 455.54,779.04 L471.48,795.00L462.48,795.00 L453.48,795.00L437.00,778.50 C427.94,769.42 419.73,762.00 418.76,762.00 C417.15,762.00 417.00,763.41 417.00,778.50 L417.00,795.00L410.50,795.00 L404.00,795.00L404.00,752.50 Z M532.00,752.50 L532.00,710.00L534.76,710.00 C537.04,710.00 542.61,715.10 567.00,739.50 C583.22,755.73 596.83,769.00 597.24,769.00 C597.66,769.00 598.00,755.73 598.00,739.50 L598.00,710.00L604.50,710.00 L611.00,710.00L611.00,752.50 L611.00,795.00L607.74,795.00 C604.81,795.00 601.62,792.13 575.50,766.00 C559.56,750.05 546.17,737.00 545.76,737.00 C545.34,737.00 545.00,750.05 545.00,766.00 L545.00,795.00L538.50,795.00 L532.00,795.00L532.00,752.50 Z M683.00,752.50 L683.00,710.00L697.39,710.00 C714.74,710.00 721.73,711.75 730.65,718.33 C737.46,723.35 741.08,727.80 744.81,735.76 C747.22,740.90 747.50,742.65 747.50,752.50 C747.50,762.75 747.29,763.94 744.39,770.00 C740.51,778.10 734.82,784.54 727.86,788.71 C719.74,793.57 712.66,795.00 696.79,795.00 L683.00,795.00L683.00,752.50 Z M922.00,752.50 L922.00,710.00L929.00,710.00 L936.00,710.00L936.00,752.50 L936.00,795.00L929.00,795.00 L922.00,795.00L922.00,752.50 Z M1008.00,752.50 L1008.00,710.00L1010.74,710.00 C1013.01,710.00 1018.70,715.21 1043.24,739.74 L1073.00,769.49L1073.00,739.74 L1073.00,710.00L1079.50,710.00 L1086.00,710.00L1086.00,752.50 L1086.00,795.00L1082.76,795.00 C1079.84,795.00 1076.57,792.06 1050.26,765.76 L1021.00,736.51L1021.00,765.76 L1021.00,795.00L1014.50,795.00 L1008.00,795.00L1008.00,752.50 Z M1157.00,752.50 L1157.00,710.00L1163.48,710.00 L1169.95,710.00L1170.23,727.83 L1170.50,745.67L1189.93,727.83 L1209.36,710.00L1218.71,710.00 L1228.05,710.00L1203.61,732.25 C1190.17,744.49 1179.14,754.83 1179.09,755.23 C1179.04,755.63 1189.24,764.13 1201.75,774.12 C1214.26,784.10 1225.16,792.89 1225.96,793.64 C1227.21,794.79 1225.90,795.00 1217.33,795.00 L1207.23,795.00L1189.14,780.50 C1179.19,772.52 1170.81,766.00 1170.52,766.00 C1170.24,766.00 1170.00,772.52 1170.00,780.50 L1170.00,795.00L1163.50,795.00 L1157.00,795.00L1157.00,752.50 Z M826.50,792.73 C820.84,790.41 819.06,788.96 816.50,784.59 C813.86,780.09 813.04,773.68 814.49,768.93 C816.69,761.70 824.63,756.00 832.49,756.00 C838.52,756.00 842.83,757.91 846.66,762.27 C854.63,771.35 853.09,783.94 843.20,790.49 C838.64,793.50 830.91,794.54 826.50,792.73 Z M314.28,780.64 C319.34,778.50 321.28,775.61 321.79,769.49 C322.23,764.19 322.12,763.88 318.24,760.01 L314.24,756.00L298.62,756.00 L283.00,756.00L283.00,769.00 L283.00,782.00L297.03,782.00 C306.63,782.00 312.08,781.57 314.28,780.64 Z M718.39,779.05 C724.26,776.21 731.38,768.28 733.41,762.32 C737.19,751.20 734.59,740.42 726.07,731.96 C719.46,725.39 713.28,723.00 702.89,723.00 L696.00,723.00L696.00,752.64 L696.00,782.28L704.91,781.77 C711.26,781.41 715.14,780.62 718.39,779.05 Z M443.43,747.05 C447.41,744.43 448.92,741.37 448.96,735.88 C448.99,732.68 448.36,730.46 446.91,728.61 C443.23,723.94 440.08,723.00 428.05,723.00 L417.00,723.00L417.00,736.00 L417.00,749.00L428.75,748.99 C438.68,748.99 440.95,748.69 443.43,747.05 Z M312.71,739.75 C316.80,735.66 316.59,729.81 312.21,725.90 C308.99,723.02 308.90,723.00 295.98,723.00 L283.00,723.00L283.00,733.08 L283.00,743.15L296.48,742.83 C309.66,742.51 310.02,742.44 312.71,739.75 Z"/>
</svg>