<?xml version="1.0" encoding="UTF-8"?>
<svg xmlns="http://www.w3.org/2000/svg" viewBox="0 0 1500 1500" width="1500" height="1500">
  <path fill="#000000" fill-rule="evenodd" d="M317.00,922.00 L317.00,901.00L296.00,901.00 L275.00,901.00L275.00,879.50 L275.00,858.00L296.00,858.00 L317.00,858.00L317.00,837.00 L317.00,816.00L296.00,816.00 L275.00,816.00L275.00,794.50 L275.00,773.00L296.00,773.00 L317.00,773.00L317.00,752.00 L317.00,731.00L296.00,731.00 L275.00,731.00L275.00,688.50 L275.00,646.00L295.98,646.00 L316.96,646.00L317.23,624.75 L317.50,603.50L359.75,603.24 L402.00,602.98L402.00,624.49 L402.00,646.00L423.50,646.00 L445.00,646.00L445.00,604.00 L445.00,562.00L466.00,562.00 L487.00,562.00L487.00,604.50 L487.00,647.00L466.00,647.00 L445.00,647.00L445.00,689.00 L445.00,731.00L423.50,731.00 L402.00,731.00L402.00,752.00 L402.00,773.00L360.00,773.00 L318.00,773.00L318.00,794.50 L318.00,816.00L381.50,816.00 L445.00,816.00L445.00,837.00 L445.00,858.00L466.00,858.00 L487.00,858.00L487.00,879.50 L487.00,901.00L466.00,901.00 L445.00,901.00L445.00,922.00 L445.00,943.00L381.00,943.00 L317.00,943.00L317.00,922.00 Z M445.00,879.50 L445.00,858.00L381.50,858.00 L318.00,858.00L318.00,879.50 L318.00,901.00L381.50,901.00 L445.00,901.00L445.00,879.50 Z M637.75,863.42 C621.14,860.42 608.54,852.72 599.89,840.29 L596.96,836.08L599.23,834.67 C600.48,833.89 606.00,830.67 611.50,827.50 C617.00,824.34 622.88,820.91 624.58,819.90 L627.65,818.05L630.78,822.48 C635.23,828.81 642.29,832.20 652.25,832.79 C661.39,833.34 667.45,831.90 673.02,827.87 C679.18,823.41 681.30,818.26 681.81,806.58 L682.25,796.66L678.37,800.43 C669.35,809.21 659.06,812.54 643.50,811.73 C613.17,810.15 590.81,787.41 588.37,755.66 C587.25,741.09 591.10,727.22 599.53,715.41 C611.84,698.16 627.73,690.45 649.50,691.17 C659.32,691.50 661.20,691.87 667.00,694.63 C670.58,696.34 675.41,699.52 677.75,701.71 L682.00,705.69L682.00,699.85 L682.00,694.00L699.50,694.00 L717.00,694.00L716.98,754.25 C716.96,820.28 716.81,822.41 711.04,834.73 C700.78,856.65 669.04,869.08 637.75,863.42 Z M851.73,863.98 C837.00,861.65 826.77,856.81 817.99,848.02 C811.97,841.99 808.08,836.56 809.08,835.60 C809.31,835.38 816.10,831.38 824.16,826.71 L838.81,818.21L841.92,822.54 C844.00,825.44 846.92,827.80 850.76,829.68 C855.89,832.20 857.56,832.50 866.50,832.50 C874.84,832.50 877.16,832.14 880.50,830.34 C889.53,825.47 893.00,818.65 893.00,805.77 L893.00,797.79L889.54,800.83 C880.95,808.37 870.68,812.01 858.04,811.99 C833.20,811.94 811.30,796.38 803.07,772.93 C798.57,760.12 798.45,743.48 802.77,730.68 C807.45,716.81 819.45,702.95 832.11,696.78 C842.02,691.94 848.53,690.68 861.07,691.16 C870.18,691.50 872.34,691.95 878.12,694.66 C881.77,696.38 886.60,699.45 888.87,701.50 L893.00,705.23L893.00,699.62 L893.00,694.00L910.54,694.00 L928.08,694.00L927.78,758.25 C927.47,821.98 927.45,822.55 925.23,828.42 C922.12,836.64 917.65,843.27 911.63,848.58 C905.66,853.84 893.09,860.31 884.50,862.54 C877.16,864.44 859.55,865.22 851.73,863.98 Z M997.50,815.36 C985.98,812.92 976.67,807.70 967.44,798.52 C954.18,785.32 948.79,772.08 948.89,753.00 C948.99,734.80 953.91,723.07 966.96,709.88 C980.51,696.20 992.92,691.00 1012.00,691.00 C1030.16,691.00 1042.86,696.06 1055.80,708.45 C1069.38,721.44 1075.00,734.51 1075.00,753.06 C1075.00,765.72 1073.75,771.55 1068.78,782.00 C1063.40,793.32 1052.12,804.78 1041.00,810.21 C1027.83,816.63 1012.26,818.48 997.50,815.36 Z M743.67,813.33 C743.30,812.97 743.00,785.97 743.00,753.33 L743.00,694.00L761.00,694.00 L779.00,694.00L779.00,754.00 L779.00,814.00L761.67,814.00 C752.13,814.00 744.03,813.70 743.67,813.33 Z M1100.00,771.00 L1100.00,728.00L1092.00,728.00 L1084.00,728.00L1084.00,711.00 L1084.00,694.00L1092.00,694.00 L1100.00,694.00L1100.01,689.25 C1100.02,686.64 1100.69,681.68 1101.51,678.23 C1105.25,662.34 1115.28,650.89 1129.83,645.88 C1136.23,643.69 1151.88,641.68 1155.53,642.60 L1158.00,643.22L1158.00,660.11 L1158.00,677.00L1153.25,677.02 C1147.46,677.05 1140.74,679.94 1138.49,683.38 C1137.57,684.78 1136.58,687.74 1136.28,689.96 L1135.74,694.00L1151.22,694.00 L1166.70,694.00L1167.29,685.25 C1168.91,661.32 1181.67,646.25 1204.27,641.58 C1208.47,640.71 1214.86,640.00 1218.46,640.00 L1225.00,640.00L1225.00,657.50 L1225.00,675.00L1219.75,675.00 C1209.88,675.00 1203.00,681.02 1203.00,689.65 L1203.00,694.00L1214.00,694.00 L1225.00,694.00L1225.00,711.00 L1225.00,728.00L1214.00,728.00 L1203.00,728.00L1203.00,771.00 L1203.00,814.00L1185.00,814.00 L1167.00,814.00L1167.00,771.00 L1167.00,728.00L1151.50,728.00 L1136.00,728.00L1136.00,771.00 L1136.00,814.00L1118.00,814.00 L1100.00,814.00L1100.00,771.00 Z M1023.91,779.55 C1033.70,774.48 1038.97,765.70 1038.99,754.43 C1039.00,745.32 1036.83,739.10 1031.84,733.95 C1026.12,728.06 1021.07,726.04 1012.00,726.04 C1003.12,726.04 998.09,727.98 992.53,733.53 C986.89,739.18 985.05,744.08 985.03,753.50 C985.02,759.86 985.51,762.53 987.39,766.50 C992.38,777.05 1001.97,782.45 1014.17,781.60 C1017.85,781.34 1022.23,780.42 1023.91,779.55 Z M667.87,775.48 C674.47,771.88 678.61,767.01 680.53,760.57 C684.54,747.11 679.72,734.02 668.27,727.31 C662.14,723.72 649.87,722.89 641.93,725.52 C621.67,732.25 617.72,761.69 635.45,773.75 C641.93,778.16 645.13,778.98 654.51,778.66 C661.15,778.43 663.44,777.88 667.87,775.48 Z M874.61,777.52 C880.68,775.72 887.34,770.22 890.19,764.64 C893.21,758.76 893.83,747.47 891.49,741.34 C889.29,735.58 883.92,729.52 878.57,726.75 C872.88,723.82 859.61,723.11 853.55,725.43 C841.70,729.95 835.65,738.74 835.69,751.35 C835.71,758.75 837.31,764.04 840.91,768.62 C847.94,777.55 862.00,781.27 874.61,777.52 Z M402.00,688.50 L402.00,646.00L360.00,646.00 L318.00,646.00L318.00,688.50 L318.00,731.00L360.00,731.00 L402.00,731.00L402.00,688.50 Z M750.91,680.67 C744.29,677.18 740.69,671.42 740.18,663.53 C739.67,655.43 742.39,649.18 748.29,644.91 C757.72,638.08 767.93,638.84 776.07,646.98 C784.59,655.49 785.23,666.41 777.76,675.47 C771.42,683.16 759.86,685.40 750.91,680.67 Z"/>
</svg>