<?xml version="1.0" encoding="UTF-8"?>
<svg xmlns="http://www.w3.org/2000/svg" viewBox="0 0 1500 1500" width="1500" height="1500">
  <path fill="#ffffff" fill-rule="evenodd" d="M0.00,750.00 L0.00,0.00L750.00,0.00 L1500.00,0.00L1500.00,750.00 L1500.00,1500.00L750.00,1500.00 L0.00,1500.00L0.00,750.00 Z M761.05,887.25 C766.01,884.73 768.15,882.29 786.33,858.50 C820.54,813.71 833.78,793.41 843.40,771.00 C858.63,735.51 858.49,701.92 842.96,670.28 C833.44,650.86 818.90,636.21 799.50,626.47 C781.37,617.37 761.86,613.88 740.83,615.96 C699.95,620.02 672.93,636.62 656.14,668.00 C651.15,677.32 648.39,687.14 646.91,700.88 C642.49,741.89 662.76,783.35 696.00,801.27 C702.09,804.56 710.12,807.51 719.53,809.92 C721.75,810.49 724.39,811.57 725.41,812.31 C727.01,813.48 727.08,813.98 725.96,816.08 C725.25,817.41 714.48,832.45 702.02,849.50 C689.56,866.55 678.60,881.67 677.66,883.11 C675.77,885.99 676.28,888.65 678.84,889.33 C679.75,889.57 697.41,889.82 718.07,889.88 L755.64,890.00L761.05,887.25 Z M637.00,753.50 L637.00,618.00L558.50,618.00 L480.00,618.00L480.00,651.49 L480.00,684.98L518.25,685.24 L556.50,685.50L556.75,787.25 L557.01,889.00L597.00,889.00 L637.00,889.00L637.00,753.50 Z M1024.00,855.50 L1024.00,822.00L985.50,822.00 L947.00,822.00L947.00,719.99 L947.00,617.98L906.75,618.24 L866.50,618.50L866.25,753.75 L865.99,889.00L945.00,889.00 L1024.00,889.00L1024.00,855.50 Z M744.36,740.97 C731.56,737.02 721.92,721.86 724.53,709.79 C727.46,696.27 738.60,687.04 752.00,687.04 C767.57,687.04 778.97,698.54 778.99,714.26 C779.01,725.04 773.33,734.21 763.53,739.23 C759.02,741.54 749.13,742.44 744.36,740.97 Z"/>
</svg>