<?xml version="1.0" encoding="UTF-8"?>
<svg xmlns="http://www.w3.org/2000/svg" viewBox="0 0 603 216" width="603" height="216">
  <path fill="#ffffff" fill-rule="evenodd" d="M314.14,214.63 C309.16,212.83 303.01,207.24 300.90,202.59 C298.72,197.79 298.39,187.77 300.22,181.62 C300.96,179.12 303.28,175.66 306.11,172.81 C311.59,167.31 318.21,164.95 335.00,162.52 C346.19,160.89 350.25,158.98 350.83,155.05 C351.84,148.24 347.46,145.00 337.28,145.00 C330.01,145.01 325.67,147.43 324.03,152.42 L322.84,156.00L312.05,156.00 L301.26,156.00L302.14,151.30 C304.64,137.92 312.69,130.51 327.54,127.92 C340.80,125.61 357.52,128.54 365.65,134.60 C367.38,135.89 369.85,139.10 371.14,141.72 C373.40,146.34 373.49,147.56 373.99,177.33 C374.45,205.19 374.67,208.29 376.25,209.44 C377.21,210.15 378.00,211.46 378.00,212.36 C378.00,213.79 376.46,214.00 366.01,214.00 L354.03,214.00L352.90,209.50 C352.27,207.03 351.54,205.00 351.26,205.00 C350.99,205.00 349.16,206.41 347.20,208.13 C340.82,213.73 334.53,215.99 325.50,215.91 C321.10,215.88 315.99,215.30 314.14,214.63 Z M8.36,200.75 C12.91,192.91 40.86,144.51 70.49,93.19 C114.71,16.57 124.53,0.20 125.34,1.69 C125.89,2.68 137.08,22.11 150.22,44.87 C163.36,67.62 173.97,86.35 173.80,86.50 C173.64,86.65 169.68,88.67 165.00,91.00 C156.04,95.47 143.15,103.58 136.59,108.88 L132.67,112.04L128.46,104.94 L124.25,97.84L113.34,116.67 C107.34,127.03 92.10,153.39 79.48,175.25 L56.53,215.00L28.32,215.00 L0.10,215.00L8.36,200.75 Z M114.00,212.92 C104.14,208.46 98.01,199.09 98.03,188.50 C98.08,164.86 126.32,153.22 143.05,169.95 C159.78,186.68 148.13,214.96 124.50,214.96 C120.61,214.96 116.92,214.24 114.00,212.92 Z M187.90,207.75 C185.60,203.76 179.33,193.07 173.97,184.00 C168.61,174.93 161.88,163.25 159.00,158.05 C156.13,152.85 150.84,143.42 147.24,137.08 L140.70,125.56L146.85,119.90 C171.41,97.32 211.21,81.08 255.70,75.51 C270.71,73.63 299.50,72.70 310.00,73.76 L318.50,74.62L312.50,75.37 C267.62,80.99 227.67,97.23 202.04,120.27 L196.83,124.95L201.11,132.69 C203.45,136.95 214.97,157.03 226.69,177.33 C238.41,197.62 248.00,214.40 248.00,214.61 C248.00,214.83 235.42,215.00 220.04,215.00 L192.09,215.00L187.90,207.75 Z M515.12,213.85 C513.26,213.31 510.65,212.16 509.32,211.29 C504.24,207.96 504.00,206.32 504.00,175.05 L504.00,146.00L498.00,146.00 L492.00,146.00L492.00,138.05 L492.00,130.10L497.75,129.80 L503.50,129.50L503.78,117.75 L504.06,106.00L515.03,106.00 L526.00,106.00L526.00,118.00 L526.00,130.00L532.50,130.00 L539.00,130.00L539.00,138.00 L539.00,146.00L532.50,146.00 L526.00,146.00L526.00,171.39 C526.00,199.96 525.40,198.00 534.08,198.00 L539.00,198.00L539.00,206.50 L539.00,215.00L528.75,214.91 C523.11,214.86 516.98,214.38 515.12,213.85 Z M397.00,179.50 L397.00,145.00L391.00,145.00 L385.00,145.00L385.00,137.50 L385.00,130.00L391.00,130.00 L397.00,130.00L397.00,124.05 C397.00,104.87 404.30,98.00 424.68,98.00 L433.00,98.00L433.00,107.00 L433.00,116.00L428.07,116.00 C421.81,116.00 419.00,118.99 419.00,125.63 L419.00,130.00L426.50,130.00 L434.00,130.00L434.00,137.46 L434.00,144.91L426.75,145.21 L419.50,145.50L419.24,179.75 L418.97,214.00L407.99,214.00 L397.00,214.00L397.00,179.50 Z M451.00,179.50 L451.00,145.00L445.00,145.00 L439.00,145.00L439.00,137.50 L439.00,130.00L445.00,130.00 L451.00,130.00L451.00,124.05 C451.00,104.87 458.30,98.00 478.68,98.00 L487.00,98.00L487.00,107.00 L487.00,116.00L482.07,116.00 C475.81,116.00 473.00,118.99 473.00,125.63 L473.00,130.00L480.50,130.00 L488.00,130.00L488.00,137.46 L488.00,144.91L480.75,145.21 L473.50,145.50L473.24,179.75 L472.97,214.00L461.99,214.00 L451.00,214.00L451.00,179.50 Z M553.00,171.50 L553.00,129.00L563.46,129.00 L573.91,129.00L574.21,135.99 L574.50,142.99L578.72,137.53 C583.75,131.01 589.22,127.97 597.21,127.25 L603.07,126.72L602.78,138.11 L602.50,149.50L597.00,149.69 C585.76,150.09 581.05,152.49 577.91,159.40 C576.25,163.05 576.04,166.29 576.02,188.75 L576.00,214.00L564.50,214.00 L553.00,214.00L553.00,171.50 Z M342.04,197.75 C348.19,194.65 351.00,189.01 351.00,179.75 C351.00,173.41 350.87,173.00 349.14,173.93 C348.11,174.47 343.15,175.82 338.11,176.92 C327.49,179.24 323.55,181.26 321.91,185.21 C320.23,189.26 321.44,195.08 324.52,197.75 C326.50,199.47 328.35,200.00 332.34,200.00 C335.78,200.00 339.11,199.23 342.04,197.75 Z"/>
</svg>