<?xml version="1.0" encoding="UTF-8"?>
<svg xmlns="http://www.w3.org/2000/svg" viewBox="0 0 1336 580" width="1336" height="580">
  <path fill="#ae744e" fill-rule="evenodd" d="M637.50,578.56 C603.65,573.01 570.86,555.74 562.89,539.28 C560.45,534.24 560.10,526.30 562.05,520.26 C565.34,510.11 577.73,493.25 596.39,473.56 C603.49,466.08 609.11,459.81 608.89,459.63 C608.68,459.46 605.64,457.39 602.13,455.04 C588.70,446.02 584.56,440.03 584.53,429.50 C584.51,423.24 584.97,421.55 588.88,413.54 C592.77,405.58 594.67,403.16 605.88,391.94 C612.82,384.99 620.42,377.72 622.78,375.78 L627.06,372.26L620.00,368.07 C601.68,357.19 588.43,339.46 582.93,318.50 C579.97,307.17 579.96,287.69 582.93,276.50 C590.54,247.75 613.04,224.14 642.50,214.00 C670.19,204.46 710.77,208.24 734.15,222.54 L739.80,226.00L772.21,226.00 C798.53,226.00 804.98,226.27 806.55,227.41 C808.11,228.55 808.55,230.33 808.83,236.68 C809.14,243.39 808.90,244.91 807.19,247.02 C805.18,249.50 805.15,249.50 782.70,250.00 L760.22,250.50L764.14,256.98 C772.00,269.97 775.73,289.29 773.90,307.51 C771.77,328.68 761.66,347.11 744.24,361.57 C735.89,368.50 720.29,376.17 708.91,378.95 C690.31,383.49 666.35,383.55 647.66,379.10 L640.06,377.29L633.17,384.39 C625.66,392.14 621.28,399.64 620.39,406.26 C619.94,409.66 620.29,411.18 622.17,413.95 C627.66,422.04 635.52,423.60 677.54,424.98 C741.23,427.06 755.52,428.44 769.50,433.89 C809.22,449.38 817.87,492.99 788.51,529.68 C773.37,548.61 748.10,565.32 723.22,572.87 C704.78,578.46 698.97,579.21 671.50,579.55 C653.35,579.78 643.08,579.48 637.50,578.56 Z M718.50,546.90 C749.83,542.93 772.64,529.78 782.65,509.90 C784.77,505.69 785.45,502.73 785.73,496.50 C786.19,486.36 784.03,482.05 776.11,477.30 C766.39,471.49 753.00,469.59 710.50,468.01 C676.70,466.76 654.87,465.40 637.50,463.46 L624.50,462.00L620.21,466.75 C613.97,473.66 604.36,488.44 601.91,494.90 C600.74,497.98 599.55,503.30 599.26,506.72 C598.80,512.09 599.10,513.69 601.47,518.52 C607.56,530.98 628.59,541.51 656.50,546.07 C672.33,548.66 701.53,549.05 718.50,546.90 Z M211.00,465.51 C200.90,463.22 192.41,458.42 184.48,450.50 C172.58,438.64 166.99,423.84 167.01,404.30 C167.04,384.77 172.11,372.84 186.47,358.45 C191.44,353.47 199.32,346.87 204.00,343.78 C221.25,332.38 249.64,319.14 287.39,304.89 L304.29,298.52L303.62,284.01 C302.19,252.53 295.89,237.60 280.89,230.10 C272.79,226.05 265.24,224.65 254.72,225.25 C243.60,225.89 235.31,229.63 228.66,237.04 C222.30,244.11 221.00,248.73 221.00,264.31 C221.00,279.17 220.01,283.46 215.33,288.93 C210.86,294.15 204.93,296.36 196.75,295.84 C188.84,295.33 183.33,291.75 179.31,284.50 C176.86,280.08 176.53,278.45 176.52,270.50 C176.50,259.97 178.24,254.03 183.96,245.18 C193.46,230.49 210.37,218.48 229.50,212.84 C242.06,209.14 272.30,207.68 288.02,210.02 C321.04,214.94 339.90,229.35 345.55,254.00 C347.06,260.59 347.35,271.05 347.97,340.00 C348.75,427.72 348.69,427.01 355.30,431.04 C362.15,435.22 367.48,433.01 380.76,420.51 L390.00,411.81L390.00,419.37 L390.00,426.92L382.68,435.71 C367.51,453.93 354.00,463.28 338.91,466.02 C328.02,467.99 319.27,465.32 312.72,458.03 C307.70,452.44 305.08,445.14 304.27,434.39 C303.96,430.33 303.57,427.00 303.40,427.00 C303.23,427.00 296.46,432.02 288.35,438.15 C257.27,461.64 248.58,465.77 228.50,466.55 C221.00,466.84 215.43,466.51 211.00,465.51 Z M883.00,465.51 C872.90,463.22 864.41,458.42 856.48,450.50 C844.58,438.64 838.99,423.84 839.01,404.30 C839.04,384.77 844.11,372.84 858.47,358.45 C863.44,353.47 871.33,346.87 876.00,343.78 C893.25,332.38 921.64,319.14 959.39,304.89 L976.29,298.52L975.62,284.01 C974.19,252.53 967.89,237.60 952.89,230.10 C944.79,226.05 937.24,224.65 926.72,225.25 C915.60,225.89 907.31,229.63 900.66,237.04 C894.30,244.11 893.00,248.73 893.00,264.31 C893.00,279.17 892.01,283.46 887.33,288.93 C882.86,294.15 876.93,296.36 868.75,295.84 C860.84,295.33 855.33,291.75 851.31,284.50 C848.86,280.08 848.53,278.45 848.52,270.50 C848.50,259.97 850.24,254.03 855.96,245.18 C865.46,230.49 882.37,218.48 901.50,212.84 C914.06,209.14 944.30,207.68 960.02,210.02 C993.04,214.94 1011.90,229.35 1017.55,254.00 C1019.06,260.59 1019.35,271.05 1019.97,340.00 C1020.75,427.72 1020.69,427.01 1027.30,431.04 C1034.15,435.22 1039.48,433.01 1052.76,420.51 L1062.00,411.81L1062.00,419.37 L1062.00,426.92L1054.68,435.71 C1039.51,453.93 1026.00,463.28 1010.91,466.02 C1000.02,467.99 991.27,465.32 984.72,458.03 C979.70,452.44 977.08,445.14 976.27,434.39 C975.96,430.33 975.57,427.00 975.40,427.00 C975.23,427.00 968.46,432.02 960.35,438.15 C929.27,461.64 920.58,465.77 900.50,466.55 C893.00,466.84 887.43,466.51 883.00,465.51 Z M74.26,464.46 C57.76,460.01 45.12,447.19 41.15,430.86 C38.58,420.28 38.02,400.18 38.01,319.25 L38.00,235.00L19.00,235.00 L0.00,235.00L0.01,230.25 L0.02,225.50L7.26,221.69 C16.64,216.77 30.20,205.85 38.74,196.36 C52.56,180.99 60.13,168.61 69.99,145.25 L74.32,135.00L78.66,135.00 L83.00,135.00L83.00,175.50 L83.00,216.00L111.50,216.00 L140.00,216.00L140.00,225.50 L140.00,235.00L111.47,235.00 L82.94,235.00L83.22,324.25 L83.50,413.50L85.72,418.93 C86.94,421.92 89.64,426.10 91.72,428.22 C103.20,439.98 124.61,434.93 134.50,418.14 C137.49,413.05 137.51,413.04 142.70,413.02 L147.90,413.00L146.35,416.75 C142.91,425.08 136.70,435.98 132.21,441.55 C116.97,460.46 93.65,469.68 74.26,464.46 Z M1071.00,457.00 L1071.00,452.00L1076.25,451.98 C1079.14,451.98 1084.01,451.38 1087.07,450.66 C1100.80,447.43 1106.18,440.93 1107.95,425.49 C1109.25,414.20 1109.31,163.07 1108.03,144.46 C1106.04,115.70 1099.01,110.51 1072.85,118.56 C1071.62,118.94 1070.75,117.91 1069.45,114.51 C1068.49,112.01 1067.89,109.81 1068.11,109.63 C1068.32,109.46 1084.70,102.71 1104.50,94.64 C1137.71,81.11 1140.99,79.97 1146.75,79.98 L1153.00,80.00L1153.00,169.50 C1153.00,218.72 1153.15,259.00 1153.34,259.00 C1153.52,259.00 1160.16,252.57 1168.09,244.72 C1184.52,228.43 1193.34,221.46 1203.88,216.40 C1222.20,207.59 1243.39,206.36 1259.50,213.16 C1272.89,218.81 1281.53,227.54 1288.53,242.50 C1297.79,262.32 1298.09,265.52 1298.98,353.50 C1299.49,404.24 1300.09,428.86 1300.89,431.84 C1304.70,446.10 1313.24,452.00 1330.05,452.00 L1336.00,452.00L1336.00,457.00 L1336.00,462.00L1275.50,462.00 L1215.00,462.00L1215.00,457.13 L1215.00,452.26L1225.25,451.77 C1237.55,451.17 1242.72,449.31 1247.47,443.77 C1254.28,435.81 1254.23,436.28 1254.74,378.00 C1255.24,321.86 1254.03,281.82 1251.52,271.28 C1248.30,257.78 1242.48,249.76 1232.38,244.94 C1211.48,234.97 1183.46,244.84 1158.63,270.93 L1152.77,277.10L1153.29,352.80 C1153.65,404.81 1154.17,429.91 1154.96,433.00 C1157.99,444.89 1167.10,450.72 1184.25,451.75 L1193.00,452.28L1193.00,457.14 L1193.00,462.00L1132.00,462.00 L1071.00,462.00L1071.00,457.00 Z M412.00,456.00 L412.00,451.00L418.29,451.00 C427.85,451.00 435.82,448.56 440.19,444.31 C446.11,438.54 447.91,432.98 449.14,416.74 C450.51,398.76 449.60,276.08 448.02,264.50 C446.68,254.76 443.63,248.18 439.27,245.69 C435.20,243.36 426.27,243.28 418.60,245.51 C415.53,246.41 412.65,246.90 412.19,246.62 C411.13,245.96 408.52,238.15 409.14,237.52 C409.40,237.27 426.15,230.29 446.37,222.03 C478.22,209.00 483.85,207.00 488.56,207.00 L494.00,207.00L494.02,310.25 C494.03,371.00 494.44,417.35 495.02,422.86 C496.15,433.58 498.27,439.12 503.02,443.73 C507.47,448.06 512.83,449.95 523.02,450.80 L531.50,451.50L531.80,456.25 L532.11,461.00L472.05,461.00 L412.00,461.00L412.00,456.00 Z M266.68,432.06 C275.41,428.70 284.81,423.17 296.34,414.65 L304.00,408.99L304.00,362.49 C304.00,324.73 303.75,316.00 302.68,316.00 C300.79,316.00 271.29,328.31 259.50,334.01 C227.13,349.68 212.02,367.97 212.02,391.50 C212.02,403.48 215.87,414.29 222.97,422.28 C235.04,435.86 248.84,438.94 266.68,432.06 Z M938.68,432.06 C947.41,428.70 956.81,423.17 968.34,414.65 L976.00,408.99L976.00,362.49 C976.00,324.73 975.75,316.00 974.68,316.00 C972.79,316.00 943.29,328.31 931.50,334.01 C899.13,349.68 884.02,367.97 884.02,391.50 C884.02,403.48 887.87,414.29 894.97,422.28 C907.04,435.86 920.84,438.94 938.68,432.06 Z M699.00,365.82 C709.08,361.16 717.74,351.78 722.06,340.86 C728.99,323.33 728.99,287.82 722.05,265.50 C712.30,234.16 691.91,218.07 667.01,222.08 C639.75,226.47 625.24,252.55 627.32,293.42 C628.73,321.07 635.58,341.04 648.34,354.70 C659.07,366.18 666.41,369.19 682.50,368.70 C691.73,368.42 694.39,367.95 699.00,365.82 Z M438.00,158.93 C413.58,155.25 384.80,132.48 371.75,106.50 C367.84,98.73 364.15,85.94 362.94,75.94 C361.56,64.62 363.09,47.20 365.62,45.31 C367.34,44.03 373.87,43.08 383.50,42.72 L389.50,42.50L389.23,46.50 C389.08,48.70 388.89,57.25 388.81,65.50 C388.63,84.81 390.99,94.55 400.49,113.50 C410.91,134.32 422.63,147.15 438.47,155.10 C442.85,157.30 446.64,159.30 446.88,159.55 C447.47,160.14 444.78,159.95 438.00,158.93 Z M499.35,159.25 C499.70,158.68 501.20,157.92 502.68,157.54 C507.94,156.22 519.34,148.67 525.96,142.13 C540.76,127.50 552.75,104.35 556.58,83.00 C558.22,73.89 558.39,57.46 556.93,49.56 C556.27,46.01 556.21,43.39 556.78,42.82 C557.66,41.94 577.32,43.42 580.42,44.61 C582.52,45.41 584.38,60.78 583.67,71.48 C582.10,95.05 572.87,115.07 555.80,131.96 C539.12,148.46 523.08,156.96 503.61,159.60 C500.37,160.05 498.93,159.92 499.35,159.25 Z M448.50,149.60 C433.99,145.01 419.71,131.25 409.79,112.28 C398.71,91.07 394.90,70.68 398.36,51.00 L399.50,44.50L403.70,44.68 C414.23,45.15 434.77,54.97 445.87,64.84 L451.11,69.50L449.08,75.35 C444.34,88.97 442.52,110.92 445.12,123.20 C446.69,130.63 450.96,139.58 455.87,145.75 L460.05,151.00L456.27,150.93 C454.20,150.90 450.70,150.30 448.50,149.60 Z M489.14,147.27 C503.03,131.90 506.41,107.00 498.39,79.23 C497.07,74.69 496.00,70.40 496.00,69.70 C496.00,68.29 501.88,63.17 509.33,58.09 C518.95,51.53 537.90,44.00 544.80,44.00 C549.90,44.00 550.38,73.91 545.54,90.38 C536.02,122.81 512.42,149.06 491.22,150.82 L485.51,151.29L489.14,147.27 Z M468.24,145.06 C463.24,141.44 458.48,134.67 455.66,127.17 C453.81,122.27 453.53,119.47 453.58,106.50 C453.63,93.11 453.93,90.54 456.37,82.56 C461.23,66.66 470.26,48.00 473.09,48.00 C474.68,48.00 481.20,59.06 484.75,67.77 C490.40,81.63 493.19,94.07 493.32,106.00 C493.45,118.10 492.01,125.12 487.71,133.31 C484.73,138.98 476.03,148.00 473.54,148.00 C472.86,148.00 470.47,146.68 468.24,145.06 Z M449.84,56.35 C447.46,54.35 443.36,51.38 440.75,49.77 C438.14,48.15 436.00,46.15 436.00,45.32 C436.00,42.12 445.27,26.15 451.24,19.08 C454.68,15.00 460.95,8.99 465.17,5.73 L472.84,-0.21L477.67,3.10 C490.77,12.07 503.32,27.50 509.45,42.21 L510.99,45.91L506.24,49.13 C503.64,50.90 499.34,54.12 496.71,56.30 C494.08,58.47 491.77,60.08 491.58,59.88 C491.40,59.67 489.75,56.80 487.92,53.50 C484.36,47.07 474.17,32.98 473.13,33.03 C471.94,33.10 462.16,46.64 458.49,53.31 C456.47,56.99 454.68,60.00 454.50,60.00 C454.33,60.00 452.23,58.36 449.84,56.35 Z M421.50,39.93 C418.75,38.84 413.46,37.25 409.75,36.40 C405.66,35.45 403.00,34.33 403.00,33.54 C403.00,31.84 410.42,17.21 412.88,14.07 C414.74,11.69 414.91,11.66 420.64,12.93 C426.24,14.17 439.00,18.80 439.00,19.59 C439.00,19.79 437.50,22.33 435.66,25.23 C433.82,28.13 431.15,33.09 429.72,36.25 C428.28,39.41 426.97,41.98 426.81,41.95 C426.64,41.93 424.25,41.02 421.50,39.93 Z M516.95,36.90 C515.64,34.09 512.90,29.03 510.87,25.65 C508.28,21.35 507.52,19.28 508.34,18.75 C510.29,17.48 527.89,12.00 530.02,12.00 C532.37,12.00 538.06,20.35 541.54,28.91 L543.81,34.49L535.48,36.70 C530.91,37.91 525.49,39.60 523.46,40.45 C521.42,41.30 519.66,42.00 519.55,42.00 C519.43,42.00 518.27,39.70 516.95,36.90 Z"/>
</svg>