<?xml version="1.0" encoding="UTF-8"?>
<svg xmlns="http://www.w3.org/2000/svg" viewBox="0 0 1024 1024" width="1024" height="1024">
  <path fill="#ca2c38" fill-rule="evenodd" d="M511.49,729.98 C511.15,729.43 509.21,728.21 507.18,727.29 C505.16,726.36 503.10,725.41 502.61,725.17 C502.12,724.94 502.08,725.32 502.52,726.02 C503.03,726.85 502.91,727.06 502.19,726.62 C501.45,726.16 501.38,725.14 501.97,723.57 C502.47,722.27 502.60,720.93 502.27,720.60 C501.94,720.27 502.11,720.00 502.65,720.00 C503.19,720.00 504.64,718.20 505.88,716.00 C507.12,713.80 507.80,712.00 507.41,712.00 C507.01,712.00 507.53,711.07 508.56,709.94 C510.15,708.18 510.21,707.74 508.96,706.95 C507.78,706.21 507.89,706.03 509.50,706.03 C510.60,706.03 512.17,706.52 513.00,707.11 C514.27,708.02 514.23,708.10 512.75,707.63 C509.58,706.61 510.93,708.07 514.54,709.58 C516.49,710.40 518.52,710.80 519.04,710.47 C519.57,710.15 520.00,710.36 520.00,710.94 C520.00,712.76 525.72,712.17 526.45,710.28 C527.01,708.80 527.24,708.77 528.04,710.03 C528.73,711.11 528.97,711.16 528.98,710.19 C528.99,709.46 529.51,709.20 530.15,709.60 C530.92,710.07 531.04,709.87 530.50,709.00 C529.93,708.08 530.08,707.93 531.00,708.50 C531.84,709.02 532.07,708.92 531.64,708.22 C531.27,707.63 531.43,706.85 532.00,706.50 C532.57,706.15 532.78,705.45 532.46,704.94 C532.15,704.44 532.56,704.28 533.37,704.59 C534.25,704.92 535.30,704.31 535.95,703.09 C536.81,701.48 536.70,700.48 535.45,698.56 C534.56,697.21 533.88,695.86 533.92,695.55 C534.25,693.32 533.84,691.98 533.00,692.50 C532.45,692.84 531.94,692.19 531.88,691.06 C531.81,689.93 531.64,688.55 531.50,688.00 C531.36,687.45 531.19,686.52 531.12,685.94 C531.06,685.36 530.56,685.16 530.01,685.49 C529.42,685.86 529.29,685.41 529.68,684.39 C530.16,683.13 529.99,682.89 529.02,683.49 C528.12,684.05 527.93,683.92 528.43,683.11 C528.84,682.45 528.57,681.19 527.84,680.30 C527.10,679.42 526.61,678.54 526.75,678.35 C527.47,677.35 526.82,674.96 525.46,673.61 C524.62,672.76 523.94,671.83 523.96,671.54 C524.14,668.93 523.86,667.97 523.06,668.46 C522.54,668.78 522.17,668.25 522.24,667.27 C522.30,666.30 521.30,663.25 520.02,660.50 C517.40,654.90 517.30,654.63 517.12,652.44 C517.06,651.58 516.54,651.17 515.98,651.52 C515.41,651.86 515.01,651.78 515.09,651.32 C515.17,650.87 515.18,649.60 515.10,648.50 C514.99,646.81 514.81,646.73 513.90,648.00 C513.09,649.15 512.98,648.84 513.46,646.67 C513.82,645.02 513.69,644.07 513.15,644.41 C512.64,644.72 512.28,644.42 512.36,643.74 C512.43,643.06 511.66,640.12 510.65,637.21 C509.30,633.34 508.49,632.18 507.62,632.90 C506.78,633.60 506.40,633.39 506.33,632.19 C506.00,626.69 503.10,617.35 500.79,614.33 C499.50,612.66 502.00,612.15 513.00,611.84 L522.50,611.58L524.73,615.62 C525.96,617.84 527.10,620.57 527.27,621.69 C527.44,622.81 528.35,624.49 529.29,625.43 C530.23,626.37 531.00,627.65 531.00,628.26 C531.00,628.88 530.30,628.51 529.44,627.44 C527.98,625.61 527.96,625.64 529.09,628.00 C529.75,629.38 530.90,630.86 531.65,631.30 C532.39,631.74 532.99,632.64 532.98,633.30 C532.98,634.05 532.57,633.94 531.89,633.00 C530.99,631.75 530.91,631.81 531.41,633.33 C531.73,634.34 532.00,635.38 532.00,635.64 C532.00,635.90 532.39,635.87 532.88,635.58 C533.36,635.28 533.75,636.04 533.75,637.27 C533.76,638.50 534.56,641.30 535.54,643.50 C537.22,647.28 537.47,647.93 537.95,649.75 C538.05,650.16 538.57,649.60 539.09,648.50 C539.81,646.97 539.93,647.38 539.58,650.27 C539.33,652.35 539.49,653.81 539.95,653.53 C540.41,653.24 541.06,653.71 541.38,654.56 C541.71,655.41 541.55,655.84 541.03,655.52 C540.48,655.18 540.53,656.21 541.14,657.96 C541.72,659.63 542.63,660.73 543.16,660.40 C543.70,660.07 544.03,660.41 543.91,661.15 C543.54,663.38 546.58,671.00 547.84,671.00 C548.33,671.00 549.50,668.86 550.44,666.25 C551.38,663.64 552.65,660.48 553.26,659.23 C554.08,657.54 554.06,656.66 553.18,655.78 C552.53,655.13 552.01,654.13 552.02,653.55 C552.02,652.97 552.47,653.17 553.00,654.00 C553.77,655.19 553.98,654.98 554.00,653.00 C554.02,651.02 554.23,650.81 555.00,652.00 C555.84,653.30 555.97,653.29 555.98,651.86 C555.99,650.96 556.67,648.94 557.49,647.36 C558.31,645.79 558.73,643.60 558.42,642.50 C558.05,641.14 558.16,640.91 558.76,641.78 C559.39,642.69 560.05,641.80 560.97,638.78 C561.69,636.43 563.20,632.52 564.31,630.09 C565.42,627.66 566.33,624.96 566.32,624.09 C566.31,623.22 566.58,622.27 566.92,622.00 C568.38,620.82 569.88,616.04 568.96,615.48 C568.43,615.15 568.04,614.35 568.08,613.69 C568.13,612.89 568.33,612.93 568.68,613.81 C569.10,614.84 569.59,614.78 571.00,613.50 C572.34,612.28 575.13,611.84 582.28,611.69 L591.77,611.50L591.42,614.00 C590.62,619.79 589.72,623.00 588.89,623.00 C588.40,623.00 588.07,623.34 588.16,623.75 C588.35,624.64 587.50,626.93 584.73,633.00 C583.60,635.48 582.72,638.29 582.78,639.25 C582.83,640.21 582.45,641.00 581.94,641.00 C581.42,641.00 581.00,641.68 581.00,642.50 C581.00,643.33 580.10,645.69 579.00,647.74 C577.90,649.79 577.00,652.16 577.00,653.01 C577.00,653.86 576.34,655.50 575.52,656.66 C574.71,657.82 573.95,660.14 573.82,661.81 C573.69,663.49 573.15,664.59 572.62,664.27 C572.07,663.92 571.94,664.39 572.32,665.39 C572.71,666.41 572.58,666.86 571.99,666.49 C571.44,666.15 571.00,667.01 571.00,668.44 C571.00,669.85 570.55,671.00 570.00,671.00 C569.45,671.00 569.06,671.34 569.14,671.75 C569.22,672.16 568.77,673.85 568.13,675.50 C567.50,677.15 567.02,678.90 567.07,679.39 C567.13,679.88 566.61,680.62 565.92,681.05 C565.23,681.48 564.67,683.19 564.67,684.87 C564.67,686.54 564.34,687.71 563.95,687.47 C563.25,687.04 561.09,691.38 560.63,694.13 C560.51,694.88 559.92,696.40 559.34,697.50 C558.75,698.60 558.49,700.13 558.76,700.89 C559.10,701.83 558.84,702.02 557.96,701.48 C557.03,700.90 556.84,701.14 557.30,702.34 C557.65,703.25 557.55,704.00 557.09,704.00 C555.43,704.00 555.24,707.90 556.79,710.19 L558.36,712.50L556.01,710.50 C554.71,709.40 554.00,709.09 554.43,709.81 C554.88,710.58 554.49,711.90 553.50,713.00 C552.55,714.05 552.14,715.41 552.56,716.09 C553.01,716.82 552.89,717.05 552.26,716.66 C551.00,715.88 549.72,718.74 550.65,720.24 C551.05,720.88 550.83,721.01 550.12,720.57 C549.41,720.14 547.35,721.25 545.09,723.30 C539.22,728.60 531.04,731.29 522.50,730.72 C518.65,730.46 514.60,729.92 513.50,729.53 C511.90,728.95 511.80,729.02 513.00,729.89 C513.93,730.56 514.05,730.98 513.31,730.98 C512.65,730.99 511.84,730.54 511.49,729.98 Z M544.63,727.21 C544.37,726.78 544.98,726.43 546.00,726.43 C547.02,726.43 547.63,726.78 547.37,727.21 C547.10,727.65 546.49,728.00 546.00,728.00 C545.51,728.00 544.90,727.65 544.63,727.21 Z M545.00,724.61 C545.00,724.39 545.70,723.95 546.55,723.62 C547.44,723.28 547.84,723.44 547.49,724.01 C546.91,724.96 545.00,725.42 545.00,724.61 Z M550.81,713.47 C550.50,713.17 549.94,713.72 549.56,714.71 C549.02,716.13 549.14,716.25 550.12,715.27 C550.81,714.59 551.11,713.78 550.81,713.47 Z M528.76,706.34 C529.45,706.06 529.72,705.35 529.35,704.76 C528.96,704.12 529.16,703.98 529.86,704.41 C531.24,705.27 530.41,707.04 528.69,706.92 C527.84,706.86 527.86,706.70 528.76,706.34 Z M282.22,702.25 C281.47,700.42 278.00,699.53 278.00,701.17 C278.00,701.69 277.49,701.80 276.87,701.42 C276.09,700.94 276.23,700.45 277.30,699.85 C279.48,698.63 284.05,688.29 283.29,686.31 C282.84,685.15 283.03,684.90 283.94,685.46 C284.89,686.05 285.06,685.64 284.62,683.88 C284.29,682.57 284.30,682.12 284.64,682.88 C285.05,683.80 285.86,682.97 287.04,680.40 C288.03,678.28 288.62,676.19 288.36,675.77 C288.10,675.35 288.41,675.00 289.05,675.00 C289.69,675.00 289.95,674.33 289.64,673.50 C289.32,672.67 289.55,672.00 290.14,672.00 C290.73,672.00 290.95,671.30 290.62,670.45 C290.23,669.43 290.42,669.14 291.18,669.61 C291.95,670.09 292.13,669.78 291.71,668.69 C291.37,667.79 291.74,666.41 292.53,665.61 C293.64,664.50 293.69,664.04 292.74,663.66 C291.95,663.34 292.09,663.13 293.11,663.08 C294.94,662.99 299.32,652.32 297.89,651.43 C297.40,651.13 297.04,650.35 297.08,649.69 C297.14,648.83 297.30,648.85 297.66,649.75 C297.94,650.44 298.54,651.00 298.99,651.00 C300.22,651.00 301.99,645.19 301.36,643.22 C300.90,641.76 300.98,641.73 301.88,643.00 C302.74,644.21 303.08,643.83 303.68,641.00 C304.09,639.08 304.32,637.13 304.19,636.68 C304.06,636.22 304.49,636.18 305.15,636.59 C305.99,637.11 306.13,636.77 305.62,635.44 C305.22,634.41 305.22,633.88 305.61,634.28 C306.00,634.67 307.16,633.13 308.17,630.86 C309.59,627.69 309.75,626.41 308.87,625.34 C307.94,624.22 308.08,624.08 309.61,624.64 C310.65,625.01 311.16,624.95 310.75,624.49 C310.33,624.03 310.69,622.89 311.55,621.95 C312.40,621.00 313.25,618.94 313.44,617.36 C313.62,615.79 313.82,614.14 313.89,613.69 C313.95,613.25 314.53,613.21 315.17,613.61 C315.96,614.09 316.13,613.78 315.70,612.66 C315.35,611.75 315.55,611.00 316.14,611.00 C316.73,611.00 316.95,610.30 316.62,609.45 C316.28,608.56 316.44,608.16 317.01,608.51 C317.56,608.84 318.00,608.65 318.00,608.08 C318.00,607.52 319.40,604.00 321.12,600.28 C322.83,596.55 324.23,592.50 324.24,591.27 C324.25,589.97 324.69,589.31 325.29,589.68 C325.94,590.08 326.10,589.69 325.70,588.66 C325.35,587.75 325.45,587.00 325.92,587.00 C326.74,587.00 328.48,582.25 328.19,580.83 C328.11,580.46 329.28,580.49 330.78,580.90 C332.27,581.31 334.85,581.56 336.50,581.45 C338.15,581.35 342.50,581.20 346.18,581.13 C350.52,581.05 353.00,580.56 353.28,579.75 C353.52,579.06 353.55,579.46 353.36,580.64 C352.99,582.93 355.17,585.46 356.48,584.24 C356.91,583.83 356.72,584.57 356.04,585.87 C355.04,587.78 355.05,588.09 356.07,587.46 C356.98,586.90 357.15,587.16 356.68,588.39 C356.26,589.50 356.41,589.87 357.12,589.43 C357.84,588.98 358.00,589.44 357.57,590.77 C357.19,591.98 357.53,593.38 358.42,594.28 C359.24,595.09 359.68,595.98 359.41,596.25 C358.73,596.94 361.14,602.00 362.16,602.00 C362.62,602.00 363.00,602.86 363.00,603.92 C363.00,606.64 366.42,614.27 368.36,615.89 C369.26,616.63 369.99,617.75 369.98,618.37 C369.98,618.99 369.53,618.83 369.00,618.00 C367.06,615.01 368.06,618.59 370.09,621.92 C371.54,624.30 372.41,624.95 372.95,624.08 C373.53,623.14 373.88,623.24 374.35,624.47 C374.72,625.42 374.57,625.85 373.99,625.49 C373.44,625.16 373.00,625.74 373.00,626.79 C373.00,629.84 375.11,635.05 376.10,634.44 C376.59,634.13 377.00,634.94 377.00,636.24 C377.00,637.54 377.48,639.08 378.07,639.67 C378.66,640.26 379.26,641.36 379.41,642.12 C380.24,646.29 381.33,649.00 382.17,649.00 C382.69,649.00 382.84,649.45 382.50,650.00 C382.16,650.55 382.38,651.00 382.98,651.00 C383.59,651.00 383.98,651.56 383.84,652.25 C383.71,652.94 384.66,655.75 385.95,658.50 C387.25,661.25 388.22,663.89 388.11,664.37 C388.01,664.85 388.68,664.95 389.60,664.60 C390.87,664.11 391.03,664.27 390.26,665.23 C389.14,666.61 390.15,670.36 391.95,671.47 C392.54,671.84 392.77,672.56 392.46,673.07 C392.14,673.58 392.34,674.00 392.91,674.00 C393.47,674.00 393.68,674.67 393.36,675.49 C393.03,676.35 393.49,677.25 394.45,677.62 C395.37,677.97 395.88,678.88 395.59,679.63 C395.30,680.38 395.50,681.00 396.03,681.00 C396.56,681.00 397.00,681.98 397.00,683.17 C397.00,685.49 402.74,698.09 404.26,699.11 C405.88,700.20 401.13,700.83 391.33,700.83 C380.80,700.83 379.00,700.48 379.00,698.39 C379.00,697.63 378.55,697.00 378.00,697.00 C377.45,697.00 376.99,696.21 376.99,695.25 C376.96,692.61 374.50,688.46 373.13,688.76 C372.24,688.96 372.19,688.52 372.92,687.15 C373.64,685.80 373.53,684.75 372.49,683.39 C371.71,682.35 371.05,680.71 371.03,679.75 C371.01,678.77 370.23,677.99 369.25,677.98 C368.07,677.97 367.89,677.72 368.70,677.21 C369.36,676.79 369.58,675.93 369.19,675.30 C368.69,674.50 360.73,674.11 342.49,673.99 C328.20,673.89 315.72,673.86 314.78,673.91 C312.73,674.02 309.61,679.55 310.42,681.64 C310.73,682.46 310.54,682.84 309.99,682.49 C309.03,681.90 308.68,683.44 308.86,687.50 C308.92,688.79 308.73,689.01 308.34,688.10 C307.97,687.24 306.88,688.75 305.46,692.10 C304.21,695.06 303.36,697.78 303.59,698.14 C304.42,699.48 300.28,700.30 293.75,700.07 C287.81,699.86 286.99,700.06 286.93,701.67 C286.87,703.13 286.72,703.20 286.18,702.00 C285.29,700.03 283.00,699.61 283.00,701.42 C283.00,702.20 283.56,703.06 284.25,703.34 C285.23,703.73 285.22,703.86 284.22,703.92 C283.51,703.96 282.61,703.21 282.22,702.25 Z M538.81,701.47 C538.50,701.17 537.94,701.72 537.56,702.71 C537.02,704.13 537.14,704.25 538.12,703.27 C538.81,702.59 539.11,701.78 538.81,701.47 Z M663.50,702.00 C664.33,701.09 664.78,700.11 664.50,699.83 C664.22,699.56 663.92,697.45 663.83,695.15 C663.74,692.69 663.02,690.46 662.09,689.74 C660.75,688.70 660.67,688.74 661.57,690.00 C662.16,690.83 662.67,692.85 662.71,694.50 C662.75,696.15 662.57,696.71 662.32,695.75 C661.74,693.56 660.64,693.53 658.89,695.64 C656.98,697.94 648.96,701.35 646.14,701.07 C644.60,700.91 644.02,701.22 644.47,701.95 C644.95,702.72 644.40,702.89 642.74,702.47 C641.40,702.13 637.58,701.78 634.25,701.68 C630.87,701.58 628.45,701.09 628.76,700.58 C629.08,700.07 628.55,699.96 627.58,700.33 C626.62,700.70 625.62,701.00 625.36,701.00 C625.10,701.00 625.22,701.56 625.63,702.25 C626.14,703.10 625.84,703.06 624.69,702.13 C622.86,700.64 622.37,699.49 624.00,700.50 C624.55,700.84 625.00,700.71 625.00,700.22 C625.00,699.73 623.85,698.80 622.44,698.15 C620.95,697.48 620.14,697.41 620.50,697.99 C620.84,698.55 620.64,699.00 620.06,699.00 C619.48,699.00 619.00,698.50 619.00,697.89 C619.00,697.28 618.40,697.02 617.67,697.30 C616.93,697.58 616.33,697.20 616.33,696.45 C616.33,695.70 616.82,695.36 617.42,695.69 C618.01,696.02 617.96,695.71 617.29,694.99 C616.34,693.97 615.77,693.94 614.63,694.89 C613.50,695.83 613.01,695.83 612.43,694.89 C611.98,694.16 612.11,693.95 612.78,694.36 C614.80,695.61 614.94,693.31 612.97,691.19 C611.88,690.03 611.00,688.64 611.00,688.10 C611.00,687.56 610.55,686.84 610.00,686.50 C609.36,686.10 609.37,686.85 610.04,688.61 C610.69,690.31 610.72,691.68 610.13,692.27 C609.54,692.86 609.21,692.71 609.25,691.86 C609.40,688.68 608.94,686.92 608.09,687.44 C607.59,687.75 607.42,687.11 607.71,686.02 C607.99,684.92 607.92,683.24 607.55,682.26 C607.18,681.29 606.93,680.50 607.01,680.50 C607.08,680.50 606.67,679.25 606.09,677.72 C604.21,672.80 604.05,670.01 603.97,640.84 C603.91,620.24 603.56,612.02 602.74,611.75 C601.91,611.47 601.92,611.17 602.80,610.62 C603.46,610.22 604.00,610.36 604.00,610.94 C604.00,611.62 607.78,612.00 614.50,612.00 L625.00,612.00L625.06,636.25 C625.09,649.59 625.55,662.75 626.08,665.50 C626.62,668.25 627.11,671.04 627.19,671.71 C627.27,672.37 627.78,672.63 628.34,672.29 C628.92,671.93 629.09,672.32 628.75,673.22 C628.04,675.07 634.64,681.34 636.25,680.35 C636.88,679.95 637.01,680.17 636.57,680.89 C636.02,681.78 637.76,682.03 643.42,681.90 C647.59,681.81 651.00,681.31 651.00,680.80 C651.00,680.30 651.45,680.16 651.99,680.49 C652.54,680.83 654.02,680.07 655.29,678.80 C656.55,677.54 657.91,676.39 658.30,676.25 C658.68,676.11 659.00,675.77 659.00,675.50 C659.00,675.23 659.00,674.50 659.00,673.89 C659.00,673.25 658.26,673.07 657.25,673.45 C655.88,673.97 655.76,673.85 656.71,672.90 C657.62,671.98 658.25,671.96 659.30,672.83 C660.06,673.47 661.05,673.65 661.50,673.24 C661.95,672.83 662.03,673.31 661.67,674.30 C661.28,675.38 661.42,675.86 662.02,675.49 C662.56,675.15 662.74,673.82 662.42,672.53 C662.09,671.24 662.31,669.30 662.89,668.21 C663.55,666.97 663.98,656.01 664.03,638.87 L664.12,611.50L675.47,611.50 C681.71,611.50 686.52,611.73 686.16,612.00 C685.80,612.27 685.50,632.30 685.50,656.50 L685.50,700.50L676.00,700.53 C666.88,700.56 663.43,701.27 664.44,702.90 C664.70,703.32 664.25,703.67 663.45,703.67 C662.19,703.67 662.20,703.44 663.50,702.00 Z M685.57,703.11 C685.27,702.63 685.60,701.75 686.30,701.17 C687.26,700.37 687.57,700.59 687.57,702.06 C687.57,704.08 686.51,704.64 685.57,703.11 Z M435.00,701.05 C426.53,699.51 417.22,695.19 418.75,693.51 C419.16,693.05 418.71,692.96 417.75,693.31 C416.50,693.76 416.00,693.43 416.00,692.16 C416.00,691.18 415.18,689.50 414.17,688.42 C413.17,687.34 412.53,685.90 412.76,685.23 C412.98,684.55 412.68,684.00 412.08,684.00 C411.47,684.00 411.00,682.12 411.00,679.70 C411.00,677.34 410.48,674.88 409.84,674.24 C408.97,673.37 408.99,672.72 409.94,671.58 C410.63,670.75 410.99,669.49 410.76,668.78 C410.52,668.08 411.14,666.04 412.14,664.27 C413.13,662.49 413.81,660.46 413.64,659.77 C413.47,659.07 413.52,658.86 413.76,659.29 C414.47,660.58 416.93,657.97 416.37,656.53 C416.09,655.80 416.35,654.90 416.95,654.53 C417.54,654.16 417.73,653.37 417.36,652.78 C416.96,652.12 417.16,651.98 417.86,652.41 C418.51,652.81 418.77,653.56 418.46,654.07 C418.14,654.58 418.39,655.00 419.00,655.00 C419.61,655.00 419.81,655.49 419.44,656.10 C418.34,657.88 422.44,655.40 424.07,653.30 C425.41,651.58 425.38,651.57 423.40,653.25 C420.90,655.38 420.33,655.43 420.33,653.56 C420.33,652.76 420.60,652.18 420.92,652.25 C422.36,652.61 425.97,650.76 425.46,649.93 C425.14,649.42 425.25,648.96 425.69,648.92 C427.76,648.70 431.08,648.06 437.98,646.53 C443.26,645.36 446.94,645.11 450.48,645.66 C453.24,646.10 456.38,646.34 457.46,646.20 C458.54,646.06 460.65,646.38 462.15,646.90 C464.37,647.68 464.96,647.54 465.32,646.18 C465.64,645.00 465.80,645.17 465.88,646.75 C465.95,647.99 466.41,649.00 466.92,649.00 C467.42,649.00 468.55,649.27 469.42,649.61 C470.30,649.95 471.00,649.70 471.00,649.05 C471.00,648.41 470.62,648.11 470.16,648.40 C469.70,648.68 469.42,647.47 469.54,645.71 C469.66,643.94 469.34,641.98 468.84,641.36 C468.34,640.73 468.06,639.60 468.21,638.86 C468.37,638.11 467.98,637.60 467.35,637.72 C466.71,637.84 465.59,637.19 464.85,636.28 C463.90,635.11 463.87,634.84 464.75,635.37 C465.44,635.78 466.00,635.90 466.00,635.64 C466.00,634.57 458.96,630.91 458.02,631.49 C457.46,631.83 457.00,631.62 457.00,631.01 C457.00,630.27 454.18,629.96 448.50,630.08 C443.82,630.19 440.00,630.55 440.00,630.89 C440.00,631.22 438.32,631.62 436.28,631.77 C434.23,631.91 432.19,632.70 431.73,633.52 C431.27,634.33 430.36,634.99 429.70,634.98 C428.97,634.98 429.08,634.59 430.00,634.00 C432.39,632.46 430.39,632.85 426.58,634.67 C424.65,635.58 422.91,637.04 422.70,637.92 C422.50,638.79 422.34,637.84 422.36,635.80 C422.40,631.13 418.34,623.00 416.75,624.58 C416.48,624.85 416.48,623.92 416.75,622.51 C417.02,621.10 418.09,619.35 419.12,618.63 C420.15,617.91 420.65,616.95 420.24,616.50 C419.83,616.05 420.02,615.98 420.66,616.34 C422.27,617.27 425.13,616.02 424.34,614.74 C423.92,614.06 424.49,613.90 425.92,614.27 C427.15,614.59 430.04,614.15 432.33,613.29 C438.03,611.16 461.68,610.92 468.00,612.93 C470.48,613.72 473.10,614.81 473.83,615.37 C474.76,616.07 475.42,615.94 476.06,614.94 C476.84,613.70 476.99,613.71 477.10,615.00 C477.18,615.83 477.17,616.89 477.08,617.37 C476.99,617.85 477.71,617.94 478.68,617.57 C479.65,617.20 480.16,617.18 479.81,617.52 C479.46,617.87 480.60,619.68 482.34,621.55 C487.11,626.67 488.15,628.00 487.38,628.00 C487.00,628.00 487.48,628.87 488.44,629.94 C489.41,631.00 489.92,632.32 489.58,632.87 C489.24,633.41 489.46,634.16 490.05,634.53 C490.65,634.90 490.89,635.83 490.60,636.60 C490.30,637.37 490.45,638.00 490.92,638.00 C491.39,638.00 491.71,652.06 491.64,669.25 L491.50,700.50L481.25,700.50 L471.01,700.50L471.00,697.31 C471.00,695.55 470.57,693.85 470.05,693.53 C468.76,692.73 459.75,698.42 460.73,699.41 C461.15,699.84 460.82,700.06 460.00,699.89 C459.18,699.73 456.25,700.11 453.50,700.74 C445.17,702.63 443.82,702.65 435.00,701.05 Z M459.00,701.93 C457.83,701.11 458.03,701.02 459.87,701.54 C461.40,701.97 462.59,701.73 463.20,700.86 C463.97,699.76 464.07,699.79 463.74,701.00 C463.23,702.88 460.97,703.33 459.00,701.93 Z M656.81,702.32 C657.53,702.03 658.40,702.06 658.73,702.40 C659.06,702.73 658.47,702.96 657.42,702.92 C656.25,702.87 656.01,702.64 656.81,702.32 Z M709.00,701.18 C709.00,700.39 708.04,700.15 706.25,700.50 C703.74,701.00 703.70,700.96 705.75,700.06 L707.99,699.07L707.95,637.78 L707.91,576.50L718.99,576.50 L730.06,576.50L730.02,637.87 C729.99,671.62 729.71,699.66 729.40,700.17 C729.08,700.68 724.82,700.94 719.92,700.74 C714.75,700.53 710.60,700.80 710.01,701.39 C709.33,702.07 709.00,702.00 709.00,701.18 Z M734.46,699.93 C734.10,699.35 734.01,698.65 734.28,698.39 C734.54,698.13 735.02,698.61 735.35,699.46 C736.02,701.22 735.44,701.53 734.46,699.93 Z M437.73,699.40 C437.40,699.06 436.53,699.03 435.81,699.32 C435.01,699.64 435.25,699.87 436.42,699.92 C437.47,699.96 438.06,699.73 437.73,699.40 Z M283.00,698.56 C283.00,698.32 282.55,697.84 282.00,697.50 C281.45,697.16 281.00,697.36 281.00,697.94 C281.00,698.52 281.45,699.00 282.00,699.00 C282.55,699.00 283.00,698.80 283.00,698.56 Z M401.00,698.03 C401.00,697.50 400.32,697.32 399.50,697.64 C398.68,697.95 398.00,698.39 398.00,698.61 C398.00,698.82 398.68,699.00 399.50,699.00 C400.32,699.00 401.00,698.56 401.00,698.03 Z M629.73,698.40 C629.40,698.06 628.53,698.03 627.81,698.32 C627.01,698.64 627.25,698.87 628.42,698.92 C629.47,698.96 630.06,698.73 629.73,698.40 Z M684.00,698.00 C684.00,697.45 683.80,697.00 683.56,697.00 C683.32,697.00 682.84,697.45 682.50,698.00 C682.16,698.55 682.36,699.00 682.94,699.00 C683.52,699.00 684.00,698.55 684.00,698.00 Z M727.73,698.40 C727.40,698.06 726.53,698.03 725.81,698.32 C725.01,698.64 725.25,698.87 726.42,698.92 C727.47,698.96 728.06,698.73 727.73,698.40 Z M731.00,698.06 C731.00,697.54 731.44,696.84 731.99,696.51 C732.56,696.16 732.72,696.56 732.38,697.45 C731.72,699.18 731.00,699.50 731.00,698.06 Z M659.00,697.06 C659.00,696.54 659.44,695.84 659.99,695.51 C660.56,695.16 660.72,695.56 660.38,696.45 C659.72,698.18 659.00,698.50 659.00,697.06 Z M373.50,692.00 C373.16,691.45 373.36,691.00 373.94,691.00 C374.52,691.00 375.00,691.45 375.00,692.00 C375.00,692.55 374.80,693.00 374.56,693.00 C374.32,693.00 373.84,692.55 373.50,692.00 Z M468.13,691.25 C469.37,689.66 469.34,689.63 467.75,690.87 C466.79,691.63 466.00,692.41 466.00,692.62 C466.00,693.45 466.82,692.92 468.13,691.25 Z M529.00,690.44 C529.00,689.58 529.46,689.16 530.02,689.51 C530.58,689.86 530.77,690.56 530.46,691.07 C529.60,692.46 529.00,692.20 529.00,690.44 Z M305.38,689.45 C305.72,688.56 305.56,688.16 304.99,688.51 C304.44,688.84 304.00,689.54 304.00,690.06 C304.00,691.50 304.72,691.18 305.38,689.45 Z M616.00,690.65 C616.00,690.47 614.99,689.45 613.75,688.40 L611.50,686.50L613.40,688.75 C615.20,690.86 616.00,691.46 616.00,690.65 Z M410.98,687.48 C410.28,686.64 409.91,685.76 410.15,685.52 C410.38,685.28 411.12,685.97 411.80,687.05 C413.25,689.37 412.76,689.63 410.98,687.48 Z M369.56,684.71 C369.94,683.72 370.50,683.17 370.81,683.47 C371.11,683.78 370.81,684.59 370.12,685.27 C369.14,686.25 369.02,686.13 369.56,684.71 Z M455.28,684.65 C457.91,683.96 459.71,683.01 459.28,682.54 C458.85,682.07 459.34,681.98 460.36,682.35 C461.71,682.84 462.07,682.64 461.69,681.62 C461.31,680.64 461.72,680.38 463.07,680.73 C464.20,681.02 465.00,680.73 465.00,680.01 C465.00,679.29 465.67,679.04 466.63,679.41 C468.08,679.97 468.07,679.75 466.52,677.39 C465.55,675.90 465.35,675.10 466.07,675.54 C466.97,676.10 467.16,675.85 466.71,674.70 C466.37,673.80 466.48,672.82 466.96,672.53 C467.43,672.23 467.70,673.15 467.54,674.57 C467.35,676.32 467.58,676.82 468.28,676.12 C468.85,675.55 469.35,672.26 469.40,668.80 C469.50,662.51 469.49,662.50 466.73,662.69 C465.20,662.80 464.21,662.48 464.51,661.98 C465.26,660.77 442.23,661.49 438.96,662.79 C436.18,663.88 433.10,667.00 434.79,667.00 C435.37,667.00 436.06,666.44 436.34,665.75 C436.72,664.81 436.86,664.83 436.92,665.84 C436.96,666.58 436.15,667.41 435.12,667.68 C433.05,668.22 430.32,673.00 432.08,673.00 C432.65,673.00 432.84,673.45 432.50,674.00 C432.16,674.55 432.36,675.00 432.94,675.00 C433.52,675.00 434.00,675.48 434.00,676.06 C434.00,676.64 433.55,676.84 433.00,676.50 C431.44,675.53 431.86,677.27 433.81,679.80 C434.78,681.06 436.54,682.17 437.72,682.25 C438.90,682.34 439.61,682.82 439.31,683.31 C438.99,683.82 440.22,683.95 442.12,683.61 C444.81,683.13 445.09,683.21 443.50,684.02 C441.77,684.89 441.86,684.96 444.19,684.51 C445.67,684.23 447.16,684.44 447.50,685.00 C448.28,686.26 449.35,686.21 455.28,684.65 Z M611.00,684.00 C610.41,682.90 609.70,682.00 609.43,682.00 C609.15,682.00 609.41,682.90 610.00,684.00 C610.59,685.10 611.30,686.00 611.57,686.00 C611.85,686.00 611.59,685.10 611.00,684.00 Z M644.73,684.40 C644.40,684.06 643.53,684.03 642.81,684.32 C642.01,684.64 642.25,684.87 643.42,684.92 C644.47,684.96 645.06,684.73 644.73,684.40 Z M399.08,682.42 C399.13,681.25 399.36,681.01 399.68,681.81 C399.97,682.53 399.94,683.40 399.60,683.73 C399.27,684.06 399.04,683.47 399.08,682.42 Z M433.12,681.73 C432.14,680.75 432.02,680.87 432.56,682.29 C432.94,683.28 433.50,683.83 433.81,683.53 C434.11,683.22 433.81,682.41 433.12,681.73 Z M412.69,672.27 C412.44,671.30 412.22,671.85 412.19,673.50 C412.17,675.15 412.38,675.95 412.66,675.27 C412.93,674.59 412.95,673.24 412.69,672.27 Z M566.68,672.81 C566.36,672.01 566.13,672.25 566.08,673.42 C566.04,674.47 566.27,675.06 566.60,674.73 C566.94,674.40 566.97,673.53 566.68,672.81 Z M629.00,674.61 C629.00,674.39 629.70,673.95 630.55,673.62 C631.44,673.28 631.84,673.44 631.49,674.01 C630.91,674.96 629.00,675.42 629.00,674.61 Z M573.73,670.08 C573.30,668.42 573.43,668.03 574.17,668.77 C574.75,669.35 575.03,670.42 574.79,671.14 C574.54,671.89 574.08,671.43 573.73,670.08 Z M546.58,667.36 C545.66,664.96 546.38,664.78 547.80,667.05 C548.47,668.12 548.61,669.00 548.12,669.00 C547.62,669.00 546.93,668.26 546.58,667.36 Z M438.00,665.00 C437.10,664.42 436.98,664.02 437.69,664.02 C438.35,664.01 439.16,664.45 439.50,665.00 C440.27,666.24 439.92,666.24 438.00,665.00 Z M346.70,653.00 C356.69,653.45 357.95,653.31 358.35,651.79 C358.59,650.84 358.21,649.59 357.50,649.00 C356.79,648.41 356.46,646.97 356.76,645.81 C357.14,644.36 356.95,643.91 356.16,644.40 C355.52,644.80 354.95,646.10 354.88,647.31 C354.79,649.16 354.69,649.21 354.29,647.64 C354.03,646.62 354.30,645.30 354.91,644.69 C356.27,643.33 356.35,641.67 355.01,642.49 C354.47,642.83 354.26,642.48 354.55,641.72 C354.85,640.96 353.49,636.88 351.54,632.66 C349.59,628.44 348.00,624.52 348.00,623.94 C348.00,623.36 347.47,623.21 346.83,623.61 C346.05,624.09 345.87,623.79 346.28,622.71 C347.10,620.58 342.56,609.50 340.87,609.50 C340.14,609.50 339.09,610.85 338.54,612.50 C337.98,614.15 337.24,615.73 336.89,616.00 C336.14,616.59 334.52,623.13 334.83,624.32 C334.95,624.78 334.64,624.89 334.13,624.58 C333.04,623.90 331.75,626.78 332.56,628.09 C332.87,628.59 332.68,629.00 332.15,629.00 C331.62,629.00 331.42,629.90 331.71,631.00 C332.00,632.10 331.78,633.00 331.23,633.00 C330.68,633.00 329.21,635.59 327.95,638.75 C326.70,641.91 325.23,645.07 324.69,645.77 C324.16,646.47 323.98,647.32 324.31,647.64 C324.64,647.97 324.25,648.89 323.45,649.69 C322.65,650.49 322.01,651.67 322.02,652.32 C322.02,653.01 322.43,652.88 323.00,652.00 C323.86,650.67 323.97,650.67 323.98,652.01 C324.00,653.24 325.06,653.43 329.75,653.01 C332.91,652.73 340.54,652.73 346.70,653.00 Z M578.03,652.50 C578.03,651.95 578.47,650.83 579.00,650.00 C579.53,649.17 579.97,648.95 579.97,649.50 C579.97,650.05 579.53,651.17 579.00,652.00 C578.47,652.83 578.03,653.05 578.03,652.50 Z M416.54,650.07 C416.23,649.56 416.49,648.81 417.14,648.41 C417.87,647.96 418.04,648.12 417.60,648.85 C416.64,650.38 418.24,650.32 420.00,648.75 C421.19,647.69 421.21,647.76 420.08,649.25 C418.61,651.20 417.41,651.47 416.54,650.07 Z M455.81,644.32 C456.53,644.03 457.40,644.06 457.73,644.40 C458.06,644.73 457.47,644.96 456.42,644.92 C455.25,644.87 455.01,644.64 455.81,644.32 Z M582.03,644.50 C582.03,643.95 582.47,642.83 583.00,642.00 C583.53,641.17 583.97,640.95 583.97,641.50 C583.97,642.05 583.53,643.17 583.00,644.00 C582.47,644.83 582.03,645.05 582.03,644.50 Z M552.08,642.42 C552.13,641.25 552.36,641.01 552.68,641.81 C552.97,642.53 552.94,643.40 552.60,643.73 C552.27,644.06 552.04,643.47 552.08,642.42 Z M465.37,640.21 C464.46,638.76 464.57,638.43 465.98,638.43 C467.14,638.43 467.55,639.01 467.23,640.21 C466.98,641.20 466.70,642.00 466.62,642.00 C466.55,642.00 465.98,641.20 465.37,640.21 Z M329.08,638.42 C329.13,637.25 329.36,637.01 329.68,637.81 C329.97,638.53 329.94,639.40 329.60,639.73 C329.27,640.06 329.04,639.47 329.08,638.42 Z M507.95,637.91 C507.34,636.77 507.03,635.64 507.26,635.41 C507.49,635.18 508.19,636.12 508.82,637.50 C510.19,640.52 509.52,640.85 507.95,637.91 Z M378.67,638.33 C378.30,637.97 378.00,637.20 378.00,636.63 C378.00,636.01 378.47,636.07 379.18,636.78 C379.83,637.43 380.13,638.20 379.85,638.48 C379.57,638.77 379.03,638.70 378.67,638.33 Z M589.56,630.29 C589.02,628.87 589.14,628.75 590.12,629.73 C590.81,630.41 591.11,631.22 590.81,631.53 C590.50,631.83 589.94,631.28 589.56,630.29 Z M305.26,629.45 C304.47,628.60 304.38,627.88 305.02,627.49 C305.57,627.15 306.29,627.60 306.63,628.48 C307.46,630.63 306.79,631.11 305.26,629.45 Z M560.38,626.73 C560.49,624.27 560.64,624.15 561.75,625.67 C562.44,626.61 562.99,627.86 562.98,628.44 C562.98,629.02 562.58,628.89 562.11,628.14 C561.38,626.99 561.17,626.99 560.75,628.14 C560.48,628.89 560.31,628.26 560.38,626.73 Z M306.87,626.25 C305.63,624.66 305.66,624.63 307.25,625.87 C308.21,626.63 309.00,627.41 309.00,627.62 C309.00,628.45 308.18,627.92 306.87,626.25 Z M683.66,624.75 C683.38,624.06 683.16,624.62 683.16,626.00 C683.16,627.38 683.38,627.94 683.66,627.25 C683.94,626.56 683.94,625.44 683.66,624.75 Z M350.12,623.73 C349.14,622.75 349.02,622.87 349.56,624.29 C349.94,625.28 350.50,625.83 350.81,625.53 C351.11,625.22 350.81,624.41 350.12,623.73 Z M507.12,623.73 C506.14,622.75 506.02,622.87 506.56,624.29 C506.94,625.28 507.50,625.83 507.81,625.53 C508.11,625.22 507.81,624.41 507.12,623.73 Z M420.64,621.50 C420.47,618.46 420.37,618.44 418.94,621.12 C418.14,622.61 418.13,623.04 418.90,622.56 C419.51,622.19 420.00,622.36 420.00,622.94 C420.00,623.52 420.18,624.00 420.39,624.00 C420.61,624.00 420.72,622.88 420.64,621.50 Z M416.33,617.54 C416.33,616.74 416.72,616.32 417.18,616.61 C417.65,616.90 417.77,617.56 417.46,618.07 C416.65,619.38 416.33,619.23 416.33,617.54 Z M683.68,616.81 C683.36,616.01 683.13,616.25 683.08,617.42 C683.04,618.47 683.27,619.06 683.60,618.73 C683.94,618.40 683.97,617.53 683.68,616.81 Z M588.17,614.77 C587.43,614.03 587.30,614.42 587.73,616.08 C588.08,617.43 588.54,617.89 588.79,617.14 C589.03,616.42 588.75,615.35 588.17,614.77 Z M444.25,613.34 C443.56,613.06 442.44,613.06 441.75,613.34 C441.06,613.62 441.62,613.84 443.00,613.84 C444.38,613.84 444.94,613.62 444.25,613.34 Z M526.00,610.50 C526.00,609.67 526.18,609.00 526.39,609.00 C526.61,609.00 527.05,609.67 527.36,610.50 C527.68,611.33 527.50,612.00 526.97,612.00 C526.44,612.00 526.00,611.33 526.00,610.50 Z M568.45,610.91 C568.08,610.31 568.34,609.30 569.03,608.66 C570.01,607.76 570.12,607.81 569.52,608.86 C569.06,609.67 569.31,610.58 570.12,611.10 C571.03,611.67 571.09,611.97 570.31,611.98 C569.65,611.99 568.82,611.51 568.45,610.91 Z M425.00,610.00 C425.82,609.47 426.95,609.03 427.50,609.03 C428.05,609.03 427.82,609.47 427.00,610.00 C426.18,610.53 425.05,610.97 424.50,610.97 C423.95,610.97 424.18,610.53 425.00,610.00 Z M462.27,610.31 C463.24,610.05 464.59,610.07 465.27,610.34 C465.95,610.62 465.15,610.83 463.50,610.81 C461.85,610.78 461.30,610.56 462.27,610.31 Z M606.00,610.00 C606.00,609.45 606.48,609.00 607.06,609.00 C607.64,609.00 607.84,609.45 607.50,610.00 C607.16,610.55 606.68,611.00 606.44,611.00 C606.20,611.00 606.00,610.55 606.00,610.00 Z M358.00,588.06 C358.00,587.54 358.44,586.84 358.99,586.51 C359.56,586.16 359.72,586.56 359.38,587.45 C358.72,589.18 358.00,589.50 358.00,588.06 Z M330.50,584.00 C330.84,583.45 330.64,583.00 330.06,583.00 C329.48,583.00 329.00,583.45 329.00,584.00 C329.00,584.55 329.20,585.00 329.44,585.00 C329.68,585.00 330.16,584.55 330.50,584.00 Z M351.73,583.40 C351.40,583.06 350.53,583.03 349.81,583.32 C349.01,583.64 349.25,583.87 350.42,583.92 C351.47,583.96 352.06,583.73 351.73,583.40 Z M731.00,581.00 C731.00,579.90 731.41,579.00 731.91,579.00 C732.40,579.00 732.58,579.90 732.29,581.00 C732.00,582.10 731.59,583.00 731.38,583.00 C731.17,583.00 731.00,582.10 731.00,581.00 Z M727.69,578.27 C727.44,577.30 727.22,577.85 727.19,579.50 C727.17,581.15 727.38,581.95 727.66,581.27 C727.93,580.59 727.95,579.24 727.69,578.27 Z M334.00,576.94 C334.00,576.36 334.45,576.16 335.00,576.50 C335.55,576.84 336.00,577.32 336.00,577.56 C336.00,577.80 335.55,578.00 335.00,578.00 C334.45,578.00 334.00,577.52 334.00,576.94 Z M377.69,527.91 C376.23,527.04 376.12,526.56 377.11,525.36 C378.09,524.19 378.07,523.95 377.04,524.19 C376.33,524.36 375.54,523.94 375.29,523.25 C375.04,522.56 375.32,522.00 375.92,522.00 C376.51,522.00 377.00,521.40 377.00,520.67 C377.00,519.94 378.03,518.79 379.28,518.12 C381.94,516.69 384.33,511.82 384.33,507.81 C384.33,506.27 384.73,505.00 385.23,505.00 C385.72,505.00 385.80,505.52 385.40,506.15 C384.95,506.89 385.13,507.04 385.91,506.55 C386.59,506.14 386.89,505.14 386.58,504.35 C386.27,503.55 386.42,503.14 386.91,503.44 C388.33,504.32 389.02,501.19 388.00,498.49 C387.46,497.07 387.43,496.00 387.94,496.00 C388.43,496.00 389.03,496.56 389.28,497.25 C390.06,499.44 391.52,496.92 391.92,492.69 C391.97,492.25 392.42,492.14 392.93,492.46 C394.47,493.41 396.99,488.84 396.46,486.07 C396.04,483.85 396.10,483.77 396.91,485.50 C397.82,487.42 397.86,487.41 397.93,485.25 C397.97,484.01 398.62,483.00 399.38,483.00 C400.39,483.00 400.70,481.78 400.54,478.54 C400.41,476.08 400.71,474.32 401.19,474.62 C401.68,474.92 401.82,476.14 401.49,477.33 C401.09,478.79 402.35,477.89 405.35,474.56 C407.79,471.84 409.58,469.07 409.33,468.41 C409.07,467.74 409.34,466.91 409.93,466.54 C410.52,466.18 411.00,465.37 411.00,464.74 C411.00,463.92 410.66,463.94 409.80,464.80 C409.14,465.46 407.45,465.98 406.05,465.96 L403.50,465.93L405.99,464.55 C407.36,463.80 408.82,463.39 409.24,463.65 C409.66,463.91 410.03,463.30 410.07,462.31 C410.13,460.71 410.23,460.73 410.92,462.50 C411.66,464.39 411.75,464.37 412.49,462.04 C412.92,460.68 414.33,458.74 415.63,457.72 C416.94,456.69 417.99,455.33 417.98,454.68 C417.98,453.97 417.54,454.10 416.89,455.00 C415.99,456.25 415.91,456.19 416.41,454.67 C416.73,453.66 417.00,452.62 417.00,452.36 C417.00,452.10 417.40,452.13 417.90,452.44 C418.39,452.74 419.06,452.29 419.38,451.44 C419.71,450.59 419.62,450.11 419.19,450.38 C418.76,450.65 417.75,450.45 416.95,449.95 C415.92,449.30 415.86,448.99 416.75,448.89 C417.44,448.81 418.45,448.64 419.00,448.50 C419.55,448.36 420.41,448.19 420.91,448.12 C422.46,447.91 426.94,439.01 426.32,437.40 C425.94,436.41 426.48,435.69 427.87,435.32 C429.04,435.02 430.00,434.38 430.00,433.91 C430.00,433.45 429.32,433.32 428.50,433.64 C427.68,433.95 427.00,433.76 427.00,433.20 C427.00,432.64 427.79,432.30 428.75,432.46 C431.65,432.93 432.90,431.16 432.30,427.44 C431.95,425.32 432.15,424.00 432.80,424.00 C433.39,424.00 434.01,422.76 434.18,421.25 C434.46,418.87 434.89,418.54 437.38,418.81 C439.55,419.04 440.12,418.76 439.71,417.68 C439.40,416.89 439.64,415.76 440.23,415.17 C440.82,414.58 441.35,411.97 441.40,409.38 C441.51,404.19 443.65,402.12 444.18,406.69 L444.51,409.50L447.25,405.27 C448.76,402.94 449.99,400.47 449.98,399.77 C449.97,398.76 449.80,398.76 449.15,399.79 C448.62,400.62 448.33,400.01 448.33,398.05 C448.33,395.10 448.37,395.08 449.81,397.14 C451.11,399.00 451.39,399.06 452.18,397.64 C452.75,396.62 452.65,395.22 451.93,393.87 C450.89,391.93 450.99,391.76 452.90,392.26 C456.11,393.10 459.56,389.08 457.00,387.50 C456.45,387.16 456.04,385.67 456.08,384.19 C456.12,382.71 456.39,382.07 456.66,382.76 C456.94,383.45 457.58,383.76 458.09,383.45 C458.59,383.14 459.00,383.39 459.00,384.00 C459.00,384.61 459.46,384.84 460.02,384.49 C460.58,384.14 460.76,383.42 460.42,382.88 C460.09,382.34 460.80,381.04 462.00,380.00 C463.28,378.89 463.87,377.61 463.44,376.90 C463.01,376.21 463.11,375.95 463.67,376.29 C464.87,377.04 467.55,374.03 468.51,370.86 C468.91,369.56 470.12,367.03 471.21,365.22 C473.07,362.16 473.09,361.79 471.57,359.47 C470.68,358.11 470.35,357.00 470.82,357.00 C471.30,357.00 472.18,358.01 472.78,359.25 L473.86,361.50L473.93,359.19 C473.97,357.92 474.45,357.16 475.00,357.50 C475.55,357.84 476.00,357.39 476.00,356.50 C476.00,355.61 476.40,355.13 476.89,355.43 C478.32,356.32 480.12,353.39 480.22,350.01 C480.28,347.94 480.59,347.32 481.14,348.19 C481.72,349.10 482.01,348.74 482.10,347.00 C482.18,345.62 482.17,344.13 482.09,343.68 C482.01,343.22 482.41,343.14 482.98,343.48 C483.54,343.83 484.00,343.52 484.00,342.78 C484.00,342.04 484.86,340.82 485.91,340.07 C486.96,339.31 487.59,338.09 487.31,337.35 C487.02,336.62 487.44,335.77 488.23,335.47 C489.70,334.90 490.05,333.58 490.00,328.75 C489.98,327.24 490.43,326.00 490.98,326.00 C491.54,326.00 492.01,327.01 492.03,328.25 L492.07,330.50L494.03,328.14 C495.24,326.70 496.00,324.29 496.00,321.95 C496.00,319.84 496.52,317.80 497.16,317.40 C497.95,316.91 498.14,317.37 497.75,318.84 C497.44,320.03 497.60,321.00 498.09,321.00 C498.59,321.00 499.00,320.09 499.00,318.97 C499.00,317.85 499.71,316.66 500.58,316.33 C501.45,316.00 501.79,315.45 501.33,315.11 C498.78,313.24 496.99,307.00 499.00,307.00 C499.55,307.00 500.00,307.79 500.00,308.76 C500.00,309.73 500.90,311.08 502.00,311.77 C503.63,312.79 504.00,312.77 504.00,311.66 C504.00,309.86 506.85,304.21 508.18,303.39 C508.75,303.04 509.62,303.36 510.10,304.12 C511.19,305.86 511.25,307.28 510.20,306.63 C509.76,306.35 508.75,306.56 507.95,307.09 C506.90,307.78 507.26,307.92 509.25,307.59 C511.84,307.16 513.00,308.26 511.17,309.40 C510.71,309.68 510.26,311.76 510.17,314.01 C510.08,316.27 510.42,317.86 510.91,317.55 C511.41,317.25 511.58,316.10 511.29,315.00 C510.92,313.57 511.26,313.00 512.49,313.00 C513.82,313.00 514.08,312.44 513.60,310.56 C513.27,309.22 513.47,307.83 514.06,307.47 C514.74,307.04 514.55,306.39 513.51,305.63 C512.18,304.66 512.60,304.43 516.00,304.30 C519.42,304.16 520.05,304.43 519.80,305.90 C519.64,306.87 520.37,309.27 521.43,311.23 C523.02,314.19 523.57,314.57 524.67,313.47 C525.40,312.74 526.00,311.21 526.00,310.07 C526.00,308.93 526.45,308.00 527.00,308.00 C528.25,308.00 528.33,312.71 527.09,313.17 C524.08,314.27 527.01,325.43 531.00,328.09 C532.84,329.32 533.63,331.02 533.92,334.37 C533.97,334.85 534.63,334.72 535.41,334.07 C536.30,333.34 537.05,333.27 537.43,333.88 C537.76,334.42 537.61,335.12 537.09,335.44 C536.51,335.80 536.50,337.24 537.04,339.15 C538.33,343.63 539.02,343.87 538.48,339.64 C538.20,337.46 538.44,336.00 539.07,336.00 C539.64,336.00 539.84,336.45 539.50,337.00 C539.16,337.55 539.36,338.00 539.94,338.00 C540.52,338.00 541.00,337.48 541.00,336.83 C541.00,336.19 541.29,335.96 541.64,336.31 C542.00,336.66 541.76,337.58 541.13,338.34 C539.58,340.21 540.04,342.41 543.39,349.22 C546.22,354.97 547.51,355.75 549.66,353.01 C550.56,351.86 550.65,352.47 550.04,355.79 C549.08,361.03 550.43,362.17 552.76,358.07 C553.72,356.39 554.84,355.01 555.25,355.01 C556.55,355.00 556.06,357.70 554.54,358.97 C553.74,359.63 552.81,361.01 552.49,362.03 C551.71,364.50 555.62,368.96 558.14,368.47 C559.19,368.27 559.79,368.53 559.47,369.05 C559.15,369.57 558.23,370.00 557.44,370.00 C555.36,370.00 555.66,371.98 557.75,372.08 C558.80,372.13 559.00,372.36 558.24,372.66 C557.33,373.03 557.53,373.85 558.99,375.72 C560.10,377.12 561.00,378.88 561.00,379.63 C561.00,380.39 561.48,381.00 562.06,381.00 C562.64,381.00 562.78,380.44 562.37,379.75 C561.86,378.90 562.16,378.94 563.31,379.87 C565.11,381.33 565.69,383.54 564.00,382.50 C562.26,381.42 562.92,383.54 565.04,385.81 C566.16,387.02 566.75,388.00 566.35,388.00 C565.95,388.00 566.49,388.64 567.56,389.42 C568.63,390.20 569.56,391.33 569.62,391.92 C569.69,392.51 569.82,393.79 569.91,394.75 C570.04,396.28 570.22,396.31 571.28,395.00 C571.95,394.18 573.29,393.44 574.25,393.36 C576.51,393.18 576.56,396.30 574.33,398.13 C572.84,399.35 572.72,399.25 573.23,397.25 C573.55,396.01 573.41,395.25 572.91,395.56 C571.43,396.47 571.82,397.68 575.45,403.35 C578.95,408.83 581.54,410.86 582.27,408.69 C582.50,408.04 583.43,408.94 584.34,410.70 C586.39,414.64 586.39,415.00 584.44,415.00 C583.58,415.00 583.16,415.46 583.51,416.02 C583.86,416.58 584.58,416.76 585.12,416.43 C585.70,416.07 585.98,416.95 585.80,418.55 C585.63,420.09 586.05,421.48 586.75,421.73 C587.44,421.97 588.00,421.65 588.00,421.01 C588.00,420.38 588.67,419.18 589.50,418.36 C590.71,417.15 591.00,417.12 591.00,418.23 C591.00,418.98 590.46,420.14 589.81,420.79 C588.45,422.15 587.82,425.00 588.89,425.00 C589.28,425.00 590.14,424.46 590.80,423.80 C591.73,422.87 592.00,422.98 592.00,424.30 C592.00,425.23 591.30,426.00 590.44,426.00 C589.58,426.00 589.16,426.46 589.51,427.02 C589.86,427.58 590.61,427.74 591.18,427.39 C591.81,427.00 592.00,427.47 591.65,428.62 C591.32,429.72 591.90,431.48 593.02,432.84 C594.80,434.98 595.10,435.04 596.56,433.58 C597.97,432.18 600.00,432.20 600.00,433.62 C600.00,433.89 599.55,433.84 599.00,433.50 C598.39,433.13 598.00,434.51 598.00,437.01 C598.00,441.63 598.67,441.35 602.86,435.00 L605.16,431.50L604.50,434.50 C604.14,436.15 602.97,438.31 601.92,439.29 C599.94,441.13 599.28,445.00 600.93,445.00 C601.45,445.00 602.14,445.87 602.48,446.93 C602.87,448.18 603.78,448.73 605.03,448.50 C606.09,448.29 607.26,448.61 607.63,449.22 C608.01,449.83 607.85,450.03 607.27,449.67 C606.70,449.31 605.96,450.03 605.64,451.26 C605.32,452.49 605.49,453.65 606.03,453.84 C606.57,454.02 606.76,454.59 606.44,455.09 C606.13,455.60 606.58,456.28 607.44,456.61 C608.30,456.94 609.00,458.12 609.00,459.22 C609.00,460.74 609.49,461.11 611.00,460.71 C612.66,460.28 612.90,460.57 612.42,462.45 C612.07,463.85 612.48,465.34 613.50,466.36 C614.40,467.26 614.79,468.00 614.35,468.00 C613.91,468.00 614.56,468.71 615.79,469.57 C617.03,470.43 617.86,471.44 617.64,471.82 C617.03,472.87 623.39,484.31 624.34,483.88 C624.80,483.67 625.84,484.75 626.64,486.28 C627.44,487.81 628.53,488.79 629.06,488.46 C629.60,488.13 629.77,487.44 629.46,486.93 C629.14,486.42 629.58,486.00 630.44,486.00 C632.31,486.00 632.48,488.11 630.75,489.86 C629.75,490.87 629.84,490.99 631.21,490.47 C632.15,490.11 633.20,488.96 633.53,487.91 C634.30,485.48 636.00,485.42 636.00,487.83 C636.00,488.83 634.88,490.71 633.50,492.00 C630.65,494.67 630.32,496.00 632.50,496.00 C633.33,496.00 634.00,495.55 634.00,495.00 C634.00,494.45 634.48,494.00 635.06,494.00 C635.64,494.00 635.83,494.47 635.47,495.04 C635.12,495.62 635.35,496.72 636.00,497.50 C636.68,498.32 636.87,499.86 636.45,501.20 C635.76,503.43 635.80,503.45 637.71,501.73 C639.64,500.02 639.70,500.05 639.78,502.98 C639.87,506.21 639.13,506.73 637.20,504.80 C636.27,503.87 636.00,503.87 636.00,504.80 C636.00,505.46 635.33,506.00 634.50,506.00 C633.67,506.00 633.00,505.50 633.00,504.89 C633.00,504.28 632.33,504.05 631.50,504.36 C630.67,504.68 629.94,504.50 629.88,503.97 C629.81,503.44 629.69,502.59 629.62,502.08 C629.56,501.58 629.18,500.84 628.78,500.45 C628.39,500.05 628.27,500.78 628.51,502.07 C628.76,503.36 630.10,505.46 631.48,506.75 C632.87,508.03 634.00,509.54 634.00,510.10 C634.00,510.66 634.47,510.83 635.05,510.47 C635.77,510.03 635.73,509.38 634.93,508.41 C634.08,507.40 634.07,507.00 634.88,507.00 C635.49,507.00 636.00,507.50 636.00,508.11 C636.00,508.72 636.67,508.95 637.50,508.64 C639.59,507.84 639.39,509.68 637.25,510.92 C635.84,511.74 636.28,511.96 639.50,512.03 C643.03,512.12 643.22,512.24 641.16,513.07 C639.87,513.58 638.29,513.69 637.66,513.31 C636.99,512.91 637.06,513.31 637.82,514.25 C638.55,515.15 639.78,515.64 640.55,515.34 C641.96,514.80 645.00,517.11 645.00,518.73 C645.00,519.21 645.54,520.14 646.19,520.79 C646.84,521.44 647.48,522.55 647.59,523.24 C647.71,523.93 648.09,525.21 648.45,526.08 C648.85,527.08 648.51,527.78 647.54,527.98 C645.21,528.46 594.81,528.48 592.38,528.01 C591.08,527.75 589.79,526.32 589.06,524.30 C588.41,522.48 587.43,521.00 586.89,521.00 C586.35,521.00 586.01,520.44 586.12,519.75 C586.53,517.28 584.79,513.01 583.64,513.67 C583.01,514.03 582.82,513.97 583.21,513.54 C583.60,513.11 582.81,511.30 581.46,509.53 C580.11,507.76 579.00,505.57 579.00,504.66 C579.00,503.75 578.65,503.00 578.21,503.00 C577.08,503.00 576.95,506.85 578.06,507.54 C578.58,507.86 579.00,508.64 579.00,509.28 C579.00,509.92 578.34,509.50 577.53,508.35 C576.73,507.20 576.27,505.20 576.52,503.91 C577.00,501.42 573.44,493.00 571.91,493.00 C571.41,493.00 570.99,492.21 570.98,491.25 C570.97,489.80 570.81,489.75 570.05,490.95 C569.34,492.08 568.99,491.81 568.46,489.70 C568.02,487.96 567.11,487.00 565.89,487.00 C564.85,487.00 564.00,486.52 564.00,485.94 C564.00,485.36 564.45,485.16 565.00,485.50 C566.49,486.42 566.15,483.78 564.50,481.60 C563.71,480.56 563.35,479.21 563.69,478.60 C564.04,478.00 563.96,477.83 563.51,478.23 C562.46,479.18 560.07,476.04 560.03,473.66 C560.00,472.01 559.35,471.88 553.75,472.39 C545.37,473.15 543.14,473.53 542.34,474.33 C541.29,475.38 539.81,475.12 540.50,474.00 C541.42,472.51 539.66,472.79 537.44,474.48 C535.76,475.76 535.70,476.10 537.00,476.97 C538.09,477.70 538.15,477.97 537.19,477.98 C536.43,477.99 536.18,478.52 536.60,479.25 C537.02,479.98 536.94,480.15 536.41,479.67 C535.91,479.21 535.44,478.42 535.38,477.92 C535.31,477.41 535.19,476.63 535.12,476.17 C534.96,475.07 529.00,475.98 529.00,477.11 C529.00,477.60 529.48,478.00 530.06,478.00 C530.64,478.00 530.80,478.51 530.42,479.13 C529.94,479.91 529.46,479.78 528.86,478.72 C528.30,477.72 527.23,477.39 525.75,477.79 L523.50,478.39L526.00,479.18 C527.97,479.80 527.73,479.89 524.86,479.57 C522.65,479.32 520.38,479.75 519.10,480.64 C517.19,481.98 517.13,482.28 518.53,483.67 C521.60,486.74 515.78,489.61 512.00,486.89 C510.75,485.99 510.80,485.91 512.30,486.39 C513.36,486.74 513.85,486.57 513.49,485.99 C513.16,485.44 512.35,485.01 511.69,485.03 C509.73,485.07 502.81,490.77 503.90,491.44 C505.40,492.36 504.07,494.96 502.42,494.33 C501.65,494.03 501.26,493.39 501.56,492.90 C502.43,491.50 501.01,491.85 499.44,493.42 C498.34,494.51 498.30,494.97 499.26,495.39 C499.94,495.70 499.60,495.86 498.50,495.75 C495.67,495.47 493.98,496.78 494.71,498.70 C495.17,499.88 494.97,500.10 494.00,499.50 C493.09,498.93 493.17,499.40 494.25,500.95 C495.85,503.23 495.62,506.00 493.83,506.00 C493.30,506.00 493.00,505.21 493.16,504.25 C493.80,500.37 491.99,499.96 488.44,503.19 C485.90,505.50 485.14,506.87 485.60,508.32 C486.10,509.90 485.88,510.17 484.49,509.64 C483.21,509.14 481.25,510.59 476.98,515.18 C473.81,518.60 471.41,521.90 471.64,522.51 C471.88,523.12 471.11,524.72 469.95,526.06 L467.83,528.50L423.67,528.74 C393.76,528.90 378.92,528.63 377.69,527.91 Z M473.00,527.00 C473.00,526.45 473.68,526.00 474.50,526.00 C475.32,526.00 476.00,526.45 476.00,527.00 C476.00,527.55 475.32,528.00 474.50,528.00 C473.68,528.00 473.00,527.55 473.00,527.00 Z M585.08,525.75 C583.80,523.69 583.82,523.62 585.34,524.87 C586.78,526.07 587.00,526.00 587.03,524.37 C587.06,522.62 587.12,522.61 588.08,524.26 C589.08,525.97 588.59,528.00 587.18,528.00 C586.80,528.00 585.85,526.99 585.08,525.75 Z M651.00,527.00 C651.00,526.45 651.48,526.00 652.06,526.00 C652.64,526.00 652.84,526.45 652.50,527.00 C652.16,527.55 651.68,528.00 651.44,528.00 C651.20,528.00 651.00,527.55 651.00,527.00 Z M654.00,527.06 C654.00,526.54 654.45,525.84 655.00,525.50 C655.55,525.16 656.00,525.58 656.00,526.44 C656.00,527.30 655.55,528.00 655.00,528.00 C654.45,528.00 654.00,527.58 654.00,527.06 Z M580.00,523.87 C580.00,522.90 583.70,519.00 584.62,519.00 C585.13,519.00 583.78,522.39 582.72,523.75 C581.52,525.31 580.00,525.37 580.00,523.87 Z M478.73,522.40 C478.33,521.99 478.00,520.98 478.00,520.13 C478.00,519.01 478.30,518.90 479.11,519.71 C479.72,520.32 480.05,521.34 479.84,521.98 C479.63,522.61 479.13,522.80 478.73,522.40 Z M651.50,521.00 C651.16,520.45 651.36,520.00 651.94,520.00 C652.52,520.00 653.00,520.45 653.00,521.00 C653.00,521.55 652.80,522.00 652.56,522.00 C652.32,522.00 651.84,521.55 651.50,521.00 Z M384.44,519.05 C385.50,518.17 386.00,518.11 386.00,518.89 C386.00,519.72 386.48,519.72 387.83,518.87 C390.22,517.38 390.18,515.44 387.76,515.26 C386.20,515.14 386.07,515.38 387.05,516.56 C388.39,518.18 386.96,518.56 385.40,517.00 C384.73,516.33 383.29,516.81 381.08,518.44 C377.87,520.81 377.84,520.88 380.32,520.62 C381.73,520.47 383.58,519.76 384.44,519.05 Z M475.00,519.62 C475.00,519.41 475.79,518.63 476.75,517.87 C478.34,516.63 478.37,516.66 477.13,518.25 C475.82,519.92 475.00,520.45 475.00,519.62 Z M576.00,517.00 C576.00,515.90 576.45,515.00 577.00,515.00 C577.55,515.00 578.00,515.90 578.00,517.00 C578.00,518.10 577.55,519.00 577.00,519.00 C576.45,519.00 576.00,518.10 576.00,517.00 Z M393.00,515.62 C393.00,515.41 392.21,514.63 391.25,513.87 C389.66,512.63 389.63,512.66 390.87,514.25 C392.18,515.92 393.00,516.45 393.00,515.62 Z M396.50,511.50 C398.62,511.50 404.00,508.45 404.00,507.25 C404.00,506.23 403.60,506.23 402.00,507.23 C400.90,507.92 400.00,508.85 400.00,509.31 C400.00,509.76 399.18,509.87 398.17,509.55 C396.01,508.87 391.11,512.53 393.21,513.25 C393.92,513.49 394.73,513.20 395.00,512.60 C395.27,511.99 395.95,511.50 396.50,511.50 Z M578.00,512.44 C578.00,511.58 578.45,511.16 579.00,511.50 C579.55,511.84 580.00,512.54 580.00,513.06 C580.00,513.58 579.55,514.00 579.00,514.00 C578.45,514.00 578.00,513.30 578.00,512.44 Z M645.50,513.00 C645.84,512.45 646.57,512.00 647.12,512.00 C647.67,512.00 647.84,512.45 647.50,513.00 C647.16,513.55 646.43,514.00 645.88,514.00 C645.33,514.00 645.16,513.55 645.50,513.00 Z M487.00,510.00 C487.00,509.45 487.68,509.00 488.50,509.00 C489.32,509.00 490.00,509.45 490.00,510.00 C490.00,510.55 489.32,511.00 488.50,511.00 C487.68,511.00 487.00,510.55 487.00,510.00 Z M406.80,504.85 C404.72,503.54 404.15,503.86 404.72,506.02 C405.14,507.64 405.53,507.81 406.67,506.86 C407.82,505.90 407.85,505.52 406.80,504.85 Z M486.56,506.71 C486.94,505.72 487.50,505.17 487.81,505.47 C488.11,505.78 487.81,506.59 487.12,507.27 C486.14,508.25 486.02,508.13 486.56,506.71 Z M402.53,505.19 C402.22,504.89 401.41,505.19 400.73,505.88 C399.75,506.86 399.87,506.98 401.29,506.44 C402.28,506.06 402.83,505.50 402.53,505.19 Z M411.00,504.08 C411.00,503.58 410.44,502.94 409.75,502.66 C409.06,502.38 409.85,502.12 411.50,502.06 C413.82,501.99 414.16,501.75 413.00,501.00 C411.83,500.24 412.11,500.03 414.25,500.02 C415.76,500.01 417.00,499.56 417.00,499.03 C417.00,498.50 417.56,498.26 418.25,498.50 C419.96,499.11 423.36,496.39 422.54,495.07 C421.54,493.44 419.98,493.80 420.64,495.50 C421.07,496.62 420.48,497.00 418.34,497.00 C414.59,497.00 407.87,501.51 408.64,503.51 C409.27,505.14 411.00,505.56 411.00,504.08 Z M489.00,503.61 C489.00,503.39 489.70,502.95 490.55,502.62 C491.44,502.28 491.84,502.44 491.49,503.01 C490.91,503.96 489.00,504.42 489.00,503.61 Z M385.25,501.34 C383.84,500.77 383.51,496.00 384.88,496.00 C385.37,496.00 386.04,496.79 386.38,497.75 C386.72,498.71 387.26,500.06 387.58,500.75 C388.18,502.04 387.44,502.22 385.25,501.34 Z M635.00,500.44 C635.00,499.58 634.54,499.16 633.98,499.51 C633.42,499.86 633.23,500.56 633.54,501.07 C634.40,502.46 635.00,502.20 635.00,500.44 Z M626.40,499.17 C626.68,498.71 626.28,498.33 625.50,498.33 C624.72,498.33 624.32,498.71 624.60,499.17 C624.89,499.62 625.29,500.00 625.50,500.00 C625.71,500.00 626.11,499.62 626.40,499.17 Z M637.26,497.45 C636.58,496.71 636.35,495.90 636.76,495.66 C637.17,495.41 638.06,495.81 638.74,496.55 C639.42,497.29 639.65,498.10 639.24,498.34 C638.83,498.59 637.94,498.19 637.26,497.45 Z M621.66,495.55 C621.27,494.54 621.62,494.26 622.80,494.62 C623.74,494.90 623.38,494.46 622.00,493.64 C619.14,491.92 616.73,493.19 618.95,495.25 C620.04,496.26 620.16,496.22 619.61,495.00 C619.23,494.17 619.50,494.28 620.21,495.25 C621.77,497.38 622.41,497.51 621.66,495.55 Z M625.73,496.40 C625.40,496.06 624.53,496.03 623.81,496.32 C623.01,496.64 623.25,496.87 624.42,496.92 C625.47,496.96 626.06,496.73 625.73,496.40 Z M563.54,495.07 C563.23,494.56 563.42,493.86 563.98,493.51 C565.18,492.77 567.00,493.71 567.00,495.06 C567.00,496.28 564.29,496.28 563.54,495.07 Z M568.70,494.35 C568.95,493.68 569.80,493.37 570.58,493.67 C572.61,494.45 572.33,495.57 570.11,495.57 C569.04,495.57 568.43,495.05 568.70,494.35 Z M384.00,493.94 C384.00,493.36 384.45,493.16 385.00,493.50 C385.55,493.84 386.00,494.32 386.00,494.56 C386.00,494.80 385.55,495.00 385.00,495.00 C384.45,495.00 384.00,494.52 384.00,493.94 Z M433.72,490.83 C436.04,489.67 437.66,488.25 437.31,487.69 C436.93,487.07 437.31,486.91 438.27,487.27 C439.45,487.72 439.77,487.38 439.49,485.96 C439.29,484.91 439.50,483.81 439.97,483.52 C441.32,482.69 444.06,484.10 443.34,485.26 C442.95,485.89 443.18,486.01 443.91,485.55 C444.59,485.14 444.89,484.16 444.59,483.38 C444.17,482.29 444.46,482.18 445.79,482.89 C446.98,483.52 448.14,483.37 449.46,482.41 C450.83,481.40 450.97,481.00 449.94,480.98 C448.73,480.97 448.74,480.82 450.00,480.01 C450.82,479.48 452.27,479.28 453.20,479.58 C454.51,479.98 454.81,479.61 454.49,477.95 C454.11,475.96 454.37,475.84 457.79,476.47 C461.25,477.10 461.36,477.04 459.50,475.64 L457.50,474.14L459.50,473.49 C460.60,473.13 462.57,472.41 463.88,471.88 C465.19,471.36 466.49,471.16 466.77,471.44 C467.61,472.28 464.88,475.00 463.21,475.00 C462.36,475.00 461.96,475.30 462.32,475.66 C463.38,476.71 471.00,472.84 471.00,471.24 C471.00,470.37 470.41,470.01 469.53,470.35 C468.72,470.66 467.78,470.46 467.44,469.91 C467.06,469.29 466.38,469.26 465.66,469.82 C465.02,470.33 462.81,471.28 460.75,471.95 C458.69,472.61 457.00,473.57 457.00,474.08 C457.00,474.58 456.31,475.00 455.47,475.00 C454.63,475.00 453.69,475.65 453.39,476.44 C453.07,477.26 452.16,477.62 451.25,477.27 C450.21,476.87 449.92,477.06 450.39,477.83 C450.82,478.52 450.51,479.00 449.64,479.00 C448.83,479.00 447.98,479.55 447.76,480.22 C447.53,480.90 445.96,481.52 444.25,481.60 C442.54,481.69 439.81,482.71 438.17,483.88 C436.53,485.05 434.36,486.05 433.35,486.12 C431.67,486.22 431.66,486.27 433.25,486.69 C434.21,486.94 435.00,487.54 435.00,488.01 C435.00,489.41 432.84,490.35 432.14,489.26 C431.77,488.70 430.65,488.61 429.50,489.07 C427.63,489.81 427.65,489.86 429.81,489.93 C431.09,489.97 431.84,490.45 431.50,491.00 C431.16,491.56 429.71,491.72 428.29,491.36 C426.30,490.86 425.89,491.01 426.51,492.02 C427.10,492.98 426.87,493.16 425.66,492.70 C424.75,492.35 424.00,492.55 424.00,493.14 C424.00,494.56 428.31,493.53 433.72,490.83 Z M618.45,489.91 C618.13,489.39 617.44,489.23 616.93,489.54 C616.42,489.86 616.00,489.64 616.00,489.06 C616.00,488.48 615.07,488.00 613.94,488.00 C612.81,488.00 612.16,487.56 612.49,487.01 C612.86,486.42 612.41,486.29 611.39,486.68 C610.22,487.13 609.90,486.96 610.39,486.17 C610.79,485.53 610.89,485.00 610.62,485.00 C610.34,485.00 609.86,485.42 609.54,485.93 C608.87,487.03 616.99,492.13 618.21,491.37 C618.66,491.09 618.77,490.44 618.45,489.91 Z M393.25,488.34 C391.84,487.77 391.52,484.00 392.88,484.00 C393.37,484.00 393.98,485.12 394.24,486.50 C394.51,487.88 394.67,488.96 394.61,488.92 C394.55,488.88 393.94,488.62 393.25,488.34 Z M607.72,484.00 C607.81,482.90 606.96,481.51 605.82,480.90 C604.32,480.10 603.94,480.10 604.44,480.90 C604.81,481.51 604.59,482.00 603.95,482.00 C603.30,482.00 603.84,482.89 605.14,483.97 C606.44,485.05 607.52,485.95 607.54,485.97 C607.56,485.99 607.64,485.10 607.72,484.00 Z M629.00,483.57 C629.00,482.65 629.85,482.00 631.08,482.00 C633.52,482.00 633.18,484.34 630.67,484.82 C629.68,485.01 629.00,484.50 629.00,483.57 Z M605.50,483.00 C605.16,482.45 605.36,482.00 605.94,482.00 C606.52,482.00 607.00,482.45 607.00,483.00 C607.00,483.55 606.80,484.00 606.56,484.00 C606.32,484.00 605.84,483.55 605.50,483.00 Z M388.00,481.00 C388.00,480.45 388.45,480.00 389.00,480.00 C389.55,480.00 390.00,480.45 390.00,481.00 C390.00,481.55 389.55,482.00 389.00,482.00 C388.45,482.00 388.00,481.55 388.00,481.00 Z M396.00,481.00 C396.00,480.45 396.45,480.00 397.00,480.00 C397.55,480.00 398.00,480.45 398.00,481.00 C398.00,481.55 397.55,482.00 397.00,482.00 C396.45,482.00 396.00,481.55 396.00,481.00 Z M561.25,480.44 C560.56,479.70 560.00,478.52 560.00,477.82 C560.00,477.12 560.72,477.58 561.60,478.84 C563.41,481.42 563.16,482.52 561.25,480.44 Z M602.67,480.49 C602.67,479.50 602.06,479.16 600.92,479.53 C599.96,479.83 598.88,479.61 598.53,479.04 C598.17,478.47 598.39,478.00 599.00,478.00 C599.61,478.00 599.82,477.51 599.45,476.91 C599.08,476.31 597.93,476.05 596.89,476.32 C595.85,476.59 595.00,476.46 595.00,476.02 C595.00,474.84 591.09,474.05 590.44,475.09 C590.13,475.59 590.52,476.00 591.29,476.00 C592.07,476.00 594.68,477.34 597.10,478.98 C602.17,482.41 602.67,482.55 602.67,480.49 Z M622.67,480.33 C622.30,479.97 622.00,477.87 622.00,475.67 C622.00,470.59 623.32,471.72 623.59,477.03 C623.80,481.20 623.74,481.41 622.67,480.33 Z M555.75,479.34 C556.44,479.06 557.56,479.06 558.25,479.34 C558.94,479.62 558.38,479.84 557.00,479.84 C555.62,479.84 555.06,479.62 555.75,479.34 Z M553.75,476.26 C551.14,476.06 549.00,475.47 549.00,474.96 C549.00,473.52 554.33,472.49 554.78,473.84 C554.99,474.48 555.78,475.00 556.52,475.00 C557.27,475.00 558.16,475.45 558.50,476.00 C558.84,476.55 558.98,476.92 558.81,476.82 C558.64,476.72 556.36,476.47 553.75,476.26 Z M620.16,474.00 C620.16,472.62 620.38,472.06 620.66,472.75 C620.94,473.44 620.94,474.56 620.66,475.25 C620.38,475.94 620.16,475.38 620.16,474.00 Z M593.58,472.78 C592.70,472.29 591.63,472.11 591.19,472.38 C590.76,472.65 589.75,472.45 588.95,471.95 C587.78,471.21 587.89,471.02 589.50,470.95 C591.24,470.88 591.18,470.75 589.07,469.90 C587.73,469.37 586.15,469.11 585.56,469.34 C584.34,469.81 582.36,468.00 582.44,466.50 C582.47,465.95 581.38,465.35 580.00,465.16 C578.62,464.97 576.82,464.21 575.99,463.47 C575.06,462.64 572.73,462.23 569.99,462.41 C567.52,462.58 566.07,462.51 566.76,462.27 C568.58,461.63 567.23,460.00 564.88,460.00 C563.78,460.00 563.13,459.59 563.44,459.09 C563.75,458.59 563.10,458.42 562.00,458.71 C560.84,459.01 560.00,458.74 560.00,458.06 C560.00,457.41 559.53,457.17 558.96,457.53 C558.38,457.88 557.27,457.64 556.49,456.99 C555.71,456.34 554.49,456.04 553.78,456.33 C553.04,456.63 553.34,456.90 554.50,456.99 C556.34,457.13 556.36,457.20 554.69,457.86 C552.98,458.53 553.00,458.73 555.06,461.35 C556.26,462.87 557.83,463.89 558.55,463.62 C559.39,463.30 560.11,464.22 560.54,466.19 C561.03,468.39 561.45,468.88 562.06,467.91 C562.54,467.12 562.46,466.28 561.86,465.92 C561.25,465.54 561.49,465.02 562.47,464.65 C563.47,464.27 563.85,464.43 563.46,465.06 C563.07,465.69 563.75,466.02 565.16,465.90 C566.45,465.78 568.85,465.81 570.50,465.96 L573.50,466.24L570.50,467.00 C568.85,467.42 568.29,467.82 569.25,467.88 C570.21,467.95 571.00,468.45 571.00,469.00 C571.00,470.48 572.93,470.21 574.65,468.49 C575.48,467.66 576.60,467.25 577.14,467.59 C577.70,467.93 577.33,468.79 576.31,469.58 C574.73,470.80 574.93,470.83 577.88,469.84 C580.77,468.88 581.40,468.96 582.21,470.41 C582.95,471.73 583.47,471.85 584.55,470.96 C585.31,470.33 586.51,470.04 587.22,470.33 C588.02,470.65 587.85,470.87 586.75,470.92 C585.13,470.99 584.44,472.11 585.42,473.08 C585.65,473.31 587.93,473.54 590.50,473.59 C593.73,473.65 594.68,473.40 593.58,472.78 Z M477.57,468.39 C478.91,468.06 480.01,467.27 480.02,466.64 C480.02,465.97 480.40,466.08 480.91,466.90 C481.50,467.81 482.43,468.02 483.65,467.49 C486.25,466.38 488.01,465.90 491.76,465.30 C493.55,465.01 495.27,464.38 495.57,463.89 C495.87,463.40 497.10,463.00 498.31,462.99 C499.51,462.99 501.79,462.32 503.36,461.49 C504.94,460.67 507.28,460.00 508.56,460.00 C509.83,460.00 511.19,459.50 511.56,458.90 C511.94,458.29 513.43,458.02 514.87,458.29 C516.32,458.56 519.52,458.43 522.00,458.01 C525.40,457.44 525.78,457.22 523.55,457.13 C521.42,457.03 520.90,456.70 521.69,455.91 C523.25,454.35 543.00,453.37 543.00,454.85 C543.00,455.62 540.30,456.00 534.83,456.00 C530.34,456.00 526.86,456.19 527.09,456.42 C527.32,456.65 530.88,457.10 535.01,457.42 C539.13,457.74 543.96,458.20 545.75,458.45 C547.66,458.72 549.00,458.47 549.00,457.85 C549.00,457.26 549.67,457.05 550.50,457.36 C551.33,457.68 552.00,457.50 552.00,456.97 C552.00,456.44 551.14,456.00 550.08,456.00 C549.03,456.00 547.94,455.44 547.66,454.75 C547.26,453.77 546.95,453.79 546.22,454.83 C545.46,455.91 545.16,455.85 544.64,454.51 C544.29,453.59 544.67,452.18 545.50,451.35 C546.33,450.53 546.99,449.33 546.97,448.68 C546.95,448.03 546.27,448.38 545.45,449.47 C544.05,451.31 544.00,451.25 544.58,448.34 C545.30,444.75 543.20,442.50 542.32,445.90 C541.69,448.31 540.00,448.74 540.00,446.50 C540.00,445.68 540.40,445.00 540.88,445.00 C541.37,445.00 541.99,444.13 542.27,443.07 C542.86,440.83 538.38,433.65 536.95,434.53 C536.43,434.85 536.00,434.42 536.00,433.56 C536.00,432.70 535.15,432.00 534.11,432.00 C532.29,432.00 530.40,429.27 531.48,428.19 C531.76,427.90 532.00,428.14 532.00,428.72 C532.00,429.29 532.90,430.00 534.00,430.29 C535.10,430.58 536.00,430.51 536.00,430.15 C536.00,429.78 535.10,428.92 534.00,428.23 C532.90,427.55 532.00,426.29 532.00,425.43 C532.00,424.58 531.55,424.16 531.00,424.50 C530.41,424.86 529.99,423.76 529.98,421.81 C529.97,419.24 529.74,418.83 528.94,420.00 C528.03,421.33 527.93,421.33 528.08,420.00 C528.44,416.64 527.96,414.91 526.87,415.58 C526.19,416.00 525.92,415.73 526.20,414.90 C526.45,414.14 526.10,412.96 525.42,412.28 C524.74,411.59 523.97,410.47 523.70,409.77 C523.37,408.88 522.76,409.09 521.65,410.50 C520.78,411.60 520.05,411.99 520.03,411.37 C520.01,410.75 520.63,409.72 521.40,409.08 C523.20,407.59 521.35,401.93 519.32,402.71 C518.55,403.00 518.00,402.52 518.00,401.55 C518.00,400.54 518.46,400.17 519.15,400.60 C519.82,401.00 520.04,400.87 519.68,400.29 C519.15,399.43 517.18,399.29 513.75,399.87 C513.34,399.94 512.99,401.24 512.98,402.75 L512.97,405.50L510.91,402.28 C509.55,400.16 509.08,398.32 509.53,396.90 C510.06,395.24 510.41,395.05 511.05,396.09 C511.51,396.83 512.24,397.09 512.67,396.67 C513.09,396.24 512.84,395.52 512.11,395.07 C511.29,394.56 511.17,394.01 511.79,393.63 C513.10,392.82 514.11,395.52 513.33,397.75 C512.75,399.39 512.83,399.39 514.49,397.83 C515.70,396.69 516.02,395.57 515.48,394.33 C515.05,393.32 514.78,391.60 514.89,390.50 C515.05,388.88 514.90,388.78 514.10,389.97 C512.41,392.48 511.52,388.30 513.08,385.19 C514.64,382.08 515.46,334.56 514.12,324.80 C513.69,321.66 513.72,319.32 514.17,319.61 C514.63,319.89 515.00,319.67 515.00,319.12 C515.00,317.23 513.27,317.05 511.76,318.77 C510.48,320.24 510.25,325.95 510.25,357.20 C510.24,389.66 510.05,394.09 508.62,395.52 C507.73,396.41 506.72,398.35 506.37,399.82 C506.02,401.29 505.10,403.23 504.34,404.11 C502.57,406.15 500.86,411.97 501.65,413.25 C502.69,414.92 503.95,411.65 503.29,409.02 C502.70,406.69 502.77,406.63 504.33,408.19 C506.36,410.22 506.39,410.75 504.59,412.55 C503.81,413.33 502.94,414.53 502.65,415.23 C502.25,416.21 501.82,416.16 500.81,415.00 C498.93,412.86 496.93,412.65 497.71,414.68 C498.10,415.71 497.94,416.08 497.27,415.67 C496.06,414.92 494.95,417.14 494.38,421.46 C494.16,423.09 493.32,424.80 492.49,425.26 C490.57,426.34 490.54,428.39 492.45,427.66 C493.57,427.23 493.72,427.59 493.09,429.30 C492.65,430.51 491.32,431.64 490.14,431.82 C487.65,432.19 487.59,432.38 489.22,434.99 C490.18,436.53 490.19,437.21 489.24,438.16 C488.29,439.11 487.88,438.67 487.37,436.11 C486.94,433.93 486.45,433.27 485.92,434.12 C485.49,434.83 485.32,435.72 485.56,436.10 C485.80,436.48 485.32,437.05 484.50,437.36 C483.68,437.68 482.28,439.75 481.40,441.97 C480.51,444.18 479.48,446.00 479.10,446.00 C478.05,446.00 478.01,449.89 479.06,450.54 C479.58,450.86 479.99,451.88 479.97,452.81 C479.94,454.29 479.75,454.26 478.47,452.56 C477.19,450.87 477.00,450.83 477.00,452.31 C477.00,453.24 476.47,454.00 475.83,454.00 C475.19,454.00 474.96,454.29 475.31,454.64 C475.66,454.99 474.55,456.51 472.83,458.00 C469.79,460.66 469.60,463.48 472.53,462.35 C474.36,461.65 474.37,462.93 472.56,465.31 C471.60,466.59 470.98,466.78 470.47,465.95 C469.94,465.09 469.52,465.14 468.89,466.14 C467.42,468.47 467.91,468.99 470.61,467.96 C473.09,467.01 473.19,467.10 472.56,469.60 C471.95,472.03 472.03,472.11 473.52,470.62 C474.41,469.73 476.23,468.73 477.57,468.39 Z M480.48,468.86 C481.01,468.36 480.00,468.45 478.23,469.07 C476.45,469.69 475.00,470.41 475.00,470.67 C475.00,471.36 479.34,469.93 480.48,468.86 Z M475.81,466.32 C476.53,466.03 477.40,466.06 477.73,466.40 C478.06,466.73 477.47,466.96 476.42,466.92 C475.25,466.87 475.01,466.64 475.81,466.32 Z M615.00,465.00 C615.00,464.45 615.48,464.00 616.06,464.00 C616.64,464.00 616.84,464.45 616.50,465.00 C616.16,465.55 615.68,466.00 615.44,466.00 C615.20,466.00 615.00,465.55 615.00,465.00 Z M414.81,460.47 C414.50,460.17 413.94,460.72 413.56,461.71 C413.02,463.13 413.14,463.25 414.12,462.27 C414.81,461.59 415.11,460.78 414.81,460.47 Z M557.77,460.78 C558.09,459.55 558.53,459.08 558.74,459.72 C558.95,460.36 559.89,460.63 560.81,460.31 C562.09,459.87 562.01,460.12 560.50,461.33 C557.76,463.53 557.09,463.39 557.77,460.78 Z M474.00,459.93 C474.00,459.34 474.76,458.10 475.69,457.18 C477.28,455.61 477.34,455.62 476.69,457.33 C476.31,458.34 476.00,459.58 476.00,460.08 C476.00,460.59 475.55,461.00 475.00,461.00 C474.45,461.00 474.00,460.52 474.00,459.93 Z M501.81,460.32 C502.53,460.03 503.40,460.06 503.73,460.40 C504.06,460.73 503.47,460.96 502.42,460.92 C501.25,460.87 501.01,460.64 501.81,460.32 Z M496.08,459.64 C496.31,459.44 497.85,458.98 499.50,458.61 C501.69,458.12 502.10,458.21 501.00,458.95 C499.65,459.87 495.08,460.51 496.08,459.64 Z M506.75,458.34 C507.44,458.06 508.56,458.06 509.25,458.34 C509.94,458.62 509.38,458.84 508.00,458.84 C506.62,458.84 506.06,458.62 506.75,458.34 Z M498.81,456.32 C499.53,456.03 500.40,456.06 500.73,456.40 C501.06,456.73 500.47,456.96 499.42,456.92 C498.25,456.87 498.01,456.64 498.81,456.32 Z M609.49,455.98 C609.14,455.42 608.37,455.27 607.78,455.64 C607.13,456.04 606.98,455.84 607.40,455.15 C608.39,453.56 609.67,453.71 610.36,455.50 C611.01,457.20 610.44,457.52 609.49,455.98 Z M531.00,446.03 C531.00,444.69 531.48,444.25 532.50,444.64 C533.33,444.95 534.00,445.84 534.00,446.61 C534.00,447.37 533.33,448.00 532.50,448.00 C531.67,448.00 531.00,447.11 531.00,446.03 Z M536.00,446.44 C536.00,445.58 536.45,445.16 537.00,445.50 C537.55,445.84 538.00,446.54 538.00,447.06 C538.00,447.58 537.55,448.00 537.00,448.00 C536.45,448.00 536.00,447.30 536.00,446.44 Z M484.89,443.75 C484.82,443.61 484.64,442.15 484.49,440.50 C484.33,438.85 484.42,438.06 484.68,438.75 C485.43,440.69 487.01,440.22 486.37,438.25 C485.90,436.77 485.98,436.73 486.89,438.00 C488.50,440.24 488.25,444.00 486.50,444.00 C485.68,444.00 484.95,443.89 484.89,443.75 Z M536.54,443.06 C536.12,442.38 536.24,441.36 536.81,440.79 C537.38,440.22 537.60,439.13 537.31,438.37 C536.94,437.41 537.28,437.17 538.39,437.60 C540.35,438.35 540.44,440.01 538.65,442.46 C537.65,443.83 537.11,443.99 536.54,443.06 Z M416.00,439.50 C416.00,438.12 416.45,437.00 417.00,437.00 C417.55,437.00 418.00,438.12 418.00,439.50 C418.00,440.88 417.55,442.00 417.00,442.00 C416.45,442.00 416.00,440.88 416.00,439.50 Z M606.00,440.00 C606.00,439.45 606.45,439.00 607.00,439.00 C607.55,439.00 608.00,439.45 608.00,440.00 C608.00,440.55 607.55,441.00 607.00,441.00 C606.45,441.00 606.00,440.55 606.00,440.00 Z M419.39,438.42 C419.73,437.55 420.00,436.65 420.00,436.42 C420.00,436.19 420.45,436.00 421.00,436.00 C421.55,436.00 422.00,436.90 422.00,438.00 C422.00,439.17 421.33,440.00 420.39,440.00 C419.34,440.00 418.99,439.46 419.39,438.42 Z M424.00,433.00 C424.00,432.45 424.45,432.00 425.00,432.00 C425.55,432.00 426.00,432.45 426.00,433.00 C426.00,433.55 425.55,434.00 425.00,434.00 C424.45,434.00 424.00,433.55 424.00,433.00 Z M528.00,430.56 C528.00,429.77 528.52,428.80 529.15,428.40 C529.91,427.94 530.04,428.13 529.53,428.96 C529.07,429.69 529.32,430.59 530.12,431.10 C531.21,431.79 531.13,431.97 529.75,431.98 C528.79,431.99 528.00,431.35 528.00,430.56 Z M528.08,425.42 C528.13,424.25 528.36,424.01 528.68,424.81 C528.97,425.53 528.94,426.40 528.60,426.73 C528.27,427.06 528.04,426.47 528.08,425.42 Z M435.68,422.81 C435.36,422.01 435.13,422.25 435.08,423.42 C435.04,424.47 435.27,425.06 435.60,424.73 C435.94,424.40 435.97,423.53 435.68,422.81 Z M432.00,418.12 C432.00,417.57 432.45,416.84 433.00,416.50 C433.55,416.16 434.00,416.33 434.00,416.88 C434.00,417.43 433.55,418.16 433.00,418.50 C432.45,418.84 432.00,418.67 432.00,418.12 Z M523.63,414.50 C524.29,412.72 524.19,412.65 522.69,413.87 C521.76,414.63 521.00,414.79 521.00,414.24 C521.00,413.69 521.62,412.73 522.38,412.10 C523.46,411.21 523.91,411.33 524.42,412.64 C524.77,413.57 524.57,414.82 523.97,415.42 C523.19,416.20 523.09,415.94 523.63,414.50 Z M443.46,411.07 C443.77,410.56 443.58,409.86 443.02,409.51 C442.46,409.16 442.00,409.58 442.00,410.44 C442.00,412.20 442.60,412.46 443.46,411.07 Z M514.00,410.00 C514.00,408.90 514.45,408.00 515.00,408.00 C515.55,408.00 516.00,408.90 516.00,410.00 C516.00,411.10 515.55,412.00 515.00,412.00 C514.45,412.00 514.00,411.10 514.00,410.00 Z M584.00,411.56 C584.00,411.32 583.55,410.84 583.00,410.50 C582.45,410.16 582.00,410.36 582.00,410.94 C582.00,411.52 582.45,412.00 583.00,412.00 C583.55,412.00 584.00,411.80 584.00,411.56 Z M509.68,409.60 C509.35,408.75 509.49,407.82 509.97,407.52 C511.28,406.71 512.39,409.01 511.25,410.15 C510.61,410.79 510.06,410.60 509.68,409.60 Z M506.70,406.61 C506.29,405.57 506.19,404.48 506.48,404.19 C507.39,403.28 508.19,404.77 507.81,406.67 C507.46,408.41 507.41,408.41 506.70,406.61 Z M434.60,406.16 C433.71,404.72 436.06,400.00 437.66,400.00 C439.41,400.00 439.36,400.36 437.11,404.06 C436.07,405.77 434.94,406.71 434.60,406.16 Z M575.08,400.42 C575.13,399.25 575.36,399.01 575.68,399.81 C575.97,400.53 575.94,401.40 575.60,401.73 C575.27,402.06 575.04,401.47 575.08,400.42 Z M510.68,397.81 C510.36,397.01 510.13,397.25 510.08,398.42 C510.04,399.47 510.27,400.06 510.60,399.73 C510.94,399.40 510.97,398.53 510.68,397.81 Z M567.00,383.65 C567.00,381.76 567.40,381.22 568.50,381.64 C569.33,381.95 570.00,382.56 570.00,382.98 C570.00,383.41 569.33,384.32 568.50,385.00 C567.23,386.05 567.00,385.84 567.00,383.65 Z M463.00,382.00 C463.00,381.45 462.80,381.00 462.56,381.00 C462.32,381.00 461.84,381.45 461.50,382.00 C461.16,382.55 461.36,383.00 461.94,383.00 C462.52,383.00 463.00,382.55 463.00,382.00 Z M560.56,375.47 C558.99,374.28 558.92,374.00 560.20,374.00 C561.07,374.00 562.05,374.68 562.36,375.50 C563.06,377.32 563.00,377.32 560.56,375.47 Z M466.00,370.00 C466.00,369.45 466.48,369.00 467.06,369.00 C467.64,369.00 467.84,369.45 467.50,370.00 C467.16,370.55 466.68,371.00 466.44,371.00 C466.20,371.00 466.00,370.55 466.00,370.00 Z M467.61,362.42 C466.76,360.22 467.69,359.29 469.22,360.82 C470.06,361.66 470.09,362.31 469.33,363.07 C468.58,363.82 468.07,363.64 467.61,362.42 Z M558.00,360.00 C558.00,359.45 558.45,359.00 559.00,359.00 C559.55,359.00 560.00,359.45 560.00,360.00 C560.00,360.55 559.55,361.00 559.00,361.00 C558.45,361.00 558.00,360.55 558.00,360.00 Z M473.67,354.33 C472.41,353.08 473.00,352.12 474.95,352.27 C476.42,352.38 476.64,352.73 475.83,353.71 C474.58,355.21 474.55,355.22 473.67,354.33 Z M542.57,345.33 C542.22,344.42 542.29,343.31 542.72,342.88 C543.15,342.45 543.56,343.20 543.64,344.55 C543.81,347.41 543.47,347.66 542.57,345.33 Z M541.00,341.55 C541.00,341.17 541.67,340.18 542.50,339.36 C543.33,338.53 544.00,338.28 544.00,338.81 C544.00,339.33 543.33,340.32 542.50,341.00 C541.67,341.68 541.00,341.93 541.00,341.55 Z M480.46,338.93 C480.10,338.35 480.01,337.65 480.28,337.39 C480.54,337.13 481.02,337.61 481.35,338.46 C482.02,340.22 481.44,340.53 480.46,338.93 Z M482.71,337.99 C482.11,335.71 482.73,334.96 484.60,335.68 C486.41,336.37 486.41,338.63 484.60,339.32 C483.77,339.64 483.00,339.09 482.71,337.99 Z M543.08,335.42 C543.13,334.25 543.36,334.01 543.68,334.81 C543.97,335.53 543.94,336.40 543.60,336.73 C543.27,337.06 543.04,336.47 543.08,335.42 Z M480.58,332.13 C480.15,331.44 480.07,330.60 480.40,330.27 C481.29,329.37 482.27,330.69 481.79,332.14 C481.45,333.15 481.21,333.15 480.58,332.13 Z M533.81,329.48 C532.79,328.45 534.26,324.00 535.62,324.00 C537.41,324.00 537.38,325.48 535.55,327.31 C534.75,328.11 534.37,329.04 534.71,329.38 C535.05,329.72 535.11,330.00 534.83,330.00 C534.56,330.00 534.10,329.76 533.81,329.48 Z M483.02,324.98 C483.03,322.00 484.39,319.61 485.77,320.13 C486.35,320.34 485.97,321.97 484.88,323.98 C483.15,327.19 483.00,327.27 483.02,324.98 Z M543.08,325.42 C543.13,324.25 543.36,324.01 543.68,324.81 C543.97,325.53 543.94,326.40 543.60,326.73 C543.27,327.06 543.04,326.47 543.08,325.42 Z M486.50,325.00 C486.84,324.45 487.32,324.00 487.56,324.00 C487.80,324.00 488.00,324.45 488.00,325.00 C488.00,325.55 487.52,326.00 486.94,326.00 C486.36,326.00 486.16,325.55 486.50,325.00 Z M492.00,321.00 C492.00,320.45 492.45,320.00 493.00,320.00 C493.55,320.00 494.00,320.45 494.00,321.00 C494.00,321.55 493.55,322.00 493.00,322.00 C492.45,322.00 492.00,321.55 492.00,321.00 Z M533.00,321.00 C532.10,320.42 531.98,320.02 532.69,320.02 C533.35,320.01 534.16,320.45 534.50,321.00 C535.27,322.24 534.92,322.24 533.00,321.00 Z M527.16,316.00 C527.16,314.62 527.38,314.06 527.66,314.75 C527.94,315.44 527.94,316.56 527.66,317.25 C527.38,317.94 527.16,317.38 527.16,316.00 Z M511.00,311.00 C511.00,310.45 511.45,310.00 512.00,310.00 C512.55,310.00 513.00,310.45 513.00,311.00 C513.00,311.55 512.55,312.00 512.00,312.00 C511.45,312.00 511.00,311.55 511.00,311.00 Z M518.00,306.50 C518.00,305.68 517.82,305.00 517.61,305.00 C517.39,305.00 516.95,305.68 516.64,306.50 C516.32,307.32 516.50,308.00 517.03,308.00 C517.56,308.00 518.00,307.32 518.00,306.50 Z M502.25,306.29 C501.01,306.06 500.00,305.50 500.00,305.07 C500.00,304.63 501.12,304.49 502.50,304.76 C503.88,305.02 505.00,305.63 505.00,306.12 C505.00,306.60 504.89,306.94 504.75,306.86 C504.61,306.79 503.49,306.53 502.25,306.29 Z"/>
</svg>