<?xml version="1.0" encoding="UTF-8"?>
<svg xmlns="http://www.w3.org/2000/svg" viewBox="0 0 1024 1024" width="1024" height="1024">
  <path fill="#074287" fill-rule="evenodd" d="M535.00,665.64 C536.92,664.96 538.38,663.83 538.23,663.13 C538.07,662.43 538.38,662.11 538.90,662.44 C539.41,662.76 540.78,661.83 541.92,660.37 C543.06,658.92 544.00,658.19 544.00,658.75 C544.00,660.62 536.02,667.00 533.75,666.94 C532.03,666.90 532.33,666.59 535.00,665.64 Z M535.86,657.74 C536.48,657.12 537.72,656.51 538.62,656.38 C539.83,656.20 539.97,656.43 539.14,657.26 C538.52,657.88 537.28,658.49 536.38,658.62 C535.17,658.80 535.03,658.57 535.86,657.74 Z M519.73,656.88 C520.41,656.19 521.22,655.89 521.53,656.19 C521.83,656.50 521.28,657.06 520.29,657.44 C518.87,657.98 518.75,657.86 519.73,656.88 Z M526.00,657.00 C529.42,655.90 532.05,655.90 529.50,657.00 C528.40,657.47 526.60,657.85 525.50,657.83 C523.89,657.81 523.99,657.64 526.00,657.00 Z M533.71,654.70 C533.44,653.98 533.87,652.30 534.68,650.95 C535.65,649.33 535.90,649.17 535.44,650.50 C535.05,651.60 534.77,653.29 534.80,654.25 C534.89,656.32 534.41,656.52 533.71,654.70 Z M546.03,652.50 C546.03,651.95 546.47,650.83 547.00,650.00 C547.53,649.17 547.97,648.95 547.97,649.50 C547.97,650.05 547.53,651.17 547.00,652.00 C546.47,652.83 546.03,653.05 546.03,652.50 Z M536.70,646.33 C536.98,645.60 537.34,645.00 537.50,645.00 C537.66,645.00 538.02,645.60 538.30,646.33 C538.58,647.07 538.22,647.67 537.50,647.67 C536.78,647.67 536.42,647.07 536.70,646.33 Z M547.66,646.56 C547.29,645.58 547.43,645.15 548.01,645.51 C548.56,645.84 549.00,645.57 549.00,644.89 C549.00,644.22 549.27,643.93 549.59,644.26 C549.92,644.58 549.76,645.61 549.24,646.53 C548.37,648.10 548.25,648.10 547.66,646.56 Z M471.50,643.54 C467.65,641.77 468.32,641.76 474.50,643.48 C477.53,644.32 478.51,644.87 477.00,644.89 C475.62,644.90 473.15,644.29 471.50,643.54 Z M484.69,643.99 C487.55,643.57 491.57,642.19 493.62,640.93 C495.67,639.66 496.99,639.20 496.55,639.91 C495.19,642.13 487.69,644.96 483.50,644.85 C479.70,644.76 479.76,644.71 484.69,643.99 Z M501.59,643.14 C501.30,642.67 502.17,642.50 503.53,642.76 C504.89,643.02 506.00,643.41 506.00,643.62 C506.00,644.39 502.10,643.97 501.59,643.14 Z M538.08,642.42 C538.13,641.25 538.36,641.01 538.68,641.81 C538.97,642.53 538.94,643.40 538.60,643.73 C538.27,644.06 538.04,643.47 538.08,642.42 Z M593.00,642.99 C591.94,642.29 592.54,642.19 595.00,642.65 C599.31,643.44 600.13,644.01 596.92,643.98 C595.59,643.98 593.83,643.53 593.00,642.99 Z M605.00,643.61 C605.00,643.40 606.33,643.03 607.95,642.79 C609.57,642.56 610.67,642.73 610.39,643.18 C609.89,643.98 605.00,644.38 605.00,643.61 Z M652.81,643.32 C653.53,643.03 654.40,643.06 654.73,643.40 C655.06,643.73 654.47,643.96 653.42,643.92 C652.25,643.87 652.01,643.64 652.81,643.32 Z M389.08,641.00 C390.54,637.94 391.00,637.37 391.00,638.64 C391.00,639.18 390.30,640.49 389.44,641.56 C387.98,643.39 387.96,643.36 389.08,641.00 Z M499.16,641.00 C499.16,639.62 499.38,639.06 499.66,639.75 C499.94,640.44 499.94,641.56 499.66,642.25 C499.38,642.94 499.16,642.38 499.16,641.00 Z M620.16,640.25 C619.99,636.89 618.37,635.87 617.36,638.50 C617.05,639.33 616.30,640.00 615.71,640.00 C615.11,640.00 615.81,638.76 617.26,637.25 C618.71,635.74 620.57,632.92 621.41,631.00 C622.89,627.57 623.00,627.68 623.00,632.50 C623.00,632.77 622.66,632.89 622.25,632.75 C621.84,632.61 621.24,634.98 620.91,638.00 C620.55,641.41 620.26,642.27 620.16,640.25 Z M656.42,621.00 C656.42,609.17 656.57,604.34 656.75,610.25 C656.92,616.16 656.92,625.84 656.75,631.75 C656.57,637.66 656.42,632.83 656.42,621.00 Z M464.50,639.00 C464.16,638.45 464.36,638.00 464.94,638.00 C465.52,638.00 466.00,638.45 466.00,639.00 C466.00,639.55 465.80,640.00 465.56,640.00 C465.32,640.00 464.84,639.55 464.50,639.00 Z M535.56,636.49 C533.40,631.32 533.68,630.74 536.12,635.34 C537.23,637.46 537.91,639.42 537.63,639.70 C537.35,639.98 536.42,638.54 535.56,636.49 Z M542.10,638.00 C542.00,636.00 541.77,635.80 541.00,637.00 C540.24,638.17 540.03,637.91 540.02,635.81 C540.01,634.33 539.59,632.87 539.09,632.56 C538.60,632.25 538.45,630.99 538.77,629.75 C539.30,627.67 539.21,627.61 537.48,629.00 C536.46,629.83 535.93,629.98 536.31,629.34 C536.69,628.70 536.72,627.43 536.36,626.51 C535.85,625.16 535.54,625.09 534.80,626.17 C534.16,627.08 534.07,626.79 534.50,625.25 C534.89,623.87 534.70,623.00 534.00,623.00 C533.30,623.00 533.12,622.19 533.54,620.87 C534.04,619.31 533.88,618.96 532.95,619.53 C532.08,620.07 531.94,619.91 532.50,619.00 C533.13,617.98 533.60,618.10 534.64,619.53 C535.38,620.53 536.26,621.07 536.61,620.72 C536.95,620.38 536.51,619.37 535.62,618.48 C533.41,616.26 533.59,615.73 536.04,617.24 C537.47,618.13 537.91,619.17 537.52,620.75 C537.21,621.99 537.42,623.00 537.98,623.00 C538.54,623.00 538.99,623.79 538.97,624.75 C538.94,626.33 538.80,626.32 537.47,624.56 C536.66,623.49 536.01,623.04 536.02,623.56 C536.05,625.45 537.75,627.15 539.30,626.83 C540.17,626.65 541.56,627.40 542.38,628.50 C543.66,630.21 544.17,630.32 545.94,629.24 C547.23,628.46 548.00,628.37 548.00,629.02 C548.00,629.59 547.31,630.33 546.47,630.65 C545.30,631.10 545.21,631.55 546.10,632.62 C546.93,633.62 546.94,634.00 546.12,634.00 C545.51,634.00 545.00,634.67 545.00,635.50 C545.00,636.33 544.58,637.00 544.07,637.00 C543.56,637.00 542.94,637.79 542.69,638.75 C542.38,639.95 542.19,639.71 542.10,638.00 Z M586.40,637.75 C584.50,635.50 584.50,635.50 586.58,637.25 C588.56,638.92 590.00,638.72 590.00,636.77 C590.00,636.28 589.44,636.21 588.75,636.60 C588.06,637.00 588.62,636.01 590.00,634.41 C591.38,632.82 592.86,631.35 593.29,631.16 C593.73,630.96 593.64,630.27 593.10,629.62 C592.56,628.97 592.43,627.96 592.81,627.38 C593.22,626.76 594.94,627.87 597.09,630.17 C600.93,634.27 600.92,635.03 597.05,632.32 C594.87,630.80 594.71,630.79 595.27,632.27 C595.70,633.38 595.20,634.14 593.70,634.65 C592.49,635.06 591.14,635.30 590.71,635.18 C590.27,635.07 590.44,635.99 591.09,637.24 C591.74,638.48 591.91,639.17 591.48,638.76 C591.04,638.35 590.15,638.46 589.49,639.01 C588.67,639.69 587.73,639.31 586.40,637.75 Z M645.46,600.00 C645.46,577.73 645.59,568.61 645.75,579.75 C645.91,590.89 645.91,609.11 645.75,620.25 C645.59,631.39 645.46,622.27 645.46,600.00 Z M607.81,638.32 C608.53,638.03 609.40,638.06 609.73,638.40 C610.06,638.73 609.47,638.96 608.42,638.92 C607.25,638.87 607.01,638.64 607.81,638.32 Z M498.50,637.00 C498.16,636.45 498.36,636.00 498.94,636.00 C499.52,636.00 500.00,636.45 500.00,637.00 C500.00,637.55 499.80,638.00 499.56,638.00 C499.32,638.00 498.84,637.55 498.50,637.00 Z M592.00,637.59 C592.00,637.40 592.67,636.68 593.50,636.00 C594.36,635.28 595.00,635.19 595.00,635.77 C595.00,636.33 594.33,637.05 593.50,637.36 C592.67,637.68 592.00,637.78 592.00,637.59 Z M443.08,635.42 C443.13,634.25 443.36,634.01 443.68,634.81 C443.97,635.53 443.94,636.40 443.60,636.73 C443.27,637.06 443.04,636.47 443.08,635.42 Z M451.16,634.46 C449.49,630.78 449.81,630.00 451.62,633.34 C452.46,634.90 452.97,636.36 452.74,636.59 C452.51,636.82 451.80,635.86 451.16,634.46 Z M481.75,636.34 C482.44,636.06 483.56,636.06 484.25,636.34 C484.94,636.62 484.38,636.84 483.00,636.84 C481.62,636.84 481.06,636.62 481.75,636.34 Z M379.03,635.50 C379.03,634.95 379.47,633.83 380.00,633.00 C380.53,632.17 380.97,631.95 380.97,632.50 C380.97,633.05 380.53,634.17 380.00,635.00 C379.47,635.83 379.03,636.05 379.03,635.50 Z M438.62,634.46 C437.66,631.95 437.94,631.30 439.12,633.33 C439.71,634.33 439.97,635.36 439.72,635.62 C439.46,635.88 438.97,635.36 438.62,634.46 Z M476.56,635.09 C476.25,634.59 476.90,634.42 478.00,634.71 C480.33,635.32 480.63,636.00 478.56,636.00 C477.77,636.00 476.87,635.59 476.56,635.09 Z M486.81,635.32 C487.53,635.03 488.40,635.06 488.73,635.40 C489.06,635.73 488.47,635.96 487.42,635.92 C486.25,635.87 486.01,635.64 486.81,635.32 Z M445.12,633.13 C445.02,631.14 444.76,630.96 443.50,632.00 C442.46,632.86 442.00,632.90 442.00,632.12 C442.00,631.51 442.44,631.00 442.97,631.00 C443.50,631.00 443.68,630.33 443.36,629.50 C443.05,628.67 443.28,628.00 443.89,628.00 C444.50,628.00 445.00,628.45 445.00,629.00 C445.00,629.55 445.79,630.01 446.75,630.02 C447.86,630.03 448.09,630.30 447.37,630.77 C446.74,631.17 446.01,632.40 445.73,633.50 C445.30,635.24 445.22,635.19 445.12,633.13 Z M490.00,634.61 C490.00,634.39 490.70,633.95 491.55,633.62 C492.44,633.28 492.84,633.44 492.49,634.01 C491.91,634.96 490.00,635.42 490.00,634.61 Z M500.54,634.07 C500.23,633.56 500.43,632.85 501.00,632.50 C501.57,632.15 501.77,631.44 501.46,630.93 C501.14,630.42 501.36,630.00 501.94,630.00 C502.52,630.00 503.00,630.67 503.00,631.50 C503.00,632.33 502.52,633.00 501.94,633.00 C501.36,633.00 501.16,633.45 501.50,634.00 C501.84,634.55 501.89,635.00 501.62,635.00 C501.34,635.00 500.86,634.58 500.54,634.07 Z M605.86,633.92 C610.34,633.04 617.00,628.77 617.00,626.78 C617.00,626.17 617.30,625.97 617.67,626.34 C618.69,627.36 613.91,632.08 610.28,633.63 C608.51,634.38 605.81,634.95 604.28,634.89 C602.22,634.81 602.63,634.56 605.86,633.92 Z M392.03,633.50 C392.03,632.95 392.47,631.83 393.00,631.00 C393.53,630.17 393.97,629.95 393.97,630.50 C393.97,631.05 393.53,632.17 393.00,633.00 C392.47,633.83 392.03,634.05 392.03,633.50 Z M473.21,631.97 C471.56,629.33 471.69,624.80 473.47,622.44 C474.28,621.37 474.95,621.04 474.97,621.69 C474.99,622.35 474.55,623.16 474.00,623.50 C472.68,624.32 472.72,628.62 474.08,631.15 C475.50,633.80 474.78,634.48 473.21,631.97 Z M495.90,630.50 C497.59,627.24 498.97,625.43 498.96,626.50 C498.96,627.05 498.04,628.62 496.91,630.00 C495.55,631.66 495.21,631.83 495.90,630.50 Z M549.60,630.40 C549.24,629.47 549.18,628.49 549.45,628.21 C549.73,627.94 550.24,628.47 550.60,629.40 C550.96,630.33 551.02,631.31 550.75,631.59 C550.47,631.86 549.96,631.33 549.60,630.40 Z M540.68,627.81 C540.36,627.01 540.13,627.25 540.08,628.42 C540.04,629.47 540.27,630.06 540.60,629.73 C540.94,629.40 540.97,628.53 540.68,627.81 Z M441.08,627.42 C441.13,626.25 441.36,626.01 441.68,626.81 C441.97,627.53 441.94,628.40 441.60,628.73 C441.27,629.06 441.04,628.47 441.08,627.42 Z M543.00,628.08 C543.00,627.58 542.71,626.34 542.37,625.33 C541.81,623.72 541.93,623.74 543.33,625.50 C544.46,626.90 544.95,627.07 544.97,626.08 C544.99,625.30 545.24,624.90 545.52,625.19 C546.27,625.94 544.96,629.00 543.89,629.00 C543.40,629.00 543.00,628.59 543.00,628.08 Z M447.62,626.46 C446.66,623.95 446.94,623.30 448.12,625.33 C448.71,626.33 448.97,627.36 448.72,627.62 C448.46,627.88 447.97,627.36 447.62,626.46 Z M551.68,626.39 C552.10,625.30 551.95,624.91 551.27,625.33 C550.69,625.69 549.95,625.31 549.63,624.47 C549.15,623.23 549.41,623.15 551.02,624.01 C553.18,625.16 553.56,626.53 552.01,627.49 C551.42,627.86 551.29,627.41 551.68,626.39 Z M444.00,625.94 C444.00,625.36 444.45,625.16 445.00,625.50 C445.55,625.84 446.00,626.32 446.00,626.56 C446.00,626.80 445.55,627.00 445.00,627.00 C444.45,627.00 444.00,626.52 444.00,625.94 Z M529.68,623.45 C527.33,618.53 527.66,617.69 530.12,622.34 C531.23,624.46 531.97,626.37 531.75,626.58 C531.54,626.80 530.60,625.39 529.68,623.45 Z M557.03,625.50 C557.03,624.95 557.47,623.83 558.00,623.00 C558.53,622.17 558.97,621.95 558.97,622.50 C558.97,623.05 558.53,624.17 558.00,625.00 C557.47,625.83 557.03,626.05 557.03,625.50 Z M581.16,624.00 C581.16,622.62 581.38,622.06 581.66,622.75 C581.94,623.44 581.94,624.56 581.66,625.25 C581.38,625.94 581.16,625.38 581.16,624.00 Z M405.80,623.26 C410.36,623.07 417.56,623.07 421.80,623.26 C426.03,623.44 422.30,623.60 413.50,623.60 C404.70,623.59 401.23,623.44 405.80,623.26 Z M509.38,612.50 C509.38,605.90 509.55,603.33 509.74,606.79 C509.94,610.25 509.94,615.65 509.74,618.79 C509.54,621.93 509.38,619.10 509.38,612.50 Z M552.46,622.93 C551.43,621.27 552.35,621.04 553.79,622.60 C554.50,623.37 554.64,624.00 554.10,624.00 C553.56,624.00 552.82,623.52 552.46,622.93 Z M470.12,621.87 C469.97,619.76 472.57,617.50 473.47,618.95 C473.83,619.53 473.45,620.00 472.63,620.00 C471.82,620.00 470.94,620.79 470.69,621.75 C470.30,623.23 470.21,623.25 470.12,621.87 Z M498.23,620.00 C498.23,618.08 498.44,617.29 498.69,618.25 C498.94,619.21 498.94,620.79 498.69,621.75 C498.44,622.71 498.23,621.92 498.23,620.00 Z M420.99,620.99 C420.04,620.41 420.21,620.08 421.60,619.72 C422.65,619.45 419.00,619.09 413.50,618.91 L403.50,618.59L411.99,618.25 C417.78,618.02 420.00,617.61 418.99,616.97 C417.86,616.26 418.23,616.02 420.50,616.00 C422.15,615.98 424.18,615.52 425.00,614.98 C426.03,614.29 422.64,614.02 414.16,614.10 C401.62,614.21 399.33,613.67 401.03,610.99 C401.83,609.73 401.97,609.77 401.98,611.25 C402.00,612.83 403.31,613.00 415.43,613.00 C426.69,613.00 428.91,612.75 429.18,611.47 C429.43,610.24 429.76,610.35 430.76,611.97 C431.89,613.80 431.78,614.00 429.57,614.00 C428.22,614.00 426.79,614.53 426.39,615.17 C425.91,615.96 426.22,616.13 427.34,615.70 C428.26,615.35 429.00,615.55 429.00,616.15 C429.00,616.74 428.10,617.00 427.00,616.71 C425.90,616.42 424.75,616.60 424.44,617.09 C424.13,617.59 424.92,618.04 426.19,618.10 C428.47,618.20 428.47,618.21 426.00,619.00 C424.62,619.44 424.14,619.85 424.92,619.90 C425.70,619.96 426.02,620.31 425.64,620.70 C424.59,621.74 422.43,621.88 420.99,620.99 Z M554.46,620.93 C554.10,620.35 554.01,619.65 554.28,619.39 C554.54,619.13 555.02,619.61 555.35,620.46 C556.02,622.22 555.44,622.53 554.46,620.93 Z M619.41,605.00 C619.41,595.38 619.56,591.44 619.74,596.25 C619.93,601.06 619.93,608.94 619.74,613.75 C619.56,618.56 619.41,614.62 619.41,605.00 Z M411.25,620.31 C412.21,620.06 413.79,620.06 414.75,620.31 C415.71,620.56 414.93,620.77 413.00,620.77 C411.07,620.77 410.29,620.56 411.25,620.31 Z M475.33,619.70 C475.33,619.04 476.41,618.43 477.73,618.35 C480.40,618.19 480.38,618.27 477.42,619.81 C475.86,620.62 475.33,620.59 475.33,619.70 Z M386.03,618.50 C386.03,617.95 386.47,616.83 387.00,616.00 C387.53,615.17 387.97,614.95 387.97,615.50 C387.97,616.05 387.53,617.17 387.00,618.00 C386.47,618.83 386.03,619.05 386.03,618.50 Z M466.00,615.50 C467.29,614.12 468.57,613.00 468.85,613.00 C469.12,613.00 468.29,614.12 467.00,615.50 C465.71,616.88 464.43,618.00 464.15,618.00 C463.88,618.00 464.71,616.88 466.00,615.50 Z M472.05,617.03 C471.24,616.53 471.73,616.25 473.39,616.25 C476.30,616.25 476.65,616.54 474.66,617.30 C473.92,617.58 472.75,617.46 472.05,617.03 Z M539.00,617.11 C539.00,616.43 538.58,616.14 538.07,616.46 C537.56,616.77 536.81,616.51 536.41,615.86 C535.96,615.13 536.12,614.96 536.85,615.40 C537.49,615.80 538.01,615.54 538.03,614.81 C538.05,614.03 538.49,614.25 539.12,615.33 C539.71,616.33 539.92,617.42 539.59,617.74 C539.27,618.07 539.00,617.78 539.00,617.11 Z M402.54,616.06 C402.26,615.62 403.15,615.25 404.52,615.25 C405.88,615.25 407.00,615.55 407.00,615.91 C407.00,616.88 403.13,617.01 402.54,616.06 Z M408.81,616.32 C409.53,616.03 410.40,616.06 410.73,616.40 C411.06,616.73 410.47,616.96 409.42,616.92 C408.25,616.87 408.01,616.64 408.81,616.32 Z M525.62,614.46 C524.66,611.95 524.94,611.30 526.12,613.33 C526.71,614.33 526.97,615.36 526.72,615.62 C526.46,615.88 525.97,615.36 525.62,614.46 Z M561.37,615.00 C562.25,611.75 565.27,604.94 565.66,605.33 C565.89,605.56 564.93,608.16 563.52,611.12 C562.12,614.08 561.15,615.83 561.37,615.00 Z M630.27,612.00 C630.27,609.52 630.47,608.51 630.71,609.75 C630.94,610.99 630.94,613.01 630.71,614.25 C630.47,615.49 630.27,614.48 630.27,612.00 Z M502.00,612.56 C502.00,611.77 502.41,610.87 502.91,610.56 C503.41,610.25 503.58,610.90 503.29,612.00 C502.68,614.33 502.00,614.63 502.00,612.56 Z M442.00,612.11 C442.00,611.43 441.56,611.16 441.01,611.49 C440.43,611.85 440.29,611.42 440.66,610.44 C441.25,608.90 441.37,608.90 442.24,610.47 C442.76,611.39 442.92,612.42 442.59,612.74 C442.27,613.07 442.00,612.78 442.00,612.11 Z M389.00,610.56 C389.00,609.77 389.41,608.87 389.91,608.56 C390.41,608.25 390.58,608.90 390.29,610.00 C389.68,612.33 389.00,612.63 389.00,610.56 Z M479.50,608.96 C481.42,608.17 499.77,607.61 498.92,608.37 C498.69,608.57 493.77,608.97 488.00,609.25 C482.17,609.54 478.39,609.41 479.50,608.96 Z M500.00,609.62 C500.00,609.41 500.79,608.63 501.75,607.87 C503.34,606.63 503.37,606.66 502.13,608.25 C500.82,609.92 500.00,610.45 500.00,609.62 Z M522.62,607.46 C521.66,604.95 521.94,604.30 523.12,606.33 C523.71,607.33 523.97,608.36 523.72,608.62 C523.46,608.88 522.97,608.36 522.62,607.46 Z M397.56,606.71 C397.94,605.72 398.50,605.17 398.81,605.47 C399.11,605.78 398.81,606.59 398.12,607.27 C397.14,608.25 397.02,608.13 397.56,606.71 Z M403.08,606.00 C404.54,602.94 405.00,602.37 405.00,603.64 C405.00,604.18 404.30,605.49 403.44,606.56 C401.98,608.39 401.96,608.36 403.08,606.00 Z M439.16,605.46 C437.49,601.78 437.81,601.00 439.62,604.34 C440.46,605.90 440.97,607.36 440.74,607.59 C440.51,607.82 439.80,606.86 439.16,605.46 Z M504.35,606.46 C504.02,605.61 504.03,604.63 504.38,604.29 C504.72,603.95 505.00,604.44 505.00,605.39 C505.00,606.34 505.45,606.84 506.00,606.50 C506.55,606.16 507.00,606.36 507.00,606.94 C507.00,608.56 505.01,608.20 504.35,606.46 Z M530.00,607.50 C529.87,606.95 529.86,605.60 529.97,604.50 L530.16,602.50L528.61,604.50 C527.76,605.60 527.05,605.99 527.03,605.37 C527.01,604.75 527.67,603.69 528.49,603.01 C529.69,602.01 530.09,602.07 530.57,603.33 C530.90,604.18 530.96,605.70 530.70,606.69 C530.44,607.69 530.13,608.05 530.00,607.50 Z M498.08,605.42 C498.13,604.25 498.36,604.01 498.68,604.81 C498.97,605.53 498.94,606.40 498.60,606.73 C498.27,607.06 498.04,606.47 498.08,605.42 Z M532.56,603.71 C532.94,602.72 533.50,602.17 533.81,602.47 C534.11,602.78 533.81,603.59 533.12,604.27 C532.14,605.25 532.02,605.13 532.56,603.71 Z M520.16,601.46 C518.49,597.78 518.81,597.00 520.62,600.34 C521.46,601.90 521.97,603.36 521.74,603.59 C521.51,603.82 520.80,602.86 520.16,601.46 Z M496.56,601.29 C496.02,599.87 496.14,599.75 497.12,600.73 C497.81,601.41 498.11,602.22 497.81,602.53 C497.50,602.83 496.94,602.28 496.56,601.29 Z M526.00,602.11 C526.00,601.43 525.48,601.20 524.85,601.60 C524.10,602.06 523.96,601.87 524.46,601.07 C525.00,600.19 525.54,600.14 526.30,600.90 C526.88,601.48 527.06,602.27 526.68,602.65 C526.31,603.03 526.00,602.78 526.00,602.11 Z M429.44,601.23 C429.78,600.89 430.76,600.51 431.62,600.38 C432.48,600.25 432.90,600.43 432.56,600.77 C432.22,601.11 431.24,601.49 430.38,601.62 C429.52,601.75 429.10,601.57 429.44,601.23 Z M436.62,599.46 C435.66,596.95 435.94,596.30 437.12,598.33 C437.71,599.33 437.97,600.36 437.72,600.62 C437.46,600.88 436.97,600.36 436.62,599.46 Z M527.50,600.00 C527.84,599.45 528.32,599.00 528.56,599.00 C528.80,599.00 529.00,599.45 529.00,600.00 C529.00,600.55 528.52,601.00 527.94,601.00 C527.36,601.00 527.16,600.55 527.50,600.00 Z M532.00,600.79 C532.00,600.49 531.32,598.61 530.49,596.62 C529.65,594.63 529.20,593.00 529.47,593.00 C530.26,593.00 533.08,600.25 532.51,600.82 C532.23,601.10 532.00,601.09 532.00,600.79 Z M555.03,600.50 C555.03,599.95 555.47,598.83 556.00,598.00 C556.53,597.17 556.97,596.95 556.97,597.50 C556.97,598.05 556.53,599.17 556.00,600.00 C555.47,600.83 555.03,601.05 555.03,600.50 Z M465.39,597.47 C464.48,596.08 463.91,594.76 464.13,594.53 C464.36,594.31 465.30,595.45 466.22,597.06 C468.29,600.66 467.67,600.96 465.39,597.47 Z M423.62,597.46 C422.66,594.95 422.94,594.30 424.12,596.33 C424.71,597.33 424.97,598.36 424.72,598.62 C424.46,598.88 423.97,598.36 423.62,597.46 Z M430.08,596.56 C430.00,593.73 429.94,593.69 428.43,595.56 C426.93,597.41 426.89,597.37 427.47,594.67 C427.87,592.81 427.72,592.06 427.03,592.48 C426.37,592.89 426.41,592.19 427.15,590.58 L428.31,588.03L430.64,591.18 C432.03,593.07 432.62,594.77 432.12,595.42 C431.65,596.01 431.02,597.17 430.71,598.00 C430.41,598.83 430.12,598.18 430.08,596.56 Z M407.03,596.50 C407.03,595.95 407.47,594.83 408.00,594.00 C408.53,593.17 408.97,592.95 408.97,593.50 C408.97,594.05 408.53,595.17 408.00,596.00 C407.47,596.83 407.03,597.05 407.03,596.50 Z M491.26,596.31 C492.23,596.06 492.72,595.36 492.36,594.77 C491.96,594.12 492.16,593.98 492.86,594.41 C494.43,595.38 493.31,597.03 491.19,596.88 C489.68,596.78 489.69,596.72 491.26,596.31 Z M504.65,593.43 C502.90,591.24 501.24,590.08 500.35,590.42 C499.42,590.78 499.15,590.56 499.61,589.82 C500.09,589.04 499.77,588.87 498.61,589.32 C497.59,589.71 497.14,589.58 497.51,588.99 C497.84,588.44 498.51,588.00 498.98,588.00 C500.28,588.00 505.90,592.95 507.06,595.11 C508.57,597.93 507.83,597.42 504.65,593.43 Z M434.62,594.46 C433.66,591.95 433.94,591.30 435.12,593.33 C435.71,594.33 435.97,595.36 435.72,595.62 C435.46,595.88 434.97,595.36 434.62,594.46 Z M483.25,595.31 C484.21,595.06 485.79,595.06 486.75,595.31 C487.71,595.56 486.93,595.77 485.00,595.77 C483.07,595.77 482.29,595.56 483.25,595.31 Z M396.03,593.50 C396.03,592.95 396.47,591.83 397.00,591.00 C397.53,590.17 397.97,589.95 397.97,590.50 C397.97,591.05 397.53,592.17 397.00,593.00 C396.47,593.83 396.03,594.05 396.03,593.50 Z M497.08,593.72 C497.31,593.56 498.30,592.82 499.27,592.08 C500.82,590.89 500.96,590.93 500.42,592.36 C500.07,593.26 499.08,594.00 498.23,594.00 C497.37,594.00 496.85,593.87 497.08,593.72 Z M464.00,592.57 C464.00,592.30 464.90,591.59 466.00,591.00 C467.10,590.41 468.00,590.15 468.00,590.43 C468.00,590.70 467.10,591.41 466.00,592.00 C464.90,592.59 464.00,592.85 464.00,592.57 Z M409.03,591.50 C409.03,590.95 409.47,589.83 410.00,589.00 C410.53,588.17 410.97,587.95 410.97,588.50 C410.97,589.05 410.53,590.17 410.00,591.00 C409.47,591.83 409.03,592.05 409.03,591.50 Z M420.11,588.89 C419.50,587.12 419.17,585.50 419.38,585.29 C419.59,585.07 420.27,586.34 420.89,588.11 C421.50,589.88 421.83,591.50 421.62,591.71 C421.41,591.93 420.73,590.66 420.11,588.89 Z M430.03,588.50 C430.03,587.95 430.47,586.83 431.00,586.00 C431.53,585.17 431.97,584.95 431.97,585.50 C431.97,586.05 431.53,587.17 431.00,588.00 C430.47,588.83 430.03,589.05 430.03,588.50 Z M474.81,587.32 C475.53,587.03 476.40,587.06 476.73,587.40 C477.06,587.73 476.47,587.96 475.42,587.92 C474.25,587.87 474.01,587.64 474.81,587.32 Z M520.76,587.29 C522.01,587.05 523.81,587.06 524.76,587.31 C525.72,587.56 524.70,587.76 522.50,587.75 C520.30,587.74 519.52,587.53 520.76,587.29 Z M563.25,587.28 C564.76,587.05 567.24,587.05 568.75,587.28 C570.26,587.51 569.02,587.70 566.00,587.70 C562.98,587.70 561.74,587.51 563.25,587.28 Z M584.75,587.29 C585.99,587.06 588.01,587.06 589.25,587.29 C590.49,587.53 589.48,587.73 587.00,587.73 C584.52,587.73 583.51,587.53 584.75,587.29 Z M411.03,586.50 C411.03,585.95 411.47,584.83 412.00,584.00 C412.53,583.17 412.97,582.95 412.97,583.50 C412.97,584.05 412.53,585.17 412.00,586.00 C411.47,586.83 411.03,587.05 411.03,586.50 Z M479.27,586.31 C480.24,586.05 481.59,586.07 482.27,586.34 C482.95,586.62 482.15,586.83 480.50,586.81 C478.85,586.78 478.30,586.56 479.27,586.31 Z M490.27,586.31 C491.24,586.05 492.59,586.07 493.27,586.34 C493.95,586.62 493.15,586.83 491.50,586.81 C489.85,586.78 489.30,586.56 490.27,586.31 Z M400.04,583.87 C399.98,582.94 402.96,576.00 403.42,576.00 C403.64,576.00 403.59,576.85 403.32,577.89 C403.05,578.93 403.31,580.08 403.91,580.45 C404.51,580.82 404.99,581.65 404.97,582.31 C404.95,582.96 404.44,582.64 403.84,581.60 C402.78,579.78 402.67,579.80 401.40,582.10 C400.67,583.42 400.05,584.22 400.04,583.87 Z M416.97,580.93 L415.68,577.80L414.30,580.15 L412.92,582.50L413.57,580.00 C414.69,575.73 415.80,575.59 417.44,579.52 C418.31,581.60 418.86,583.48 418.65,583.69 C418.44,583.89 417.69,582.66 416.97,580.93 Z M406.78,580.74 C407.14,579.34 406.94,578.92 406.15,579.41 C405.26,579.95 405.26,579.52 406.14,577.60 C407.22,575.21 409.00,574.92 409.00,577.12 C409.00,577.67 408.47,577.79 407.83,577.39 C407.03,576.90 406.87,577.23 407.33,578.42 C407.70,579.38 408.00,580.68 408.00,581.30 C408.00,581.93 408.70,581.44 409.56,580.22 C410.41,579.00 410.80,577.43 410.41,576.75 C409.87,575.79 410.00,575.77 410.97,576.67 C411.98,577.60 411.92,578.28 410.64,580.10 C408.55,583.09 406.06,583.50 406.78,580.74 Z M427.62,578.46 C426.66,575.95 426.94,575.30 428.12,577.33 C428.71,578.33 428.97,579.36 428.72,579.62 C428.46,579.88 427.97,579.36 427.62,578.46 Z M405.57,570.00 C405.94,568.62 406.66,566.83 407.17,566.00 C407.81,564.96 407.89,565.26 407.43,567.00 C407.06,568.38 406.34,570.17 405.83,571.00 C405.19,572.04 405.11,571.74 405.57,570.00 Z M417.70,568.67 C417.42,567.93 417.78,567.33 418.50,567.33 C419.22,567.33 419.58,567.93 419.30,568.67 C419.02,569.40 418.66,570.00 418.50,570.00 C418.34,570.00 417.98,569.40 417.70,568.67 Z M423.62,568.46 C422.66,565.95 422.94,565.30 424.12,567.33 C424.71,568.33 424.97,569.36 424.72,569.62 C424.46,569.88 423.97,569.36 423.62,568.46 Z M652.81,557.32 C653.53,557.03 654.40,557.06 654.73,557.40 C655.06,557.73 654.47,557.96 653.42,557.92 C652.25,557.87 652.01,557.64 652.81,557.32 Z M468.49,485.98 C444.30,461.77 424.64,441.40 424.80,440.73 C424.97,440.05 434.27,430.32 445.47,419.09 L465.82,398.68L481.93,415.09 C490.79,424.12 499.69,433.18 501.71,435.23 L505.37,438.97L497.44,446.97 C493.07,451.37 489.06,454.98 488.52,454.99 C487.98,454.99 482.80,450.30 477.02,444.56 C465.41,433.02 466.22,433.26 460.55,439.84 L458.59,442.11L486.00,469.46 L513.41,496.82L540.88,469.40 L568.36,441.98L565.50,439.00 C560.09,433.35 560.78,432.92 536.39,457.16 C524.03,469.45 513.69,479.70 513.43,479.95 C512.87,480.46 497.00,464.91 497.00,463.85 C497.00,462.61 560.17,400.00 561.42,400.00 C562.91,400.00 602.00,439.65 602.00,441.17 C602.00,442.27 514.16,530.00 513.06,530.00 C512.74,530.00 492.68,510.19 468.49,485.98 Z M502.75,420.94 C497.39,415.58 493.00,410.75 493.00,410.21 C493.00,409.67 491.88,408.49 490.50,407.59 C489.12,406.69 488.00,405.29 488.00,404.48 C488.00,403.66 487.44,402.98 486.75,402.96 C484.37,402.90 479.68,398.26 480.32,396.60 C481.02,394.77 477.24,390.74 475.70,391.68 C473.73,392.91 476.04,387.05 478.51,384.58 C479.88,383.21 481.00,381.38 481.00,380.50 C481.00,379.55 481.69,379.03 482.72,379.21 C483.94,379.41 484.60,378.63 484.99,376.50 C485.37,374.41 485.79,373.90 486.37,374.82 C487.04,375.88 487.52,375.84 488.89,374.60 C490.42,373.21 490.83,373.35 493.36,376.02 C494.89,377.64 495.84,379.44 495.48,380.03 C494.68,381.33 496.89,384.19 498.11,383.43 C498.60,383.13 499.00,383.60 499.00,384.48 C499.00,385.36 501.04,388.26 503.52,390.92 C507.77,395.47 508.33,395.75 512.84,395.63 C515.92,395.55 518.26,394.88 519.37,393.77 C520.32,392.82 522.08,391.36 523.28,390.51 C525.10,389.24 525.27,388.67 524.31,387.12 C523.32,385.54 523.65,384.76 526.46,382.04 C528.53,380.03 530.03,379.23 530.45,379.91 C531.58,381.75 532.84,381.12 532.29,379.00 C531.99,377.84 532.26,377.00 532.94,377.00 C533.59,377.00 533.88,376.62 533.59,376.14 C532.88,375.00 538.15,375.99 539.83,377.32 C540.78,378.08 541.43,377.97 542.14,376.94 C542.88,375.87 542.97,376.06 542.51,377.70 C542.14,379.02 542.57,380.94 543.57,382.46 C544.89,384.48 544.99,385.31 544.03,386.46 C541.75,389.21 544.07,390.21 546.54,387.55 C547.84,386.15 549.60,385.00 550.45,385.00 C552.74,385.00 552.42,389.70 550.04,390.98 C548.96,391.56 547.36,393.55 546.48,395.40 C545.60,397.26 539.60,403.95 533.14,410.28 C526.69,416.60 520.18,423.39 518.67,425.37 C513.78,431.78 513.53,431.71 502.75,420.94 Z M514.00,421.50 C514.00,420.68 513.55,420.00 513.00,420.00 C512.45,420.00 512.00,420.68 512.00,421.50 C512.00,422.32 512.45,423.00 513.00,423.00 C513.55,423.00 514.00,422.32 514.00,421.50 Z M530.00,405.00 C530.00,403.89 529.33,403.00 528.50,403.00 C526.98,403.00 526.45,405.12 527.67,406.33 C528.93,407.60 530.00,406.99 530.00,405.00 Z M535.44,401.10 C536.10,400.03 533.20,398.76 531.91,399.56 C531.41,399.87 531.00,400.54 531.00,401.06 C531.00,402.26 534.70,402.30 535.44,401.10 Z M492.00,400.00 C492.00,399.45 491.80,399.00 491.56,399.00 C491.32,399.00 490.84,399.45 490.50,400.00 C490.16,400.55 490.36,401.00 490.94,401.00 C491.52,401.00 492.00,400.55 492.00,400.00 Z M528.00,397.80 C528.00,396.09 527.73,395.87 526.80,396.80 C526.14,397.46 524.79,398.00 523.80,398.00 C522.81,398.00 522.00,398.45 522.00,399.00 C522.00,399.55 523.35,400.00 525.00,400.00 C527.42,400.00 528.00,399.58 528.00,397.80 Z M497.59,390.26 C496.50,389.16 495.75,390.90 496.53,392.71 C497.27,394.42 497.33,394.42 497.74,392.67 C497.98,391.67 497.91,390.58 497.59,390.26 Z M530.00,393.00 C530.00,392.45 530.71,392.00 531.57,392.00 C533.32,392.00 536.00,389.68 536.00,388.17 C536.00,387.63 535.10,387.42 534.00,387.71 C532.90,388.00 532.00,387.76 532.00,387.18 C532.00,385.88 535.63,384.65 536.99,385.49 C537.55,385.84 538.00,385.19 538.00,384.06 C538.00,382.93 537.33,381.93 536.50,381.85 C535.67,381.77 534.44,381.65 533.75,381.60 C533.06,381.55 532.60,382.04 532.73,382.69 C532.86,383.34 532.07,384.16 530.98,384.51 C529.79,384.89 529.00,386.02 529.00,387.37 C529.00,388.60 528.50,390.10 527.89,390.71 C527.28,391.32 527.08,392.31 527.45,392.91 C528.29,394.28 530.00,394.34 530.00,393.00 Z M491.50,383.00 C491.16,382.45 489.56,382.00 487.94,382.00 C486.32,382.00 485.00,382.45 485.00,383.00 C485.00,383.55 486.60,384.00 488.56,384.00 C490.68,384.00 491.87,383.60 491.50,383.00 Z"/>
  <path fill="#202435" fill-rule="evenodd" d="M520.81,666.02 C519.34,665.57 517.87,665.46 517.56,665.77 C516.53,666.80 516.98,664.29 518.46,660.75 C519.26,658.83 519.65,656.99 519.32,656.66 C519.00,656.33 520.25,656.50 522.11,657.04 C528.90,659.01 533.02,656.44 536.89,647.80 C538.05,645.22 539.00,642.80 539.00,642.41 C539.00,642.03 536.90,637.16 534.34,631.61 C531.78,626.05 526.43,613.96 522.44,604.75 L515.20,588.00L521.04,588.00 C524.63,588.00 527.19,588.48 527.67,589.25 C529.06,591.47 532.19,600.43 532.35,602.65 C532.43,603.84 532.78,604.64 533.12,604.42 C533.75,604.04 538.00,613.43 538.00,615.19 C538.00,615.70 537.48,615.80 536.85,615.40 C536.12,614.96 535.96,615.13 536.41,615.86 C536.81,616.51 537.48,616.82 537.90,616.56 C538.72,616.06 541.46,621.77 542.55,626.25 C542.92,627.76 543.55,629.00 543.95,629.00 C544.60,629.00 557.77,596.13 559.48,590.25 C560.07,588.22 560.76,588.00 566.58,588.00 C572.43,588.00 572.92,588.16 572.01,589.75 C570.94,591.61 562.84,610.94 554.00,632.70 C551.06,639.96 548.28,645.67 547.83,645.40 C547.39,645.12 547.27,645.53 547.56,646.30 C548.18,647.91 543.72,658.54 541.33,661.19 C540.45,662.16 539.33,662.71 538.84,662.40 C538.35,662.10 538.07,662.43 538.23,663.13 C538.84,665.96 527.09,667.91 520.81,666.02 Z M539.14,657.26 C539.97,656.43 539.83,656.20 538.62,656.38 C537.72,656.51 536.48,657.12 535.86,657.74 C535.03,658.57 535.17,658.80 536.38,658.62 C537.28,658.49 538.52,657.88 539.14,657.26 Z M473.83,643.28 C465.83,641.24 461.07,635.39 461.40,628.00 C461.65,622.39 463.00,619.26 466.65,615.80 C471.25,611.45 476.37,609.89 488.15,609.27 C498.04,608.75 499.00,608.53 499.00,606.75 C499.00,603.69 495.93,598.00 494.28,598.00 C493.38,598.00 493.01,597.42 493.35,596.53 C493.66,595.72 493.41,594.76 492.80,594.38 C492.18,593.99 491.97,594.14 492.32,594.71 C492.73,595.37 490.58,595.70 486.23,595.63 C480.92,595.55 478.31,596.09 473.87,598.15 L468.24,600.78L466.11,596.98 L463.97,593.18L467.42,591.05 C472.12,588.15 484.11,585.75 489.88,586.57 C496.90,587.56 502.41,590.36 505.60,594.54 L508.48,598.32L509.33,619.20 C509.80,630.68 509.92,640.76 509.61,641.59 C509.19,642.67 507.77,643.03 504.51,642.86 C500.12,642.63 500.00,642.54 500.00,639.31 C500.00,637.49 499.55,636.00 499.00,636.00 C498.45,636.00 498.00,636.44 498.00,636.99 C498.00,637.53 496.24,639.14 494.09,640.56 C488.91,643.98 480.84,645.07 473.83,643.28 Z M595.52,642.91 C590.88,641.77 583.66,634.77 582.56,630.34 C582.17,628.78 581.61,618.61 581.31,607.75 L580.77,588.00L586.38,588.00 L592.00,588.00L592.16,604.50 C592.37,625.60 592.49,628.37 593.33,629.72 C593.70,630.33 593.67,630.98 593.26,631.17 C592.84,631.35 591.38,632.82 590.00,634.41 C588.62,636.01 588.14,636.95 588.92,636.50 C589.94,635.90 590.18,636.09 589.77,637.17 C589.43,638.04 589.75,638.67 590.54,638.67 C591.54,638.67 591.64,638.19 590.90,636.82 C590.36,635.80 590.27,635.07 590.71,635.18 C592.59,635.69 595.86,633.81 595.37,632.52 C594.98,631.50 595.86,631.65 598.63,633.07 C603.12,635.35 605.92,635.49 610.28,633.63 C618.39,630.17 620.00,625.33 620.00,604.35 L620.00,588.00L625.41,588.00 L630.82,588.00L630.66,615.25 L630.50,642.50L625.75,642.79 L621.00,643.09L621.00,638.05 C621.00,635.27 621.34,633.11 621.75,633.25 C622.69,633.56 623.01,632.63 622.96,629.75 C622.93,627.94 622.63,628.18 621.41,631.00 C619.62,635.11 615.55,639.63 611.91,641.53 C608.32,643.41 600.28,644.09 595.52,642.91 Z M377.00,642.00 C377.00,641.40 377.63,639.69 378.40,638.20 C381.06,633.03 408.00,566.01 408.00,564.54 C408.00,563.36 409.43,563.06 414.86,563.11 L421.72,563.18L426.01,573.34 C428.36,578.93 430.29,584.78 430.28,586.33 C430.28,587.89 430.59,588.67 430.96,588.06 C431.76,586.78 432.35,587.94 437.46,600.72 C439.49,605.79 440.82,610.48 440.42,611.13 C440.01,611.80 440.12,612.05 440.68,611.70 C441.23,611.36 443.90,616.48 446.71,623.29 C449.48,630.01 452.49,637.19 453.39,639.25 L455.03,643.00L448.67,643.00 L442.32,643.00L441.07,638.84 C440.39,636.56 438.71,632.34 437.36,629.47 C435.01,624.52 434.65,624.22 430.30,623.63 C423.26,622.66 398.69,622.91 397.00,623.97 C396.18,624.48 393.92,628.86 392.00,633.70 L388.50,642.50L382.75,642.80 C379.05,642.99 377.00,642.71 377.00,642.00 Z M645.74,600.75 L645.98,558.50L650.86,558.20 L655.73,557.90L656.43,564.06 C656.81,567.45 656.80,586.60 656.41,606.61 L655.69,643.00L650.60,643.00 L645.50,643.00L645.74,600.75 Z M544.07,637.00 C544.58,637.00 545.00,636.33 545.00,635.50 C545.00,634.67 545.51,634.00 546.12,634.00 C546.94,634.00 546.93,633.62 546.10,632.62 C545.21,631.55 545.30,631.10 546.47,630.65 C547.31,630.33 548.00,629.59 548.00,629.02 C548.00,628.37 547.23,628.46 545.94,629.24 C544.17,630.32 543.66,630.21 542.38,628.50 C541.56,627.40 540.17,626.65 539.30,626.83 C537.75,627.15 536.05,625.45 536.02,623.56 C536.01,623.04 536.66,623.49 537.47,624.56 C538.80,626.32 538.94,626.33 538.97,624.75 C538.99,623.79 538.54,623.00 537.98,623.00 C537.42,623.00 537.21,621.99 537.52,620.75 C537.91,619.17 537.47,618.13 536.04,617.24 C533.59,615.73 533.41,616.26 535.62,618.48 C536.51,619.37 536.95,620.38 536.61,620.72 C536.26,621.07 535.38,620.53 534.64,619.53 C533.60,618.10 533.13,617.98 532.50,619.00 C531.94,619.91 532.08,620.07 532.95,619.53 C533.88,618.96 534.04,619.31 533.54,620.87 C533.12,622.19 533.30,623.00 534.00,623.00 C534.70,623.00 534.89,623.87 534.50,625.25 C534.07,626.79 534.16,627.08 534.80,626.17 C535.54,625.09 535.85,625.16 536.36,626.51 C536.72,627.43 536.69,628.70 536.31,629.34 C535.93,629.98 536.46,629.83 537.48,629.00 C539.21,627.61 539.30,627.67 538.77,629.75 C538.45,630.99 538.60,632.25 539.09,632.56 C539.59,632.87 540.01,634.33 540.02,635.81 C540.03,637.91 540.24,638.17 541.00,637.00 C541.77,635.80 542.00,636.00 542.10,638.00 C542.19,639.71 542.38,639.95 542.69,638.75 C542.94,637.79 543.56,637.00 544.07,637.00 Z M609.73,638.40 C609.40,638.06 608.53,638.03 607.81,638.32 C607.01,638.64 607.25,638.87 608.42,638.92 C609.47,638.96 610.06,638.73 609.73,638.40 Z M595.00,635.77 C595.00,635.19 594.36,635.28 593.50,636.00 C592.67,636.68 592.00,637.40 592.00,637.59 C592.00,637.78 592.67,637.68 593.50,637.36 C594.33,637.05 595.00,636.33 595.00,635.77 Z M443.68,634.81 C443.36,634.01 443.13,634.25 443.08,635.42 C443.04,636.47 443.27,637.06 443.60,636.73 C443.94,636.40 443.97,635.53 443.68,634.81 Z M487.52,635.89 C490.11,635.24 493.37,633.38 495.46,631.34 C498.67,628.22 499.00,627.39 499.00,622.36 L499.00,616.81L488.75,617.38 C477.07,618.02 474.92,618.26 475.51,618.85 C475.75,619.08 475.05,620.39 473.97,621.77 C471.17,625.32 471.43,630.15 474.58,633.30 C476.81,635.54 478.18,636.17 482.31,636.86 C482.75,636.94 485.09,636.50 487.52,635.89 Z M447.37,630.77 C448.09,630.30 447.86,630.03 446.75,630.02 C445.79,630.01 445.00,629.55 445.00,629.00 C445.00,628.45 444.50,628.00 443.89,628.00 C443.28,628.00 443.05,628.67 443.36,629.50 C443.68,630.33 443.50,631.00 442.97,631.00 C442.44,631.00 442.00,631.51 442.00,632.12 C442.00,632.90 442.46,632.86 443.50,632.00 C444.76,630.96 445.02,631.14 445.12,633.13 C445.22,635.19 445.30,635.24 445.73,633.50 C446.01,632.40 446.74,631.17 447.37,630.77 Z M501.50,634.00 C501.16,633.45 501.36,633.00 501.94,633.00 C502.52,633.00 503.00,632.33 503.00,631.50 C503.00,630.67 502.52,630.00 501.94,630.00 C501.36,630.00 501.14,630.42 501.46,630.93 C501.77,631.44 501.57,632.15 501.00,632.50 C500.04,633.10 500.51,635.00 501.62,635.00 C501.89,635.00 501.84,634.55 501.50,634.00 Z M550.60,629.40 C550.24,628.47 549.73,627.94 549.45,628.21 C549.18,628.49 549.24,629.47 549.60,630.40 C549.96,631.33 550.47,631.86 550.75,631.59 C551.02,631.31 550.96,630.33 550.60,629.40 Z M540.08,628.42 C540.13,627.25 540.36,627.01 540.68,627.81 C540.97,628.53 540.94,629.40 540.60,629.73 C540.27,630.06 540.04,629.47 540.08,628.42 Z M441.68,626.81 C441.36,626.01 441.13,626.25 441.08,627.42 C441.04,628.47 441.27,629.06 441.60,628.73 C441.94,628.40 441.97,627.53 441.68,626.81 Z M445.98,626.48 C445.28,625.64 444.45,625.21 444.14,625.53 C443.82,625.85 444.22,626.53 445.03,627.04 C447.15,628.38 447.42,628.21 445.98,626.48 Z M553.00,625.98 C553.00,625.48 552.11,624.59 551.02,624.01 C549.41,623.15 549.15,623.23 549.63,624.47 C549.95,625.31 550.69,625.69 551.27,625.33 C551.95,624.91 552.10,625.30 551.68,626.39 C551.29,627.41 551.42,627.86 552.01,627.49 C552.56,627.16 553.00,626.47 553.00,625.98 Z M553.79,622.60 C553.08,621.83 552.34,621.35 552.15,621.53 C551.56,622.10 553.06,624.00 554.10,624.00 C554.64,624.00 554.50,623.37 553.79,622.60 Z M472.63,620.00 C473.45,620.00 473.83,619.53 473.47,618.95 C472.57,617.50 469.97,619.76 470.12,621.87 C470.21,623.25 470.30,623.23 470.69,621.75 C470.94,620.79 471.82,620.00 472.63,620.00 Z M425.64,620.70 C426.02,620.31 425.70,619.96 424.92,619.90 C424.14,619.85 424.62,619.44 426.00,619.00 C428.47,618.21 428.47,618.20 426.19,618.10 C424.92,618.04 424.13,617.59 424.44,617.09 C424.75,616.60 425.90,616.42 427.00,616.71 C428.10,617.00 429.00,616.82 429.00,616.32 C429.00,615.82 427.76,615.48 426.25,615.57 C424.74,615.67 422.15,615.81 420.50,615.89 C418.21,616.00 417.85,616.25 418.99,616.97 C420.00,617.61 417.78,618.02 411.99,618.25 L403.50,618.59L413.50,618.91 C419.00,619.09 422.65,619.45 421.60,619.72 C420.21,620.08 420.04,620.41 420.99,620.99 C422.43,621.88 424.59,621.74 425.64,620.70 Z M555.35,620.46 C555.02,619.61 554.54,619.13 554.28,619.39 C554.01,619.65 554.10,620.35 554.46,620.93 C555.44,622.53 556.02,622.22 555.35,620.46 Z M414.75,620.31 C413.79,620.06 412.21,620.06 411.25,620.31 C410.29,620.56 411.07,620.77 413.00,620.77 C414.93,620.77 415.71,620.56 414.75,620.31 Z M476.00,616.52 C476.00,616.37 474.83,616.25 473.39,616.25 C471.73,616.25 471.24,616.53 472.05,617.03 C473.13,617.70 476.00,617.33 476.00,616.52 Z M407.00,615.91 C407.00,615.55 405.88,615.25 404.52,615.25 C403.15,615.25 402.26,615.62 402.54,616.06 C403.13,617.01 407.00,616.88 407.00,615.91 Z M410.73,616.40 C410.40,616.06 409.53,616.03 408.81,616.32 C408.01,616.64 408.25,616.87 409.42,616.92 C410.47,616.96 411.06,616.73 410.73,616.40 Z M429.87,614.03 C431.74,614.01 432.01,613.71 431.14,612.67 C430.53,611.93 426.95,603.58 423.18,594.10 C419.42,584.62 415.93,577.01 415.43,577.18 C414.69,577.44 403.44,604.11 402.64,607.50 C402.51,608.05 401.84,609.52 401.16,610.77 C400.07,612.74 400.17,613.13 401.89,613.77 C402.99,614.17 409.19,614.40 415.69,614.28 C422.18,614.16 428.57,614.05 429.87,614.03 Z M503.29,612.00 C503.58,610.90 503.41,610.25 502.91,610.56 C502.41,610.87 502.00,611.77 502.00,612.56 C502.00,614.63 502.68,614.33 503.29,612.00 Z M502.13,608.25 C503.37,606.66 503.34,606.63 501.75,607.87 C500.79,608.63 500.00,609.41 500.00,609.62 C500.00,610.45 500.82,609.92 502.13,608.25 Z M398.81,605.47 C398.50,605.17 397.94,605.72 397.56,606.71 C397.02,608.13 397.14,608.25 398.12,607.27 C398.81,606.59 399.11,605.78 398.81,605.47 Z M507.00,606.94 C507.00,606.36 506.55,606.16 506.00,606.50 C505.45,606.84 505.00,606.34 505.00,605.39 C505.00,604.44 504.72,603.95 504.38,604.29 C503.50,605.16 504.72,608.00 505.97,608.00 C506.54,608.00 507.00,607.52 507.00,606.94 Z M530.57,603.33 C530.09,602.07 529.69,602.01 528.49,603.01 C527.67,603.69 527.01,604.75 527.03,605.37 C527.05,605.99 527.76,605.60 528.61,604.50 L530.16,602.50L529.97,604.50 C529.68,607.40 530.15,608.80 530.70,606.69 C530.96,605.70 530.90,604.18 530.57,603.33 Z M526.30,600.90 C525.54,600.14 525.00,600.19 524.46,601.07 C523.96,601.87 524.10,602.06 524.85,601.60 C525.48,601.20 526.00,601.43 526.00,602.11 C526.00,602.78 526.31,603.03 526.68,602.65 C527.06,602.27 526.88,601.48 526.30,600.90 Z M432.56,600.77 C432.90,600.43 432.48,600.25 431.62,600.38 C430.76,600.51 429.78,600.89 429.44,601.23 C429.10,601.57 429.52,601.75 430.38,601.62 C431.24,601.49 432.22,601.11 432.56,600.77 Z M529.00,600.00 C529.00,599.45 528.80,599.00 528.56,599.00 C528.32,599.00 527.84,599.45 527.50,600.00 C527.16,600.55 527.36,601.00 527.94,601.00 C528.52,601.00 529.00,600.55 529.00,600.00 Z M432.12,595.42 C432.62,594.77 432.03,593.07 430.64,591.18 L428.31,588.03L427.15,590.58 C426.41,592.19 426.37,592.89 427.03,592.48 C427.72,592.06 427.87,592.81 427.47,594.67 C426.89,597.37 426.93,597.41 428.43,595.56 C429.94,593.69 430.00,593.73 430.08,596.56 C430.12,598.18 430.41,598.83 430.71,598.00 C431.02,597.17 431.65,596.01 432.12,595.42 Z M500.35,592.53 C500.66,591.72 500.41,590.76 499.80,590.38 C499.15,589.98 498.97,590.14 499.37,590.78 C499.74,591.39 499.25,592.34 498.27,592.91 C496.71,593.82 496.70,593.94 498.14,593.97 C499.05,593.99 500.04,593.34 500.35,592.53 Z M404.12,580.73 C403.14,579.75 403.02,579.87 403.56,581.29 C403.94,582.28 404.50,582.83 404.81,582.53 C405.11,582.22 404.81,581.41 404.12,580.73 Z M410.64,580.10 C411.92,578.28 411.98,577.60 410.97,576.67 C410.00,575.77 409.87,575.79 410.41,576.75 C410.80,577.43 410.41,579.00 409.56,580.22 C408.70,581.44 408.00,581.93 408.00,581.30 C408.00,580.68 407.70,579.38 407.33,578.42 C406.87,577.23 407.03,576.90 407.83,577.39 C408.47,577.79 409.00,577.67 409.00,577.12 C409.00,574.92 407.22,575.21 406.14,577.60 C405.26,579.52 405.26,579.95 406.15,579.41 C406.94,578.92 407.14,579.34 406.78,580.74 C406.06,583.50 408.55,583.09 410.64,580.10 Z M419.30,568.67 C419.58,567.93 419.22,567.33 418.50,567.33 C417.78,567.33 417.42,567.93 417.70,568.67 C417.98,569.40 418.34,570.00 418.50,570.00 C418.66,570.00 419.02,569.40 419.30,568.67 Z"/>
</svg>