<?xml version="1.0" encoding="UTF-8"?>
<svg xmlns="http://www.w3.org/2000/svg" viewBox="0 0 778 250" width="778" height="250">
  <path fill="#b8e1f4" fill-rule="evenodd" d="M53.75,218.66 L0.00,187.50L0.01,175.00 L0.03,162.50L10.51,156.50 C16.27,153.20 20.98,150.28 20.97,150.00 C20.96,149.72 16.23,146.82 10.47,143.54 L0.00,137.59L0.00,100.02 L0.00,62.46L13.75,54.53 C21.31,50.17 45.66,36.11 67.86,23.27 L108.22,-0.06L116.36,4.65 C131.21,13.24 129.90,11.31 130.22,25.08 L130.50,37.08L140.50,31.04 C146.00,27.72 151.14,25.24 151.93,25.54 C152.72,25.83 167.45,34.22 184.68,44.17 L216.00,62.26L216.00,75.05 L216.00,87.84L206.00,93.65 C200.50,96.84 196.00,99.72 196.00,100.04 C196.00,100.36 200.50,103.22 206.00,106.40 L216.00,112.19L216.00,149.95 L216.00,187.72L162.10,218.86 C132.45,235.99 108.04,249.96 107.85,249.91 C107.66,249.87 83.31,235.80 53.75,218.66 Z M314.50,193.42 C313.40,193.16 309.74,192.25 306.37,191.40 L300.23,189.84L300.69,181.17 C300.95,176.40 301.33,171.95 301.53,171.28 C301.80,170.43 303.59,170.84 307.59,172.67 C315.24,176.17 328.86,177.09 335.51,174.55 C343.17,171.62 346.98,164.39 346.99,152.77 L347.00,147.04L342.87,151.52 C336.47,158.46 327.54,160.54 317.23,157.48 C308.60,154.91 303.23,149.04 299.41,138.00 C297.85,133.51 297.50,129.65 297.50,117.00 C297.50,104.35 297.85,100.49 299.41,96.00 C304.63,80.91 313.10,74.51 326.95,75.16 C333.49,75.47 335.10,75.94 339.00,78.68 C341.48,80.42 344.40,83.23 345.50,84.92 L347.50,88.01L348.00,82.26 L348.50,76.50L360.12,76.22 L371.75,75.94L371.36,109.72 C370.77,161.78 370.56,165.64 368.07,172.20 C365.04,180.14 358.57,187.01 350.80,190.55 C344.94,193.22 343.53,193.43 330.50,193.65 C322.80,193.77 315.60,193.67 314.50,193.42 Z M391.00,145.66 C391.00,119.07 390.71,92.52 390.35,86.66 L389.70,76.00L401.33,76.00 C414.38,76.00 413.63,75.51 414.23,84.44 L414.50,88.39L417.00,84.68 C421.23,78.41 426.40,75.63 434.67,75.18 C443.15,74.72 447.86,76.06 452.70,80.31 C457.16,84.23 460.17,88.99 462.59,96.00 C464.19,100.59 464.49,104.31 464.46,118.50 C464.43,133.84 464.20,136.07 462.13,141.28 C456.87,154.53 449.08,160.33 436.56,160.33 C430.42,160.33 428.51,159.90 424.63,157.63 C422.10,156.15 418.89,153.27 417.51,151.23 L415.00,147.54L415.00,170.77 L415.00,194.00L403.00,194.00 L391.00,194.00L391.00,145.66 Z M634.50,193.42 C633.40,193.16 629.74,192.25 626.37,191.40 L620.23,189.84L620.69,181.17 C620.95,176.40 621.33,171.95 621.53,171.28 C621.80,170.43 623.59,170.84 627.59,172.67 C635.24,176.17 648.86,177.09 655.51,174.55 C663.17,171.62 666.98,164.39 666.99,152.77 L667.00,147.04L662.87,151.52 C656.47,158.46 647.54,160.54 637.23,157.48 C628.60,154.91 623.23,149.04 619.41,138.00 C617.85,133.51 617.50,129.65 617.50,117.00 C617.50,104.35 617.85,100.49 619.41,96.00 C624.63,80.91 633.10,74.51 646.95,75.16 C653.49,75.47 655.10,75.94 659.00,78.68 C661.48,80.42 664.40,83.23 665.50,84.92 L667.50,88.01L668.00,82.26 L668.50,76.50L680.12,76.22 L691.75,75.94L691.36,109.72 C690.77,161.78 690.56,165.64 688.07,172.20 C685.04,180.14 678.57,187.01 670.80,190.55 C664.94,193.22 663.53,193.43 650.50,193.65 C642.80,193.77 635.60,193.67 634.50,193.42 Z M503.34,159.89 C496.03,159.00 491.86,157.04 489.23,153.27 C485.09,147.32 484.66,144.29 484.23,118.25 L483.82,93.00L476.87,93.00 L469.92,93.00L470.21,84.75 L470.50,76.50L477.25,76.20 L484.00,75.91L484.00,67.62 L484.00,59.34L494.48,56.15 C500.24,54.39 505.64,52.69 506.48,52.37 C507.79,51.87 508.00,53.47 508.00,63.89 L508.00,76.00L516.00,76.00 L524.00,76.00L524.00,84.50 L524.00,93.00L515.93,93.00 L507.86,93.00L508.18,115.47 C508.49,137.21 508.57,138.02 510.74,140.19 C512.62,142.06 513.97,142.40 518.99,142.26 L525.00,142.09L525.00,150.49 L525.00,158.88L520.25,159.47 C511.23,160.59 509.48,160.64 503.34,159.89 Z M548.50,160.11 C536.90,157.12 530.78,148.55 530.78,135.31 C530.78,126.49 533.29,120.62 539.26,115.51 C545.73,109.97 552.68,107.84 566.25,107.24 C577.83,106.73 578.00,106.69 578.00,104.33 C578.00,91.87 562.29,87.10 546.70,94.83 C543.32,96.51 540.49,97.80 540.41,97.69 C540.33,97.59 539.96,93.61 539.59,88.85 L538.91,80.19L543.71,78.67 C551.99,76.03 558.81,75.00 567.80,75.01 C579.64,75.03 583.16,75.75 589.24,79.38 C599.49,85.52 600.81,91.20 601.33,131.25 L601.69,159.00L590.95,159.00 C579.10,159.00 579.00,158.95 579.00,152.30 L579.00,148.77L574.87,152.50 C572.60,154.55 568.89,157.04 566.62,158.03 C561.75,160.16 552.72,161.19 548.50,160.11 Z M738.64,159.96 C722.96,157.51 711.93,147.25 708.08,131.52 C706.56,125.34 706.50,111.12 707.97,104.62 C710.89,91.67 719.25,80.92 729.35,77.14 C736.19,74.58 747.66,74.26 753.89,76.46 C768.25,81.53 775.78,93.80 776.76,113.75 L777.26,124.00L754.00,124.00 L730.74,124.00L731.32,127.58 C732.23,133.20 736.46,139.51 740.72,141.60 C747.62,145.00 758.06,143.94 771.25,138.51 C772.84,137.85 773.00,138.60 773.00,146.75 L773.00,155.71L765.75,157.84 C757.07,160.40 746.64,161.21 738.64,159.96 Z M572.14,141.37 C575.53,138.30 577.10,134.24 577.71,126.92 L578.29,120.00L571.40,120.02 C562.74,120.05 556.82,122.52 554.46,127.08 C551.46,132.89 553.91,140.67 559.50,143.11 C562.58,144.45 569.84,143.45 572.14,141.37 Z M433.29,139.99 C437.67,136.54 439.50,129.91 439.50,117.50 C439.50,105.09 437.67,98.46 433.29,95.01 C428.23,91.03 421.57,92.91 417.88,99.35 C415.69,103.18 415.50,104.59 415.50,117.50 C415.50,128.89 415.82,132.09 417.23,134.66 C421.07,141.67 428.16,144.02 433.29,139.99 Z M342.67,136.34 C343.87,134.87 345.33,131.73 345.92,129.39 C347.33,123.79 347.30,109.08 345.87,103.39 C343.41,93.64 334.50,89.83 328.03,95.75 C320.32,102.79 320.14,129.87 327.74,137.47 C331.93,141.66 338.79,141.14 342.67,136.34 Z M662.67,136.34 C663.87,134.87 665.33,131.73 665.92,129.39 C667.33,123.79 667.30,109.08 665.87,103.39 C663.41,93.64 654.50,89.83 648.03,95.75 C640.32,102.79 640.14,129.87 647.74,137.47 C651.93,141.66 658.79,141.14 662.67,136.34 Z M755.00,106.32 C755.00,100.52 751.84,93.70 748.44,92.15 C739.80,88.22 732.47,94.21 730.61,106.75 L729.98,111.00L742.49,111.00 L755.00,111.00L755.00,106.32 Z"/>
</svg>