<?xml version="1.0" encoding="UTF-8"?>
<svg xmlns="http://www.w3.org/2000/svg" viewBox="0 0 869 210" width="869" height="210">
  <path fill="#e61281" fill-rule="evenodd" d="M274.34,209.03 C252.89,204.43 236.40,189.81 230.41,170.09 C229.65,167.56 229.02,165.41 229.01,165.30 C228.99,164.88 251.03,158.00 252.39,158.00 C253.17,158.00 255.24,160.53 256.99,163.63 C264.06,176.16 274.47,183.21 285.79,183.12 C303.39,182.99 314.61,173.66 311.13,162.05 C308.92,154.67 301.91,151.64 284.50,150.52 C264.22,149.23 252.50,144.70 241.95,134.09 C215.46,107.44 226.10,59.17 261.33,46.12 C265.01,44.76 271.48,43.61 278.83,43.00 C291.75,41.93 332.47,41.83 340.85,42.85 L346.21,43.50L329.37,58.50 C320.11,66.75 311.26,74.57 309.71,75.88 L306.89,78.27L304.20,75.69 C294.12,66.04 274.63,66.34 264.13,76.30 C253.46,86.42 253.20,106.07 263.59,116.35 C269.30,121.99 273.58,123.49 284.00,123.50 C292.51,123.50 294.01,123.21 298.36,120.76 L303.22,118.02L307.86,122.16 C310.41,124.43 316.81,130.06 322.07,134.66 C332.26,143.57 334.35,145.96 338.12,153.03 C340.19,156.92 340.50,158.85 340.50,168.02 C340.50,177.88 340.29,178.96 337.24,185.16 C331.91,195.99 323.73,202.06 308.50,206.50 C298.62,209.38 281.79,210.63 274.34,209.03 Z M143.44,160.12 C113.36,151.51 95.81,118.71 104.01,86.41 C109.94,63.00 125.72,47.85 148.90,43.28 C158.72,41.34 170.59,42.35 180.11,45.93 C201.33,53.90 216.20,75.97 216.13,99.35 C216.11,105.66 215.65,108.89 214.53,110.59 L212.97,112.98L172.60,113.24 L132.22,113.50L134.15,118.68 C136.39,124.66 141.17,129.71 147.83,133.11 C151.73,135.11 153.98,135.50 161.50,135.50 C169.27,135.50 171.26,135.13 176.03,132.78 C179.07,131.29 183.36,128.52 185.57,126.64 L189.57,123.21L199.78,130.36 C205.39,134.28 209.98,138.11 209.99,138.85 C210.00,139.60 206.96,143.21 203.25,146.87 C191.98,158.00 180.58,162.01 160.50,161.91 C153.20,161.88 147.46,161.27 143.44,160.12 Z M562.36,158.91 C558.44,158.45 552.74,156.97 549.69,155.62 C543.68,152.97 535.55,146.12 534.29,142.66 C533.74,141.17 533.34,142.98 533.00,148.50 L532.50,156.50L521.00,156.50 L509.50,156.50L509.24,78.25 L508.99,0.00L521.49,0.00 L534.00,0.00L534.00,29.11 L534.00,58.22L538.57,53.14 C547.41,43.30 561.33,38.74 576.15,40.84 C603.74,44.74 619.94,66.49 619.98,99.68 C620.00,113.39 618.08,123.05 613.37,132.84 C603.70,152.94 586.51,161.73 562.36,158.91 Z M675.50,158.95 C664.64,157.80 657.93,154.80 652.24,148.57 C642.30,137.69 640.76,127.66 641.21,76.50 L641.50,43.50L653.68,43.22 L665.86,42.94L666.20,83.22 C666.58,128.11 666.69,128.89 673.58,134.93 C679.06,139.75 685.24,140.89 695.10,138.91 C702.44,137.43 707.65,133.62 711.39,127.00 L714.50,121.50L714.80,82.25 L715.11,43.00L727.55,43.00 L740.00,43.00L740.00,100.00 L740.00,157.00L728.00,157.00 L716.00,157.00L715.97,148.75 C715.94,141.19 715.81,140.67 714.44,142.50 C708.97,149.79 702.74,154.53 695.00,157.27 C688.96,159.41 683.88,159.84 675.50,158.95 Z M363.69,158.36 C363.31,157.98 363.00,132.54 363.00,101.83 L363.00,46.00L378.51,46.00 L394.02,46.00L393.76,102.25 L393.50,158.50L378.94,158.78 C370.94,158.93 364.07,158.74 363.69,158.36 Z M455.00,158.04 C445.62,156.85 439.96,153.24 435.56,145.64 C431.77,139.12 431.00,131.69 431.00,101.82 L431.00,74.00L425.50,74.00 L420.00,74.00L420.00,59.50 L420.00,45.00L425.50,45.00 L431.00,45.00L431.00,24.97 L431.00,4.95L446.75,5.22 L462.50,5.50L462.77,25.22 L463.04,44.93L473.27,45.22 L483.50,45.50L483.78,59.75 L484.05,74.00L473.53,74.00 L463.00,74.00L463.00,97.87 C463.00,120.55 463.10,121.86 465.09,124.39 C468.17,128.30 472.22,130.00 478.48,130.00 L484.05,130.00L483.78,144.25 L483.50,158.50L472.00,158.62 C465.68,158.68 458.02,158.42 455.00,158.04 Z M0.00,81.50 L0.00,5.00L16.00,5.00 L32.00,5.00L32.00,67.50 L32.00,130.00L65.50,130.00 L99.00,130.00L99.00,144.00 L99.00,158.00L49.50,158.00 L0.00,158.00L0.00,81.50 Z M755.00,156.06 C755.00,155.54 764.08,142.37 775.18,126.81 C786.29,111.24 795.38,97.83 795.39,97.00 C795.40,96.17 786.99,83.91 776.70,69.74 C766.42,55.57 758.00,43.76 758.00,43.49 C758.00,43.22 764.64,43.01 772.75,43.03 L787.50,43.05L798.75,60.03 C804.94,69.36 810.40,77.00 810.87,77.00 C811.35,77.00 817.09,69.36 823.62,60.02 L835.50,43.04L849.82,43.02 L864.14,43.00L861.85,46.25 C860.59,48.04 852.33,59.40 843.49,71.50 C834.65,83.60 827.10,94.01 826.72,94.63 C826.33,95.27 835.16,108.71 847.01,125.52 C858.56,141.89 868.00,155.66 868.00,156.14 C868.00,157.18 840.94,157.27 839.44,156.23 C838.85,155.83 832.16,146.35 824.57,135.16 L810.77,114.82L796.73,135.91 L782.69,157.00L768.84,157.00 C760.83,157.00 755.00,156.60 755.00,156.06 Z M573.57,138.53 C589.05,133.91 598.11,114.38 594.98,92.37 C591.98,71.21 579.07,58.72 561.83,60.28 C543.81,61.92 533.89,75.55 533.68,99.00 C533.56,111.40 535.43,118.89 540.57,126.74 C547.61,137.47 561.04,142.27 573.57,138.53 Z M324.50,128.23 C322.30,126.18 317.66,121.99 314.18,118.92 L307.86,113.35L309.89,109.91 C313.03,104.58 314.24,97.38 312.96,91.50 C312.37,88.75 311.80,85.78 311.69,84.89 C311.58,83.98 315.74,79.49 321.34,74.48 C329.07,67.57 331.39,65.98 332.12,67.09 C334.76,71.08 339.93,83.15 341.03,87.89 C343.88,100.28 339.17,119.32 330.81,129.23 L328.50,131.96L324.50,128.23 Z M186.00,89.52 C186.00,89.26 185.24,87.12 184.32,84.77 C181.89,78.58 178.32,74.27 173.09,71.20 C169.13,68.87 167.41,68.50 160.50,68.52 C151.91,68.54 147.59,70.10 141.09,75.58 C137.58,78.53 134.00,84.79 134.00,87.96 C134.00,89.96 134.50,90.00 160.00,90.00 C174.30,90.00 186.00,89.78 186.00,89.52 Z M365.00,19.50 L365.00,4.94L378.75,5.22 L392.50,5.50L392.50,19.50 L392.50,33.50L378.75,33.78 L365.00,34.06L365.00,19.50 Z"/>
</svg>