<?xml version="1.0" encoding="UTF-8"?>
<svg xmlns="http://www.w3.org/2000/svg" viewBox="0 0 1500 1500" width="1500" height="1500">
  <path fill="#ae2a89" fill-rule="evenodd" d="M523.00,853.37 C500.22,848.99 482.06,837.39 470.31,819.71 C445.97,783.10 460.17,733.12 500.50,713.50 C512.20,707.81 519.12,706.02 532.23,705.31 C556.92,703.95 578.35,711.93 594.65,728.54 C607.21,741.34 613.91,757.04 614.76,775.60 C615.40,789.65 613.48,799.12 607.49,811.50 C600.35,826.23 589.52,837.28 574.48,845.18 C563.16,851.13 554.55,853.15 539.00,853.53 C531.58,853.70 524.38,853.63 523.00,853.37 Z M551.50,812.13 C558.28,809.11 564.28,802.97 567.64,795.62 C570.10,790.22 570.43,788.32 570.43,779.50 C570.43,770.64 570.10,768.79 567.58,763.25 C564.31,756.09 558.18,749.89 551.18,746.68 C544.81,743.76 530.76,743.63 523.50,746.43 C516.88,748.98 508.80,756.74 505.93,763.30 C502.89,770.25 502.14,783.52 504.35,791.12 C508.90,806.79 521.44,815.45 538.50,814.70 C543.99,814.46 548.07,813.65 551.50,812.13 Z"/>
</svg>