<?xml version="1.0" encoding="UTF-8"?>
<svg xmlns="http://www.w3.org/2000/svg" viewBox="0 0 1024 1024" width="1024" height="1024">
  <path fill="#cf2931" fill-rule="evenodd" d="M512.00,708.97 C510.07,708.47 507.91,708.27 507.20,708.52 C506.48,708.77 506.14,708.58 506.44,708.10 C506.73,707.62 505.61,706.67 503.94,705.97 C501.70,705.05 501.08,704.29 501.61,703.11 C502.00,702.22 502.29,700.42 502.26,699.10 C502.22,697.59 502.48,697.16 502.96,697.93 C503.97,699.57 505.06,696.89 504.51,694.07 C504.30,692.95 504.49,692.14 504.93,692.27 C505.37,692.40 506.70,691.38 507.88,690.00 C509.06,688.62 509.91,687.95 509.76,688.50 C509.62,689.05 509.79,689.50 510.15,689.50 C510.50,689.50 511.62,690.25 512.65,691.18 C515.73,693.96 522.87,692.83 526.28,689.02 C527.81,687.30 528.75,685.41 528.37,684.80 C527.94,684.10 528.15,683.98 528.94,684.46 C529.88,685.04 530.08,684.39 529.74,681.87 C529.13,677.35 525.58,669.77 524.53,670.73 C524.06,671.15 523.96,670.72 524.30,669.76 C524.65,668.79 523.69,665.27 522.11,661.76 C520.56,658.32 518.38,653.48 517.27,651.00 C516.15,648.52 514.94,645.53 514.58,644.34 C514.22,643.15 513.29,641.66 512.52,641.02 C511.75,640.38 511.39,639.14 511.73,638.26 C512.17,637.12 511.96,636.90 511.02,637.49 C510.18,638.01 509.93,637.92 510.34,637.26 C511.07,636.08 506.68,625.54 505.04,624.52 C504.45,624.16 504.22,623.46 504.52,622.96 C504.83,622.46 504.38,620.70 503.52,619.04 C502.66,617.38 501.94,615.80 501.92,615.53 C501.89,615.26 501.47,613.64 500.98,611.93 C500.28,609.50 500.36,609.05 501.33,609.86 C502.02,610.43 506.61,610.87 511.54,610.85 C522.60,610.79 523.03,610.82 522.88,611.75 C522.53,613.95 523.12,616.04 523.94,615.54 C524.46,615.22 524.82,615.78 524.74,616.78 C524.61,618.57 528.81,630.02 529.97,631.00 C530.29,631.27 531.35,634.09 532.33,637.25 C533.30,640.41 534.52,643.00 535.02,643.00 C535.52,643.00 535.70,643.62 535.41,644.37 C535.12,645.13 535.51,646.37 536.27,647.13 C537.04,647.89 537.51,648.96 537.33,649.51 C537.00,650.54 540.87,657.50 541.42,656.86 C541.59,656.66 543.40,652.00 545.45,646.50 C547.49,641.00 549.75,635.15 550.46,633.50 C554.32,624.65 556.15,618.83 555.56,617.29 C555.19,616.34 555.21,615.88 555.60,616.27 C556.38,617.05 559.23,612.18 558.59,611.15 C558.13,610.40 579.83,610.50 580.58,611.25 C580.86,611.52 580.15,613.32 579.02,615.24 C577.77,617.36 577.23,619.44 577.65,620.53 C578.07,621.63 577.95,622.09 577.33,621.71 C576.35,621.10 569.67,635.83 569.67,638.61 C569.67,639.38 569.36,640.00 568.99,640.00 C568.62,640.00 567.05,643.26 565.51,647.25 C563.96,651.24 561.64,656.63 560.34,659.24 C559.04,661.85 557.94,664.20 557.90,664.47 C557.86,664.74 557.59,665.85 557.30,666.95 C557.02,668.05 556.87,669.24 556.98,669.61 C557.08,669.98 556.78,670.55 556.29,670.89 C554.60,672.07 548.80,686.86 549.55,688.08 C550.07,688.92 549.89,689.05 548.98,688.49 C548.01,687.89 547.84,688.13 548.32,689.39 C548.68,690.33 548.58,690.86 548.09,690.56 C546.88,689.81 545.92,692.63 546.70,694.66 C547.12,695.75 546.95,696.09 546.22,695.64 C544.88,694.81 543.00,697.99 543.00,701.10 C543.00,702.33 542.71,703.05 542.36,702.70 C542.01,702.35 540.55,702.89 539.11,703.92 C532.13,708.88 520.25,711.09 512.00,708.97 Z M507.50,705.00 C507.16,704.45 506.35,704.01 505.69,704.02 C504.98,704.02 505.10,704.42 506.00,705.00 C507.92,706.24 508.27,706.24 507.50,705.00 Z M540.50,700.00 C540.84,699.45 540.64,699.00 540.06,699.00 C539.48,699.00 539.00,699.45 539.00,700.00 C539.00,700.55 539.20,701.00 539.44,701.00 C539.68,701.00 540.16,700.55 540.50,700.00 Z M539.40,697.17 C539.68,696.71 539.28,696.33 538.50,696.33 C537.72,696.33 537.32,696.71 537.60,697.17 C537.89,697.62 538.29,698.00 538.50,698.00 C538.71,698.00 539.11,697.62 539.40,697.17 Z M509.00,691.64 C509.00,690.37 508.54,690.94 507.08,694.00 C505.96,696.36 505.98,696.39 507.44,694.56 C508.30,693.49 509.00,692.18 509.00,691.64 Z M546.93,687.50 C546.93,686.95 546.29,687.62 545.50,689.00 C544.71,690.38 544.07,691.95 544.07,692.50 C544.07,693.05 544.71,692.38 545.50,691.00 C546.29,689.62 546.93,688.05 546.93,687.50 Z M522.56,689.58 C523.62,688.80 524.71,688.38 524.97,688.64 C525.52,689.19 522.94,690.96 521.56,690.98 C521.04,690.99 521.49,690.36 522.56,689.58 Z M338.29,686.00 C337.82,684.21 336.93,684.00 329.88,684.00 C324.25,684.00 322.00,684.36 321.98,685.25 C321.97,686.08 321.65,686.00 321.00,685.00 C320.47,684.17 320.02,683.93 320.02,684.45 C320.01,685.02 319.59,684.99 319.00,684.40 C318.32,683.72 318.67,681.99 320.03,679.17 C321.16,676.84 321.95,674.39 321.79,673.72 C321.64,673.05 321.92,672.42 322.42,672.32 C323.24,672.15 325.88,666.97 326.40,664.50 C326.51,663.95 327.39,662.02 328.35,660.22 C329.30,658.42 329.77,656.43 329.39,655.82 C328.96,655.13 329.14,654.97 329.85,655.40 C330.56,655.84 331.00,655.42 331.00,654.28 C331.00,653.27 331.70,651.44 332.56,650.22 C333.41,649.00 333.86,648.00 333.54,648.00 C333.22,648.00 334.14,645.69 335.57,642.87 C337.00,640.05 337.95,636.93 337.70,635.94 C337.41,634.84 337.68,634.32 338.40,634.60 C339.83,635.15 342.42,628.48 341.41,626.85 C340.93,626.08 341.13,625.96 342.02,626.51 C343.01,627.12 343.16,626.86 342.62,625.44 C342.22,624.41 342.21,623.88 342.60,624.27 C343.58,625.25 346.19,619.94 345.55,618.26 C345.22,617.41 345.46,617.17 346.18,617.61 C346.96,618.09 347.13,617.77 346.68,616.61 C346.32,615.67 346.43,615.15 346.93,615.46 C347.64,615.89 350.00,610.96 350.50,608.00 C350.55,607.73 351.28,606.15 352.13,604.50 C352.98,602.85 354.70,598.70 355.95,595.28 C357.20,591.86 358.73,588.65 359.36,588.14 C359.99,587.63 365.35,587.04 371.27,586.83 L382.04,586.45L384.18,591.18 C385.36,593.79 386.64,595.72 387.04,595.48 C387.43,595.24 387.75,596.25 387.75,597.73 C387.75,599.21 388.26,600.59 388.88,600.79 C389.50,601.00 389.77,601.57 389.46,602.06 C389.16,602.54 389.71,604.15 390.67,605.62 C391.63,607.09 392.56,609.22 392.74,610.36 C392.91,611.50 393.81,613.57 394.74,614.97 C395.67,616.36 396.49,617.95 396.56,618.50 C396.63,619.05 396.77,620.17 396.86,621.00 C397.01,622.33 397.15,622.33 398.10,621.00 C398.96,619.79 399.08,619.94 398.68,621.74 C398.18,624.06 401.89,633.24 413.55,658.50 C415.07,661.80 416.23,664.87 416.13,665.32 C416.03,665.78 416.46,665.83 417.08,665.45 C417.85,664.97 418.01,665.41 417.57,666.79 C417.21,667.91 417.39,669.12 417.96,669.47 C418.53,669.83 419.00,671.02 419.00,672.12 C419.00,673.22 419.45,673.84 420.00,673.50 C420.89,672.95 421.43,674.23 421.13,676.22 C421.07,676.61 421.55,678.18 422.19,679.72 C423.71,683.32 424.05,686.45 422.78,685.18 C421.27,683.67 418.06,684.96 418.64,686.85 C419.07,688.24 418.97,688.22 418.03,686.75 C417.14,685.37 415.48,685.00 410.20,684.98 C406.52,684.98 403.00,684.64 402.40,684.23 C401.79,683.83 399.54,679.12 397.40,673.76 L393.50,664.03L370.86,664.01 C346.27,664.00 347.00,663.83 347.00,669.64 C347.00,671.34 346.61,671.89 345.75,671.40 C345.06,671.00 344.81,671.02 345.18,671.44 C345.55,671.85 344.98,673.75 343.91,675.66 C342.84,677.57 342.22,679.55 342.54,680.06 C342.86,680.58 342.61,681.00 341.99,681.00 C341.34,681.00 341.12,681.80 341.47,682.92 C341.81,683.97 341.62,685.12 341.05,685.47 C340.42,685.86 340.28,685.44 340.68,684.39 C341.15,683.17 340.98,682.90 340.08,683.45 C339.39,683.88 339.05,685.07 339.32,686.11 C339.59,687.15 339.59,688.00 339.31,688.00 C339.04,688.00 338.58,687.10 338.29,686.00 Z M400.56,686.71 C400.94,685.72 401.50,685.17 401.81,685.47 C402.11,685.78 401.81,686.59 401.12,687.27 C400.14,688.25 400.02,688.13 400.56,686.71 Z M404.05,687.03 C403.24,686.53 403.73,686.25 405.39,686.25 C408.30,686.25 408.65,686.54 406.66,687.30 C405.92,687.58 404.75,687.46 404.05,687.03 Z M432.33,686.50 C432.33,685.78 432.93,685.42 433.67,685.70 C434.40,685.98 435.00,686.34 435.00,686.50 C435.00,686.66 434.40,687.02 433.67,687.30 C432.93,687.58 432.33,687.22 432.33,686.50 Z M600.51,687.01 C600.16,686.44 600.56,686.28 601.45,686.62 C603.18,687.28 603.50,688.00 602.06,688.00 C601.54,688.00 600.84,687.56 600.51,687.01 Z M605.00,687.61 C605.00,687.39 605.70,686.95 606.55,686.62 C607.44,686.28 607.84,686.44 607.49,687.01 C606.91,687.96 605.00,688.42 605.00,687.61 Z M451.00,685.89 C446.88,685.43 442.43,684.57 441.12,683.99 C439.81,683.40 438.53,683.14 438.26,683.40 C438.00,683.67 436.60,682.78 435.14,681.43 C433.69,680.08 431.91,679.20 431.20,679.48 C430.46,679.76 430.18,679.52 430.55,678.91 C430.91,678.33 430.35,676.87 429.31,675.68 C425.59,671.42 424.70,668.36 425.23,661.73 C425.51,658.22 426.35,654.26 427.08,652.93 C427.82,651.59 428.32,650.13 428.19,649.68 C428.06,649.22 428.35,649.10 428.84,649.40 C430.00,650.12 433.23,646.56 432.28,645.62 C431.89,645.22 432.35,645.20 433.32,645.57 C434.47,646.01 434.98,645.81 434.79,644.99 C434.63,644.31 435.40,643.64 436.50,643.52 C437.60,643.39 440.52,642.71 443.00,642.00 C445.84,641.18 452.75,640.73 461.71,640.80 L475.91,640.89L475.02,638.55 C474.53,637.26 474.37,635.96 474.67,635.66 C475.74,634.60 470.77,628.91 467.66,627.63 C459.73,624.36 444.92,626.70 439.08,632.14 C437.21,633.88 436.63,634.02 435.91,632.89 C435.43,632.12 435.02,631.14 435.02,630.69 C435.01,630.25 434.55,630.16 434.00,630.50 C433.10,631.06 432.56,629.73 432.89,627.73 C432.96,627.30 432.08,625.12 430.94,622.88 C428.95,618.97 428.94,618.77 430.68,617.46 C435.05,614.21 443.57,610.81 448.50,610.35 C457.13,609.54 473.75,609.54 472.66,610.34 C471.93,610.87 472.15,610.98 473.25,610.63 C474.21,610.32 475.00,610.43 475.00,610.87 C475.00,611.86 482.92,614.45 485.00,614.14 C486.22,613.96 486.25,614.09 485.14,614.83 C483.54,615.91 485.36,617.51 487.02,616.48 C487.59,616.14 487.94,616.22 487.81,616.68 C487.68,617.13 488.85,619.49 490.40,621.92 C491.96,624.35 493.69,627.72 494.25,629.42 C494.81,631.11 495.43,644.42 495.63,659.00 L495.99,685.50L487.25,684.97 C482.44,684.68 478.27,684.75 478.00,685.11 C477.16,686.23 475.46,683.63 475.59,681.44 C475.71,679.43 475.58,679.44 470.86,681.94 C468.07,683.41 466.20,685.03 466.46,685.74 C466.83,686.71 466.52,686.72 464.96,685.74 C463.41,684.78 462.58,684.78 461.01,685.76 C459.92,686.44 458.91,686.94 458.76,686.87 C458.62,686.80 455.12,686.36 451.00,685.89 Z M636.17,686.12 C635.10,685.45 635.17,685.15 636.50,684.64 C638.94,683.70 639.72,683.89 638.00,685.00 C636.71,685.84 636.73,685.97 638.19,685.98 C639.12,685.99 640.16,685.55 640.50,685.00 C640.84,684.45 640.61,684.00 640.00,684.00 C639.39,684.00 639.21,683.47 639.61,682.83 C640.09,682.04 639.79,681.88 638.66,682.33 C634.70,683.93 633.75,683.94 636.75,682.35 C638.54,681.41 640.00,680.26 640.00,679.80 C640.00,679.35 638.31,680.06 636.25,681.39 C634.19,682.72 632.64,684.42 632.82,685.16 C633.06,686.17 632.86,686.22 631.97,685.35 C631.17,684.56 629.80,684.48 627.66,685.10 C625.93,685.59 622.52,686.00 620.09,686.00 C614.11,686.00 603.00,684.00 603.00,682.93 C603.00,682.45 602.21,682.35 601.25,682.69 C600.29,683.04 599.84,682.95 600.25,682.49 C600.67,682.03 600.26,680.84 599.35,679.83 C597.99,678.34 597.41,678.23 596.10,679.25 C594.68,680.36 594.66,680.30 595.87,678.75 C596.77,677.60 596.86,677.00 596.12,677.00 C595.51,677.00 595.00,676.56 595.00,676.02 C595.00,675.49 594.05,673.57 592.89,671.77 C591.74,669.97 591.05,669.31 591.38,670.30 C591.72,671.32 591.56,671.85 591.03,671.52 C590.51,671.20 590.13,669.71 590.18,668.22 C590.23,666.72 589.74,662.94 589.09,659.80 C588.36,656.23 588.03,646.81 588.21,634.55 C588.39,622.18 588.13,614.84 587.50,614.58 C586.95,614.35 587.05,614.12 587.72,614.08 C588.39,614.04 588.68,613.33 588.36,612.50 C587.73,610.85 587.52,610.88 598.75,610.86 C603.62,610.86 606.01,610.47 606.02,609.68 C606.03,608.90 606.32,608.95 606.88,609.84 C607.34,610.57 608.06,611.02 608.48,610.84 C608.89,610.65 609.18,619.95 609.13,631.50 C609.08,643.05 609.43,654.47 609.91,656.87 C610.77,661.19 612.55,663.40 614.31,662.31 C614.81,662.00 614.95,662.59 614.63,663.62 C614.20,664.99 614.75,665.83 616.66,666.72 C618.10,667.39 619.74,667.66 620.29,667.32 C620.87,666.96 621.00,667.19 620.60,667.84 C619.50,669.61 628.36,668.47 631.47,666.43 C634.15,664.67 636.61,661.15 636.19,659.68 C636.06,659.22 636.38,659.12 636.91,659.45 C638.17,660.22 638.16,660.34 638.65,633.82 L639.07,611.14L648.64,610.82 C653.90,610.64 658.72,610.83 659.35,611.23 C659.99,611.65 660.06,612.01 659.50,612.05 C658.95,612.10 659.40,612.53 660.50,613.00 C662.21,613.73 662.25,613.87 660.75,613.93 C659.79,613.97 659.05,614.34 659.12,614.75 C659.18,615.16 659.18,631.20 659.12,650.39 L659.00,685.29L650.84,684.73 C644.57,684.30 642.36,684.49 641.27,685.58 C639.67,687.19 638.11,687.35 636.17,686.12 Z M656.81,686.32 C657.53,686.03 658.40,686.06 658.73,686.40 C659.06,686.73 658.47,686.96 657.42,686.92 C656.25,686.87 656.01,686.64 656.81,686.32 Z M676.71,684.30 C676.06,683.17 675.89,583.93 676.54,581.88 C676.83,580.95 677.85,580.34 678.79,580.52 C679.73,580.70 684.21,580.88 688.75,580.92 L697.00,581.00L697.00,632.88 L697.00,684.75L687.09,684.92 C681.64,685.02 676.97,684.74 676.71,684.30 Z M461.73,683.40 C461.40,683.06 460.53,683.03 459.81,683.32 C459.01,683.64 459.25,683.87 460.42,683.92 C461.47,683.96 462.06,683.73 461.73,683.40 Z M338.73,682.40 C338.40,682.06 337.53,682.03 336.81,682.32 C336.01,682.64 336.25,682.87 337.42,682.92 C338.47,682.96 339.06,682.73 338.73,682.40 Z M423.77,679.88 C424.46,678.98 424.73,677.41 424.36,676.38 C423.47,673.93 424.39,674.83 426.00,678.00 C426.70,679.38 426.91,680.17 426.48,679.76 C426.04,679.35 424.97,679.58 424.09,680.26 C422.71,681.34 422.67,681.28 423.77,679.88 Z M427.51,677.98 C427.86,677.42 428.56,677.23 429.07,677.54 C430.46,678.40 430.20,679.00 428.44,679.00 C427.58,679.00 427.16,678.54 427.51,677.98 Z M678.66,672.75 C678.38,672.06 678.16,672.62 678.16,674.00 C678.16,675.38 678.38,675.94 678.66,675.25 C678.94,674.56 678.94,673.44 678.66,672.75 Z M349.00,671.06 C349.00,670.54 349.44,669.84 349.99,669.51 C350.56,669.16 350.72,669.56 350.38,670.45 C349.72,672.18 349.00,672.50 349.00,671.06 Z M673.27,668.00 C673.27,665.52 673.47,664.51 673.71,665.75 C673.94,666.99 673.94,669.01 673.71,670.25 C673.47,671.49 673.27,670.48 673.27,668.00 Z M466.10,669.86 C471.11,668.19 475.22,664.03 474.55,661.33 C474.24,660.11 474.44,658.84 475.00,658.50 C475.55,658.16 476.00,656.99 476.00,655.90 C476.00,654.03 475.34,653.93 463.54,654.06 C451.24,654.20 451.05,654.24 448.04,657.11 C444.99,660.02 444.01,661.73 446.13,660.42 C446.92,659.93 447.13,660.69 446.80,662.91 C446.42,665.50 446.82,666.44 448.92,667.91 C450.34,668.90 452.18,669.97 453.00,670.28 C455.62,671.26 462.58,671.04 466.10,669.86 Z M463.74,667.82 C464.42,666.99 464.69,666.02 464.32,665.66 C463.96,665.30 464.17,665.00 464.77,665.00 C466.90,665.00 466.85,666.61 464.69,667.96 C462.76,669.16 462.65,669.14 463.74,667.82 Z M466.73,667.88 C467.41,667.19 468.22,666.89 468.53,667.19 C468.83,667.50 468.28,668.06 467.29,668.44 C465.87,668.98 465.75,668.86 466.73,667.88 Z M588.08,666.42 C588.13,665.25 588.36,665.01 588.68,665.81 C588.97,666.53 588.94,667.40 588.60,667.73 C588.27,668.06 588.04,667.47 588.08,666.42 Z M566.46,655.93 C566.10,655.35 566.01,654.65 566.28,654.39 C566.54,654.13 567.02,654.61 567.35,655.46 C568.02,657.22 567.44,657.53 566.46,655.93 Z M564.00,653.19 C564.00,652.67 564.67,651.68 565.50,651.00 C566.33,650.32 567.00,650.07 567.00,650.45 C567.00,650.83 566.33,651.82 565.50,652.64 C564.67,653.47 564.00,653.72 564.00,653.19 Z M590.66,648.75 C590.38,648.06 590.16,648.62 590.16,650.00 C590.16,651.38 590.38,651.94 590.66,651.25 C590.94,650.56 590.94,649.44 590.66,648.75 Z M384.25,644.75 C384.85,642.99 383.95,640.00 382.82,640.00 C382.31,640.00 382.13,639.59 382.44,639.09 C382.75,638.59 382.70,637.39 382.33,636.41 C381.70,634.77 381.59,634.78 380.83,636.57 C380.30,637.81 380.22,637.30 380.61,635.12 C381.07,632.56 380.91,631.94 379.95,632.53 C379.14,633.03 378.94,632.90 379.39,632.18 C380.19,630.88 377.87,625.97 375.54,624.04 C374.62,623.27 374.20,621.95 374.54,620.87 C375.22,618.73 372.75,614.65 371.44,615.76 C370.96,616.17 371.08,615.82 371.71,614.98 C372.61,613.79 372.42,612.93 370.85,610.98 C369.61,609.45 369.22,609.24 369.82,610.44 C370.84,612.47 369.67,616.30 367.26,618.82 C366.57,619.55 366.00,620.94 366.00,621.90 C366.00,622.87 365.72,623.94 365.39,624.28 C364.26,625.41 358.20,640.00 358.85,640.02 C359.21,640.02 359.00,640.36 358.38,640.77 C357.77,641.17 356.95,642.51 356.57,643.75 L355.87,646.00L369.85,646.00 C380.15,646.00 383.94,645.67 384.25,644.75 Z M432.54,642.07 C431.72,640.75 433.51,639.88 435.49,640.64 C436.83,641.15 436.90,641.45 435.83,642.12 C434.10,643.23 433.25,643.21 432.54,642.07 Z M361.16,638.00 C361.16,636.62 361.38,636.06 361.66,636.75 C361.94,637.44 361.94,638.56 361.66,639.25 C361.38,639.94 361.16,639.38 361.16,638.00 Z M505.27,630.93 C505.10,628.63 505.57,628.43 506.35,630.47 C506.66,631.28 506.58,632.14 506.16,632.40 C505.75,632.65 505.35,631.99 505.27,630.93 Z M443.00,630.50 C444.38,629.71 446.40,629.07 447.50,629.08 C448.60,629.08 447.70,629.74 445.50,630.53 C440.49,632.33 439.81,632.33 443.00,630.50 Z M439.13,629.25 C440.37,627.66 440.34,627.63 438.75,628.87 C437.79,629.63 437.00,630.41 437.00,630.62 C437.00,631.45 437.82,630.92 439.13,629.25 Z M466.00,630.00 C466.82,629.47 467.95,629.03 468.50,629.03 C469.05,629.03 468.82,629.47 468.00,630.00 C467.18,630.53 466.05,630.97 465.50,630.97 C464.95,630.97 465.18,630.53 466.00,630.00 Z M339.00,628.00 C338.41,626.90 338.15,626.00 338.43,626.00 C338.70,626.00 339.41,626.90 340.00,628.00 C340.59,629.10 340.85,630.00 340.57,630.00 C340.30,630.00 339.59,629.10 339.00,628.00 Z M462.81,628.32 C463.53,628.03 464.40,628.06 464.73,628.40 C465.06,628.73 464.47,628.96 463.42,628.92 C462.25,628.87 462.01,628.64 462.81,628.32 Z M376.35,622.46 C376.02,621.61 375.54,621.13 375.28,621.39 C375.01,621.65 375.10,622.35 375.46,622.93 C376.44,624.53 377.02,624.22 376.35,622.46 Z M488.00,621.65 C488.00,621.47 486.99,620.45 485.75,619.40 L483.50,617.50L485.40,619.75 C487.20,621.86 488.00,622.46 488.00,621.65 Z M501.46,619.93 C501.10,619.35 501.01,618.65 501.28,618.39 C501.54,618.13 502.02,618.61 502.35,619.46 C503.02,621.22 502.44,621.53 501.46,619.93 Z M524.41,612.86 C523.93,612.08 524.13,611.96 525.00,612.50 C525.98,613.11 526.17,612.76 525.75,611.15 C525.44,609.97 525.59,609.25 526.09,609.56 C527.27,610.29 527.26,612.72 526.07,613.46 C525.56,613.77 524.81,613.51 524.41,612.86 Z M485.00,612.11 C485.00,611.62 485.74,610.93 486.64,610.58 C488.01,610.06 488.08,610.20 487.02,611.48 C485.58,613.21 485.00,613.39 485.00,612.11 Z M586.10,609.08 C585.08,608.44 585.41,608.24 587.25,608.35 C588.66,608.43 589.60,608.84 589.35,609.25 C588.74,610.22 587.83,610.18 586.10,609.08 Z M467.81,608.32 C468.53,608.03 469.40,608.06 469.73,608.40 C470.06,608.73 469.47,608.96 468.42,608.92 C467.25,608.87 467.01,608.64 467.81,608.32 Z M353.08,597.33 C353.04,596.69 352.74,595.34 352.42,594.33 C351.88,592.59 351.91,592.59 353.00,594.29 C353.63,595.27 353.92,596.62 353.65,597.29 C353.29,598.16 353.14,598.17 353.08,597.33 Z M382.35,590.46 C382.02,589.61 381.54,589.13 381.28,589.39 C381.01,589.65 381.10,590.35 381.46,590.93 C382.44,592.53 383.02,592.22 382.35,590.46 Z M508.00,543.08 C508.00,542.58 507.73,541.34 507.41,540.33 C506.97,538.98 507.39,539.16 509.00,541.00 C510.49,542.70 511.01,542.94 510.62,541.75 C510.32,540.79 510.50,540.00 511.03,540.00 C511.56,540.00 512.00,540.90 512.00,542.00 C512.00,543.33 511.33,544.00 510.00,544.00 C508.90,544.00 508.00,543.59 508.00,543.08 Z M560.00,542.27 C560.00,541.39 560.30,540.96 560.66,541.32 C561.02,541.69 561.92,541.48 562.66,540.87 C563.70,540.00 564.00,540.18 564.00,541.66 C564.00,542.86 563.25,543.63 562.00,543.73 C560.77,543.82 560.00,543.26 560.00,542.27 Z M566.00,543.51 C566.00,542.17 570.43,538.15 571.31,538.69 C571.88,539.04 572.00,538.81 571.59,538.14 C571.19,537.49 570.48,537.20 570.02,537.49 C569.55,537.78 568.94,537.45 568.66,536.76 C568.29,535.82 568.14,535.85 568.08,536.87 C567.94,539.25 564.99,536.05 565.08,533.63 C565.12,532.46 565.38,532.06 565.66,532.75 C565.94,533.44 566.54,534.00 567.01,534.00 C567.99,534.00 565.31,528.31 563.92,527.45 C563.40,527.13 563.23,526.43 563.56,525.90 C564.23,524.82 559.02,516.48 557.54,516.28 C557.01,516.21 556.25,515.33 555.86,514.32 C555.17,512.57 555.14,512.57 555.07,514.32 C555.03,515.31 555.47,517.00 556.04,518.07 C557.21,520.25 556.73,520.46 553.93,518.96 C552.51,518.20 552.00,516.86 552.00,513.91 C552.00,511.60 552.41,510.13 552.96,510.47 C553.48,510.80 553.69,511.84 553.43,512.78 C553.16,513.73 553.46,513.51 554.10,512.31 C555.04,510.52 554.94,509.80 553.57,508.43 C552.64,507.50 552.10,506.17 552.37,505.47 C552.64,504.77 552.22,503.36 551.43,502.35 C550.05,500.58 550.02,500.58 550.64,502.50 C551.10,503.90 550.97,504.20 550.23,503.50 C549.64,502.95 548.73,500.93 548.20,499.00 L547.25,495.50L546.14,498.00 C545.12,500.28 545.06,500.18 545.50,496.78 C545.89,493.79 545.59,492.85 543.99,491.99 C542.90,491.41 542.00,490.24 542.00,489.41 C542.00,488.51 542.47,488.18 543.15,488.60 C543.90,489.05 544.04,488.87 543.55,488.08 C542.20,485.89 537.83,490.94 538.46,493.96 C538.76,495.36 538.51,497.18 537.92,498.00 C537.08,499.16 536.97,498.88 537.44,496.75 C537.80,495.08 537.61,494.00 536.96,494.00 C536.37,494.00 536.20,493.48 536.60,492.85 C537.07,492.07 536.85,491.96 535.90,492.50 C532.35,494.55 531.93,495.23 533.48,496.38 C534.59,497.21 534.77,498.28 534.17,500.49 C533.40,503.33 533.30,503.38 532.11,501.49 C530.91,499.57 530.88,499.58 531.34,501.75 C531.60,502.99 531.44,504.00 530.97,504.00 C530.51,504.00 529.84,504.93 529.48,506.08 C529.11,507.22 528.56,507.89 528.25,507.58 C527.20,506.53 524.99,510.82 525.67,512.59 C526.19,513.94 525.96,514.20 524.68,513.71 C523.51,513.26 522.58,513.90 521.55,515.91 C520.74,517.47 520.36,519.03 520.71,519.37 C521.05,519.72 520.81,520.00 520.17,520.00 C519.53,520.00 519.00,520.70 519.00,521.56 C519.00,522.42 518.55,522.84 518.00,522.50 C517.34,522.09 517.34,522.76 518.00,524.50 C518.66,526.24 518.66,526.91 518.00,526.50 C517.45,526.16 517.00,526.31 517.00,526.82 C517.00,527.34 516.20,527.98 515.23,528.23 C514.09,528.53 513.01,530.44 512.20,533.60 C511.11,537.85 510.58,538.53 508.22,538.75 C506.72,538.88 482.10,538.98 453.50,538.97 C408.43,538.96 401.11,539.16 398.58,540.51 C396.58,541.57 395.33,541.73 394.63,541.03 C394.06,540.46 392.79,540.00 391.80,540.00 C390.81,540.00 390.00,539.30 390.00,538.44 C390.00,537.58 390.41,537.13 390.91,537.44 C391.41,537.75 391.58,537.10 391.29,536.00 C390.97,534.77 391.26,534.00 392.05,534.00 C392.76,534.00 393.04,533.71 392.68,533.35 C392.32,532.99 392.81,532.11 393.77,531.38 C395.41,530.13 395.41,530.06 393.75,530.03 C392.76,530.01 392.01,529.24 392.02,528.25 C392.02,527.26 392.35,526.94 392.77,527.50 C394.26,529.53 395.87,528.87 396.51,525.98 C396.86,524.34 397.78,523.00 398.54,523.00 C400.86,523.00 402.36,519.16 400.82,517.19 C399.66,515.70 399.69,515.65 401.13,516.78 C402.49,517.84 402.88,517.77 403.42,516.36 C403.77,515.43 403.53,514.18 402.89,513.58 C402.01,512.77 401.86,512.94 402.32,514.25 C403.18,516.68 402.31,516.44 400.94,513.88 C400.26,512.62 400.22,512.02 400.82,512.39 C401.38,512.73 402.52,512.34 403.35,511.51 C404.18,510.68 405.33,510.00 405.91,510.00 C406.50,510.00 407.50,507.91 408.14,505.37 C408.87,502.45 409.95,500.56 411.06,500.27 C412.03,500.02 413.09,499.07 413.43,498.16 C413.78,497.25 414.90,494.93 415.93,493.00 C416.96,491.07 417.40,489.35 416.90,489.17 C416.41,488.98 416.03,487.63 416.06,486.17 C416.12,483.57 416.15,483.56 417.03,485.75 C418.20,488.65 419.63,488.62 420.36,485.68 C420.68,484.41 421.87,482.30 423.01,480.99 C424.14,479.69 424.83,478.00 424.54,477.26 C424.22,476.41 424.46,476.17 425.18,476.61 C425.99,477.11 426.11,476.75 425.57,475.41 C425.15,474.36 424.58,472.82 424.31,472.00 C423.87,470.67 423.93,470.67 424.89,472.00 C425.48,472.82 425.98,473.05 426.00,472.50 C426.02,471.95 426.47,472.18 427.00,473.00 C427.84,474.30 427.97,474.28 427.98,472.86 C427.99,471.95 428.68,470.95 429.50,470.64 C430.32,470.32 430.96,469.49 430.92,468.78 C430.86,467.76 430.74,467.77 430.32,468.80 C429.93,469.78 429.45,469.65 428.43,468.30 C427.68,467.31 427.06,466.05 427.05,465.50 C427.04,464.95 427.48,465.18 428.04,466.00 C428.90,467.29 429.30,467.19 430.90,465.29 C431.92,464.08 433.02,463.35 433.35,463.68 C434.02,464.35 433.49,459.53 432.55,456.50 C432.08,454.94 432.20,455.00 433.12,456.75 C433.77,457.99 434.57,458.99 434.90,458.98 C437.36,458.92 441.15,451.56 440.84,447.45 C440.71,445.80 440.96,443.87 441.39,443.18 C441.82,442.48 441.61,441.24 440.93,440.41 C439.94,439.22 439.94,438.67 440.93,437.71 C441.90,436.76 442.10,436.92 441.83,438.48 C441.60,439.89 442.07,440.46 443.50,440.49 C446.38,440.55 447.78,439.27 448.52,435.92 C448.87,434.31 449.54,433.21 450.00,433.50 C451.55,434.46 451.70,431.51 450.21,429.21 C448.86,427.14 448.90,426.79 450.61,425.50 C451.65,424.72 453.29,424.32 454.25,424.61 C455.40,424.95 456.00,424.59 456.00,423.57 C456.00,422.71 456.40,422.00 456.88,422.00 C457.36,422.00 458.35,420.54 459.08,418.75 C459.81,416.96 461.10,414.90 461.95,414.18 C462.80,413.45 462.94,413.14 462.25,413.48 C460.10,414.57 460.89,412.13 463.06,410.97 C464.72,410.08 464.89,409.57 463.94,408.43 C463.03,407.33 463.03,406.67 463.96,405.55 C464.65,404.72 464.87,403.16 464.48,401.92 C464.01,400.45 464.14,399.97 464.89,400.43 C465.50,400.81 466.00,401.99 466.00,403.06 C466.00,404.13 466.46,405.00 467.02,405.00 C467.62,405.00 467.77,403.92 467.37,402.34 C466.83,400.19 467.00,399.79 468.25,400.26 C469.32,400.68 469.93,400.13 470.25,398.49 C470.81,395.54 469.63,393.49 467.97,394.52 C467.01,395.11 466.88,394.60 467.44,392.40 C468.30,388.96 469.11,388.03 469.72,389.76 C469.97,390.46 471.10,391.52 472.24,392.13 C474.16,393.15 474.25,393.02 473.67,390.11 C473.32,388.33 473.47,387.00 474.02,387.00 C474.56,387.00 475.00,386.56 475.00,386.03 C475.00,385.50 474.32,385.32 473.50,385.64 C472.68,385.95 472.00,385.68 472.00,385.03 C472.00,384.38 472.79,384.02 473.75,384.21 C474.71,384.41 475.44,385.35 475.36,386.29 C475.28,387.23 475.57,388.00 476.00,388.00 C477.41,388.00 480.25,382.73 480.52,379.59 C480.66,377.89 480.83,376.18 480.89,375.78 C480.95,375.39 481.75,375.35 482.66,375.70 C483.69,376.09 484.08,375.94 483.68,375.30 C483.01,374.21 486.34,369.67 487.18,370.52 C487.45,370.78 487.67,370.33 487.67,369.50 C487.67,367.58 487.09,367.61 484.83,369.65 C482.11,372.12 482.65,369.87 485.41,367.25 C486.71,366.02 488.06,363.47 488.42,361.60 C488.77,359.73 489.75,357.92 490.61,357.60 C493.15,356.62 493.50,356.91 491.54,358.35 C490.52,359.09 490.00,360.20 490.38,360.81 C490.86,361.58 491.65,361.42 492.98,360.29 C494.37,359.10 494.74,357.82 494.36,355.58 C493.95,353.21 494.08,352.85 494.90,354.00 C495.82,355.30 495.97,355.26 495.98,353.75 C495.99,352.79 496.48,352.00 497.06,352.00 C497.64,352.00 497.87,351.60 497.56,351.10 C497.26,350.61 497.71,349.94 498.57,349.61 C499.43,349.28 499.90,348.64 499.61,348.19 C499.33,347.73 499.78,346.05 500.61,344.45 C501.59,342.56 501.75,341.42 501.06,341.19 C499.71,340.74 499.66,338.00 501.00,338.00 C501.55,338.00 502.01,338.56 502.02,339.25 C502.03,340.08 502.35,340.00 503.00,339.00 C503.53,338.18 503.98,335.61 503.98,333.31 C503.99,331.00 504.52,328.80 505.15,328.40 C505.87,327.96 506.04,328.13 505.60,328.85 C504.39,330.79 506.87,330.13 509.08,327.92 C511.58,325.42 512.95,326.25 511.14,329.15 C510.43,330.28 510.29,330.94 510.82,330.61 C511.35,330.28 512.09,330.78 512.45,331.73 C513.02,333.21 513.25,333.24 514.14,331.97 C514.96,330.81 515.07,330.96 514.70,332.69 C514.13,335.27 516.66,336.72 517.32,334.19 C517.67,332.88 517.79,332.97 517.88,334.58 C517.98,336.33 518.51,336.58 521.25,336.21 C523.73,335.87 524.23,336.05 523.38,336.95 C521.84,338.58 518.67,338.95 517.68,337.61 C517.24,337.00 517.17,337.62 517.54,339.00 C517.90,340.38 518.76,341.95 519.44,342.50 C520.12,343.05 521.25,344.57 521.94,345.89 C522.71,347.33 523.48,347.84 523.88,347.19 C524.28,346.55 525.11,346.45 525.90,346.94 C526.65,347.40 526.95,348.28 526.57,348.89 C526.19,349.50 526.39,350.00 527.00,350.00 C527.61,350.00 527.80,350.51 527.42,351.14 C526.96,351.87 526.29,351.47 525.50,350.00 C524.71,348.52 524.04,348.13 523.58,348.87 C523.19,349.50 523.71,351.25 524.74,352.76 C525.76,354.27 527.12,356.72 527.76,358.21 C528.72,360.44 529.44,360.85 531.90,360.54 C534.29,360.24 534.75,360.48 534.27,361.74 C533.82,362.92 534.03,363.10 535.08,362.47 C536.26,361.76 536.29,361.88 535.21,363.21 C533.58,365.23 534.36,369.64 536.97,373.18 C538.09,374.69 539.00,376.36 539.00,376.90 C539.00,377.44 539.44,378.16 539.99,378.49 C540.58,378.86 540.72,378.38 540.33,377.30 C539.97,376.31 540.03,375.82 540.47,376.21 C540.90,376.60 541.42,378.38 541.63,380.16 C541.84,381.95 542.52,383.88 543.15,384.45 C543.97,385.20 544.09,385.14 543.59,384.25 C543.20,383.56 543.12,383.00 543.42,383.00 C543.71,383.00 544.67,384.39 545.55,386.09 C546.43,387.79 547.40,388.93 547.72,388.62 C548.03,388.30 547.72,387.36 547.02,386.52 C546.12,385.44 546.09,385.00 546.91,385.00 C548.70,385.00 549.37,387.85 547.97,389.54 C547.28,390.37 547.07,391.37 547.49,391.77 C547.92,392.17 548.50,391.87 548.77,391.11 C549.05,390.31 549.82,391.35 550.58,393.54 C551.30,395.65 551.67,397.73 551.39,398.17 C551.12,398.61 551.61,398.70 552.48,398.37 C553.79,397.87 553.97,398.32 553.52,400.88 C553.13,403.09 553.34,403.94 554.23,403.76 C554.95,403.61 555.37,404.26 555.21,405.25 C554.94,406.83 556.06,407.49 558.33,407.09 C558.78,407.01 558.86,407.86 558.51,408.97 C558.12,410.19 558.32,411.00 558.99,411.00 C559.61,411.00 559.92,411.34 559.68,411.75 C559.45,412.16 559.57,413.39 559.97,414.49 C560.55,416.09 561.44,416.42 564.60,416.16 C568.27,415.87 568.38,415.94 566.50,417.35 C565.40,418.18 564.35,418.44 564.16,417.92 C563.75,416.77 562.00,417.74 562.00,419.12 C562.00,419.67 562.45,419.84 563.00,419.50 C563.55,419.16 564.01,419.70 564.02,420.69 C564.04,422.22 564.36,422.11 566.08,420.00 L568.12,417.50L566.60,420.62 C565.18,423.53 565.23,423.92 567.29,426.66 C570.87,431.40 573.74,433.86 574.65,432.95 C575.12,432.48 575.56,433.32 575.62,434.80 C575.69,436.29 575.55,436.95 575.30,436.28 C574.96,435.35 574.56,435.33 573.60,436.23 C572.21,437.53 572.98,438.79 578.75,444.57 C580.65,446.47 581.51,448.00 580.83,448.22 C580.04,448.49 580.42,449.98 582.02,452.81 C583.45,455.36 584.65,456.57 585.08,455.88 C585.46,455.25 586.24,455.03 586.80,455.38 C587.37,455.73 588.01,455.47 588.23,454.81 C588.48,454.06 588.89,454.27 589.31,455.35 C589.70,456.39 589.58,456.86 589.00,456.50 C588.44,456.16 588.28,456.57 588.62,457.46 C589.05,458.56 588.78,458.85 587.71,458.44 C586.88,458.12 585.90,458.36 585.53,458.96 C585.15,459.57 585.44,459.93 586.18,459.77 C586.91,459.62 587.44,460.28 587.36,461.25 C587.28,462.21 587.62,463.00 588.11,463.00 C588.60,463.00 589.00,463.68 589.00,464.50 C589.00,465.32 589.41,466.00 589.90,466.00 C590.67,466.00 593.07,470.96 593.40,473.20 C593.45,473.59 594.04,474.44 594.69,475.09 C595.62,476.02 595.76,475.81 595.33,474.14 C595.02,472.95 595.24,472.00 595.82,472.00 C597.32,472.00 598.48,474.08 598.61,477.00 C598.68,478.38 598.79,480.40 598.87,481.50 C599.05,484.03 604.79,490.25 606.17,489.40 C606.83,488.99 606.80,489.50 606.10,490.81 C604.92,493.02 605.64,496.34 607.10,495.44 C607.60,495.13 608.00,495.54 608.00,496.33 C608.00,497.98 610.68,499.31 612.16,498.40 C612.71,498.06 612.57,498.72 611.86,499.86 C610.93,501.33 610.35,501.58 609.80,500.71 C609.21,499.78 609.03,499.80 609.02,500.78 C609.01,501.49 609.67,502.32 610.49,502.64 C611.32,502.95 611.70,503.68 611.34,504.26 C610.95,504.89 611.17,505.01 611.90,504.56 C612.68,504.08 613.51,504.90 614.27,506.91 C614.91,508.61 616.13,510.01 616.97,510.02 C618.32,510.03 618.33,510.14 617.00,511.00 C615.57,511.92 616.34,512.46 618.50,512.05 C619.05,511.94 618.94,512.43 618.25,513.13 C616.76,514.64 616.57,516.38 617.99,515.51 C618.54,515.17 619.77,516.60 620.74,518.70 C621.71,520.79 622.84,522.65 623.25,522.83 C623.66,523.02 624.00,524.25 624.00,525.58 C624.00,526.91 624.48,528.00 625.06,528.00 C625.64,528.00 625.78,528.56 625.37,529.25 C624.93,529.98 625.40,529.87 626.50,529.00 C628.20,527.64 628.31,527.66 627.72,529.25 C627.36,530.21 627.50,531.00 628.03,531.00 C628.56,531.00 629.00,530.52 629.00,529.93 C629.00,529.34 629.70,529.55 630.55,530.40 C631.73,531.59 631.85,532.42 631.03,533.94 C630.45,535.03 630.03,536.27 630.10,536.71 C630.44,538.72 629.91,540.06 629.00,539.50 C628.45,539.16 628.00,539.36 628.00,539.94 C628.00,540.52 629.01,541.04 630.25,541.08 C631.75,541.13 632.00,541.35 631.00,541.73 C630.17,542.04 629.16,542.79 628.75,543.40 C628.23,544.16 627.69,544.03 627.02,543.00 C626.36,542.00 626.03,541.91 626.02,542.75 C626.01,543.44 625.56,544.00 625.01,544.00 C624.47,544.00 624.13,542.99 624.26,541.75 L624.50,539.50L600.50,539.23 C578.54,538.99 576.39,539.11 575.21,540.73 C574.09,542.26 573.80,542.29 572.98,541.00 C572.17,539.72 572.03,539.76 572.02,541.25 C572.01,542.21 571.56,543.00 571.03,543.00 C570.50,543.00 570.35,542.25 570.70,541.34 C571.13,540.22 570.96,539.91 570.17,540.39 C569.53,540.79 569.00,541.77 569.00,542.56 C569.00,543.35 568.33,544.00 567.50,544.00 C566.67,544.00 566.00,543.78 566.00,543.51 Z M609.75,543.29 C610.99,543.06 613.01,543.06 614.25,543.29 C615.49,543.53 614.48,543.73 612.00,543.73 C609.52,543.73 608.51,543.53 609.75,543.29 Z M635.00,541.94 C635.00,540.81 635.45,540.16 636.00,540.50 C636.55,540.84 637.00,541.77 637.00,542.56 C637.00,543.35 636.55,544.00 636.00,544.00 C635.45,544.00 635.00,543.07 635.00,541.94 Z M384.00,540.94 C384.00,539.81 384.45,539.16 385.00,539.50 C385.55,539.84 386.00,540.77 386.00,541.56 C386.00,542.35 385.55,543.00 385.00,543.00 C384.45,543.00 384.00,542.07 384.00,540.94 Z M387.00,540.00 C387.00,539.45 387.48,539.00 388.06,539.00 C388.64,539.00 388.84,539.45 388.50,540.00 C388.16,540.55 387.68,541.00 387.44,541.00 C387.20,541.00 387.00,540.55 387.00,540.00 Z M386.00,536.61 C386.00,535.68 386.90,533.95 388.00,532.77 C389.97,530.65 390.00,530.65 390.00,532.66 C390.00,533.77 389.10,535.50 388.00,536.50 C386.16,538.16 386.00,538.17 386.00,536.61 Z M560.00,537.11 C560.00,536.63 560.65,534.97 561.45,533.44 C562.73,530.96 562.72,530.51 561.31,529.49 C558.68,527.56 560.12,525.70 562.80,527.57 C564.51,528.77 564.90,529.71 564.37,531.34 C563.97,532.53 563.73,534.51 563.82,535.75 C563.93,537.38 563.43,538.00 561.99,538.00 C560.89,538.00 560.00,537.60 560.00,537.11 Z M522.00,527.00 C522.00,526.45 522.67,526.00 523.50,526.00 C524.33,526.00 525.00,526.45 525.00,527.00 C525.00,527.55 524.33,528.00 523.50,528.00 C522.67,528.00 522.00,527.55 522.00,527.00 Z M548.50,527.00 C548.16,526.45 548.61,526.00 549.50,526.00 C550.39,526.00 550.84,526.45 550.50,527.00 C550.16,527.55 549.71,528.00 549.50,528.00 C549.29,528.00 548.84,527.55 548.50,527.00 Z M394.08,525.42 C394.13,524.25 394.36,524.01 394.68,524.81 C394.97,525.53 394.94,526.40 394.60,526.73 C394.27,527.06 394.04,526.47 394.08,525.42 Z M561.56,524.29 C561.02,522.87 561.14,522.75 562.12,523.73 C562.81,524.41 563.11,525.22 562.81,525.53 C562.50,525.83 561.94,525.28 561.56,524.29 Z M523.00,518.06 C523.00,516.99 523.48,515.82 524.07,515.46 C525.35,514.66 525.55,514.86 526.44,517.75 C527.01,519.58 526.75,520.00 525.07,520.00 C523.69,520.00 523.00,519.35 523.00,518.06 Z M544.00,517.50 C544.00,516.67 544.45,516.00 545.00,516.00 C545.55,516.00 546.00,516.67 546.00,517.50 C546.00,518.33 545.55,519.00 545.00,519.00 C544.45,519.00 544.00,518.33 544.00,517.50 Z M620.30,513.09 C620.74,510.22 622.00,509.24 622.00,511.77 C622.00,512.93 621.55,514.16 621.00,514.50 C620.42,514.86 620.13,514.25 620.30,513.09 Z M405.50,513.00 C405.84,512.45 405.64,512.00 405.06,512.00 C404.48,512.00 404.00,512.45 404.00,513.00 C404.00,513.55 404.20,514.00 404.44,514.00 C404.68,514.00 405.16,513.55 405.50,513.00 Z M526.56,512.29 C526.02,510.87 526.14,510.75 527.12,511.73 C527.81,512.41 528.11,513.22 527.81,513.53 C527.50,513.83 526.94,513.28 526.56,512.29 Z M534.19,510.93 C534.39,510.33 534.98,509.85 535.50,509.85 C536.02,509.85 536.61,510.33 536.81,510.93 C537.01,511.52 536.42,512.00 535.50,512.00 C534.58,512.00 533.99,511.52 534.19,510.93 Z M542.00,509.56 C542.00,508.77 542.45,507.84 543.00,507.50 C543.55,507.16 544.00,507.81 544.00,508.94 C544.00,510.07 543.55,511.00 543.00,511.00 C542.45,511.00 542.00,510.35 542.00,509.56 Z M401.53,506.71 C401.10,505.72 401.03,504.63 401.38,504.29 C402.39,503.27 403.21,504.70 402.74,506.67 C402.33,508.42 402.27,508.42 401.53,506.71 Z M532.00,506.56 C532.00,505.70 532.45,505.00 533.00,505.00 C533.55,505.00 534.00,505.42 534.00,505.94 C534.00,506.46 533.55,507.16 533.00,507.50 C532.45,507.84 532.00,507.42 532.00,506.56 Z M614.70,505.67 C614.42,504.93 614.78,504.33 615.50,504.33 C616.22,504.33 616.58,504.93 616.30,505.67 C616.02,506.40 615.66,507.00 615.50,507.00 C615.34,507.00 614.98,506.40 614.70,505.67 Z M613.08,501.42 C613.13,500.25 613.36,500.01 613.68,500.81 C613.97,501.53 613.94,502.40 613.60,502.73 C613.27,503.06 613.04,502.47 613.08,501.42 Z M622.00,501.50 C622.00,500.68 622.45,500.00 623.00,500.00 C623.55,500.00 624.00,500.68 624.00,501.50 C624.00,502.32 623.55,503.00 623.00,503.00 C622.45,503.00 622.00,502.32 622.00,501.50 Z M404.19,497.94 C404.43,497.22 405.22,496.43 405.94,496.19 C406.69,495.94 407.06,496.31 406.81,497.06 C406.57,497.78 405.78,498.57 405.06,498.81 C404.31,499.06 403.94,498.69 404.19,497.94 Z M614.64,498.31 C613.51,497.18 613.95,496.00 615.50,496.00 C616.33,496.00 617.00,496.42 617.00,496.94 C617.00,498.20 615.44,499.11 614.64,498.31 Z M409.00,497.17 C409.00,496.71 409.68,496.33 410.50,496.33 C411.32,496.33 412.00,496.71 412.00,497.17 C412.00,497.62 411.32,498.00 410.50,498.00 C409.68,498.00 409.00,497.62 409.00,497.17 Z M540.35,496.46 C540.02,495.61 540.00,494.66 540.31,494.36 C541.19,493.48 543.00,494.97 543.00,496.56 C543.00,498.48 541.09,498.40 540.35,496.46 Z M534.46,495.93 C534.10,495.35 534.01,494.65 534.28,494.39 C534.54,494.13 535.02,494.61 535.35,495.46 C536.02,497.22 535.44,497.53 534.46,495.93 Z M539.86,482.60 C539.23,481.21 538.37,480.27 537.96,480.52 C537.55,480.78 536.91,479.79 536.54,478.32 C535.70,474.94 532.52,470.84 531.47,471.78 C531.04,472.18 530.96,471.71 531.31,470.75 C531.65,469.79 531.47,469.00 530.91,469.00 C530.34,469.00 530.10,468.64 530.38,468.20 C530.65,467.76 530.41,466.75 529.85,465.95 C529.11,464.90 528.99,465.47 529.41,468.00 C529.83,470.48 529.71,471.06 529.01,470.00 C528.47,469.18 528.02,467.69 528.02,466.70 C528.01,465.71 527.33,463.61 526.51,462.03 C525.70,460.45 525.43,459.01 525.92,458.83 C526.40,458.65 525.41,456.39 523.70,453.81 C522.00,451.24 520.25,449.35 519.81,449.62 C519.38,449.88 519.27,449.45 519.58,448.65 C519.89,447.86 519.65,446.90 519.05,446.53 C518.46,446.16 518.27,445.37 518.64,444.78 C519.04,444.13 518.84,443.98 518.16,444.40 C517.47,444.83 516.54,444.08 515.84,442.56 C515.20,441.15 513.87,440.00 512.87,440.00 C511.63,440.00 511.25,439.50 511.67,438.42 C512.16,437.14 512.44,437.09 513.12,438.17 C514.27,439.97 514.22,438.70 513.02,435.57 C512.49,434.15 511.66,433.00 511.19,433.00 C510.16,433.00 507.71,438.04 508.40,438.73 C508.66,439.00 507.85,440.18 506.60,441.35 C504.12,443.69 501.68,449.67 502.60,451.16 C503.30,452.30 500.35,457.00 498.92,457.00 C498.35,457.00 498.22,456.44 498.63,455.75 C499.14,454.90 498.84,454.94 497.69,455.87 C496.76,456.63 496.00,457.81 496.00,458.51 C496.00,459.21 495.15,460.82 494.12,462.10 C492.64,463.93 492.46,464.91 493.27,466.68 C494.34,469.05 492.91,472.00 490.68,472.00 C489.98,472.00 490.02,471.58 490.80,470.80 C491.46,470.14 491.99,468.68 491.98,467.55 C491.96,466.20 491.32,466.90 490.08,469.63 C489.05,471.90 487.78,474.02 487.26,474.34 C486.74,474.66 486.25,477.30 486.16,480.21 C486.04,483.99 486.28,485.07 486.98,484.00 C487.58,483.09 487.98,482.97 487.98,483.69 C488.01,485.29 525.71,485.46 529.72,483.88 C532.29,482.86 532.35,482.72 530.50,482.01 C528.65,481.31 528.69,481.22 531.00,480.85 C532.38,480.63 533.39,479.90 533.25,479.23 C532.95,477.73 534.63,477.60 535.53,479.04 C535.88,479.62 535.63,480.74 534.96,481.54 C534.30,482.34 534.19,483.00 534.72,483.00 C535.26,483.00 536.21,484.01 536.83,485.25 C537.46,486.49 537.92,486.82 537.87,486.00 C537.81,485.18 537.82,483.82 537.90,483.00 C538.02,481.67 538.14,481.67 538.99,483.00 C539.52,483.82 539.72,485.40 539.43,486.50 C538.97,488.25 539.04,488.29 539.96,486.82 C540.72,485.62 540.69,484.41 539.86,482.60 Z M484.93,482.25 C484.87,479.81 484.76,479.73 484.00,481.50 C482.83,484.23 482.83,485.00 484.00,485.00 C484.55,485.00 484.97,483.76 484.93,482.25 Z M417.03,482.00 C417.03,481.18 417.47,479.82 418.00,479.00 C418.86,477.67 418.97,477.67 418.97,479.00 C418.97,479.82 418.53,481.18 418.00,482.00 C417.14,483.33 417.03,483.33 417.03,482.00 Z M419.56,481.71 C419.94,480.72 420.50,480.17 420.81,480.47 C421.11,480.78 420.81,481.59 420.12,482.27 C419.14,483.25 419.02,483.13 419.56,481.71 Z M487.67,481.33 C487.30,480.97 487.01,480.18 487.02,479.58 C487.03,478.89 487.30,478.93 487.78,479.69 C488.20,480.34 490.78,481.04 493.52,481.26 L498.50,481.64L493.42,481.82 C490.62,481.92 488.03,481.70 487.67,481.33 Z M506.75,481.28 C508.54,481.05 511.46,481.05 513.25,481.28 C515.04,481.50 513.58,481.68 510.00,481.68 C506.43,481.68 504.96,481.50 506.75,481.28 Z M599.43,478.17 C599.43,477.16 600.01,476.33 600.71,476.33 C601.42,476.33 602.00,477.16 602.00,478.17 C602.00,479.18 601.42,480.00 600.71,480.00 C600.01,480.00 599.43,479.18 599.43,478.17 Z M604.37,478.25 C604.07,477.29 603.36,475.29 602.81,473.81 C602.26,472.33 602.11,470.64 602.47,470.04 C603.64,468.15 605.00,470.01 605.00,473.50 C605.00,475.36 605.45,477.16 606.00,477.50 C607.31,478.31 607.29,480.00 605.97,480.00 C605.40,480.00 604.68,479.21 604.37,478.25 Z M416.00,469.50 C416.00,468.68 416.45,468.00 417.00,468.00 C417.55,468.00 418.00,468.68 418.00,469.50 C418.00,470.32 417.55,471.00 417.00,471.00 C416.45,471.00 416.00,470.32 416.00,469.50 Z M426.08,469.42 C426.13,468.25 426.36,468.01 426.68,468.81 C426.97,469.53 426.94,470.40 426.60,470.73 C426.27,471.06 426.04,470.47 426.08,469.42 Z M424.07,468.33 C424.03,467.69 423.73,466.45 423.39,465.58 C422.99,464.54 423.34,464.00 424.39,464.00 C426.17,464.00 426.27,464.55 425.00,467.50 C424.53,468.60 424.11,468.97 424.07,468.33 Z M589.67,462.85 C589.34,461.58 589.44,460.16 589.90,459.70 C590.99,458.61 591.98,462.42 591.02,463.97 C590.53,464.76 590.07,464.38 589.67,462.85 Z M500.00,463.00 C500.00,462.45 500.68,462.00 501.50,462.00 C502.32,462.00 503.00,462.45 503.00,463.00 C503.00,463.55 502.32,464.00 501.50,464.00 C500.68,464.00 500.00,463.55 500.00,463.00 Z M520.00,462.56 C520.00,461.77 520.85,461.19 521.89,461.27 C522.99,461.35 523.57,461.95 523.28,462.70 C522.61,464.47 520.00,464.35 520.00,462.56 Z M511.70,459.04 C512.47,456.11 514.24,455.29 513.83,458.06 C513.65,459.32 512.97,460.52 512.33,460.73 C511.58,460.97 511.35,460.36 511.70,459.04 Z M522.07,457.69 C522.03,456.64 521.54,456.17 520.90,456.56 C520.23,456.98 519.94,456.55 520.15,455.45 C520.58,453.25 522.58,452.45 523.24,454.21 C523.51,454.92 523.37,456.40 522.93,457.50 C522.23,459.27 522.13,459.30 522.07,457.69 Z M506.42,456.65 C506.06,455.72 506.35,453.51 507.05,451.73 C509.22,446.22 510.22,446.12 509.47,451.50 C508.68,457.09 507.41,459.24 506.42,456.65 Z M591.16,456.00 C591.16,454.62 591.38,454.06 591.66,454.75 C591.94,455.44 591.94,456.56 591.66,457.25 C591.38,457.94 591.16,457.38 591.16,456.00 Z M503.67,450.59 C503.11,449.13 503.76,448.00 505.17,448.00 C506.28,448.00 506.23,450.74 505.10,451.44 C504.61,451.74 503.97,451.36 503.67,450.59 Z M512.30,444.53 C512.35,442.62 512.60,441.27 512.86,441.52 C513.65,442.32 513.72,448.00 512.94,448.00 C512.53,448.00 512.24,446.44 512.30,444.53 Z M515.46,446.93 C514.38,445.19 515.61,444.82 516.98,446.48 C517.77,447.43 517.84,448.00 517.18,448.00 C516.60,448.00 515.82,447.52 515.46,446.93 Z M435.67,440.33 C435.30,439.97 435.00,439.20 435.00,438.63 C435.00,438.01 435.47,438.07 436.18,438.78 C436.83,439.43 437.13,440.20 436.85,440.48 C436.57,440.77 436.03,440.70 435.67,440.33 Z M571.58,433.23 C569.86,431.58 569.84,431.60 571.10,433.70 C571.83,434.92 572.64,435.69 572.90,435.43 C573.17,435.17 572.57,434.18 571.58,433.23 Z M439.00,433.00 C439.00,432.45 439.90,432.00 441.00,432.00 C442.10,432.00 443.00,432.45 443.00,433.00 C443.00,433.55 442.10,434.00 441.00,434.00 C439.90,434.00 439.00,433.55 439.00,433.00 Z M453.97,425.56 C453.95,424.98 453.28,425.37 452.47,426.44 C451.66,427.51 451.01,428.86 451.03,429.44 C451.05,430.02 451.72,429.63 452.53,428.56 C453.34,427.49 453.99,426.14 453.97,425.56 Z M567.03,425.06 C566.43,423.93 566.06,422.97 566.21,422.93 C569.48,422.07 571.00,422.22 571.00,423.38 C571.00,424.14 570.36,425.29 569.57,425.94 C568.43,426.89 567.92,426.72 567.03,425.06 Z M573.56,425.10 C573.19,424.50 573.34,423.22 573.88,422.26 C574.81,420.59 574.90,420.59 575.57,422.32 C576.37,424.41 574.63,426.82 573.56,425.10 Z M572.19,417.94 C572.43,417.22 573.22,416.43 573.94,416.19 C574.69,415.94 575.06,416.31 574.81,417.06 C574.57,417.78 573.78,418.57 573.06,418.81 C572.31,419.06 571.94,418.69 572.19,417.94 Z M456.50,409.00 C456.84,408.45 457.32,408.00 457.56,408.00 C457.80,408.00 458.00,408.45 458.00,409.00 C458.00,409.55 457.52,410.00 456.94,410.00 C456.36,410.00 456.16,409.55 456.50,409.00 Z M465.68,405.81 C465.36,405.01 465.13,405.25 465.08,406.42 C465.04,407.47 465.27,408.06 465.60,407.73 C465.94,407.40 465.97,406.53 465.68,405.81 Z M557.68,402.88 C557.35,401.62 557.29,400.38 557.54,400.13 C557.79,399.87 558.00,400.22 558.00,400.89 C558.00,401.57 558.45,401.84 559.00,401.50 C560.21,400.75 560.28,402.01 559.12,403.83 C558.49,404.83 558.13,404.59 557.68,402.88 Z M464.50,391.00 C464.84,390.45 465.32,390.00 465.56,390.00 C465.80,390.00 466.00,390.45 466.00,391.00 C466.00,391.55 465.52,392.00 464.94,392.00 C464.36,392.00 464.16,391.55 464.50,391.00 Z M551.00,387.93 C551.00,385.20 551.17,385.02 552.50,386.36 C553.33,387.18 554.00,388.56 554.00,389.43 C554.00,390.29 553.33,391.00 552.50,391.00 C551.49,391.00 551.00,389.99 551.00,387.93 Z M464.00,385.00 C464.00,384.45 464.45,384.00 465.00,384.00 C465.55,384.00 466.00,384.45 466.00,385.00 C466.00,385.55 465.55,386.00 465.00,386.00 C464.45,386.00 464.00,385.55 464.00,385.00 Z M482.50,378.00 C482.84,377.45 482.64,377.00 482.06,377.00 C481.48,377.00 481.00,377.45 481.00,378.00 C481.00,378.55 481.20,379.00 481.44,379.00 C481.68,379.00 482.16,378.55 482.50,378.00 Z M480.00,368.94 C480.00,368.36 480.45,368.16 481.00,368.50 C481.55,368.84 482.00,369.32 482.00,369.56 C482.00,369.80 481.55,370.00 481.00,370.00 C480.45,370.00 480.00,369.52 480.00,368.94 Z M540.17,367.71 C538.64,365.86 538.25,359.81 539.63,359.32 C540.31,359.07 541.04,360.76 541.45,363.55 C542.22,368.63 541.87,369.75 540.17,367.71 Z M535.69,367.36 C534.89,366.56 535.80,365.00 537.06,365.00 C537.58,365.00 538.00,365.68 538.00,366.50 C538.00,368.05 536.82,368.49 535.69,367.36 Z M489.68,362.81 C489.36,362.01 489.13,362.25 489.08,363.42 C489.04,364.47 489.27,365.06 489.60,364.73 C489.94,364.40 489.97,363.53 489.68,362.81 Z M485.03,358.72 C485.01,357.74 485.68,356.68 486.50,356.36 C487.32,356.05 488.00,354.93 488.00,353.89 C488.00,352.67 488.70,352.00 490.00,352.00 C492.47,352.00 492.66,354.81 490.25,355.73 C489.29,356.10 487.73,357.32 486.78,358.45 C485.23,360.30 485.06,360.33 485.03,358.72 Z M532.00,353.00 C532.00,352.45 532.67,352.00 533.50,352.00 C534.33,352.00 535.00,352.45 535.00,353.00 C535.00,353.55 534.33,354.00 533.50,354.00 C532.67,354.00 532.00,353.55 532.00,353.00 Z M496.00,348.19 C496.00,347.67 496.68,346.68 497.50,346.00 C498.32,345.32 499.00,345.07 499.00,345.45 C499.00,345.83 498.32,346.82 497.50,347.64 C496.68,348.47 496.00,348.72 496.00,348.19 Z M527.08,343.42 C527.13,342.25 527.36,342.01 527.68,342.81 C527.97,343.53 527.94,344.40 527.60,344.73 C527.27,345.06 527.04,344.47 527.08,343.42 Z M505.97,337.50 C505.97,336.95 505.53,337.18 505.00,338.00 C504.47,338.82 504.03,339.95 504.03,340.50 C504.03,341.05 504.47,340.82 505.00,340.00 C505.53,339.18 505.97,338.05 505.97,337.50 Z M496.00,335.94 C496.00,334.16 496.42,333.14 497.00,333.50 C497.55,333.84 498.00,335.22 498.00,336.56 C498.00,337.90 497.55,339.00 497.00,339.00 C496.45,339.00 496.00,337.62 496.00,335.94 Z M508.77,330.44 C508.44,330.10 507.62,330.88 506.96,332.16 C505.82,334.40 505.85,334.42 507.57,332.77 C508.57,331.82 509.11,330.77 508.77,330.44 Z M505.00,321.00 C505.00,320.45 505.68,320.00 506.50,320.00 C507.32,320.00 508.00,320.45 508.00,321.00 C508.00,321.55 507.32,322.00 506.50,322.00 C505.68,322.00 505.00,321.55 505.00,321.00 Z"/>
</svg>