<?xml version="1.0" encoding="UTF-8"?>
<svg xmlns="http://www.w3.org/2000/svg" viewBox="0 0 1500 1500" width="1500" height="1500">
  <path fill="#0069ad" fill-rule="evenodd" d="M1053.52,883.41 C1045.07,881.52 1033.63,876.37 1026.88,871.41 C1022.39,868.12 1015.00,859.78 1015.00,858.01 C1015.00,856.81 1043.73,833.06 1044.38,833.72 C1044.72,834.06 1045.00,835.40 1045.00,836.71 C1045.00,839.76 1048.15,845.88 1051.17,848.70 C1058.78,855.80 1073.49,856.60 1081.74,850.37 C1089.92,844.17 1090.76,832.28 1083.48,825.42 C1079.75,821.90 1067.41,815.30 1051.01,808.05 C1033.60,800.35 1024.84,793.25 1018.88,782.00 C1016.79,778.05 1016.50,776.16 1016.50,766.50 C1016.50,755.85 1016.62,755.25 1020.25,747.65 C1029.01,729.30 1047.03,719.05 1070.59,719.01 C1087.94,718.99 1102.64,724.64 1113.75,735.63 C1117.19,739.03 1119.98,742.19 1119.96,742.66 C1119.93,743.12 1113.53,748.81 1105.72,755.29 L1091.52,767.09L1090.31,762.29 C1086.38,746.81 1062.21,744.01 1055.16,758.21 C1052.23,764.13 1052.86,767.73 1057.79,773.19 C1062.02,777.87 1067.74,780.90 1085.92,788.08 C1114.29,799.29 1124.81,810.36 1125.80,830.05 C1126.31,840.23 1124.97,847.44 1121.01,855.81 C1115.39,867.70 1104.57,876.79 1090.33,881.61 C1080.32,884.99 1064.13,885.78 1053.52,883.41 Z M375.00,802.00 L375.00,724.00L393.50,724.00 L412.00,724.00L412.00,802.00 L412.00,880.00L393.50,880.00 L375.00,880.00L375.00,802.00 Z M429.24,823.75 C429.57,768.52 429.62,767.36 431.86,760.01 C438.52,738.15 452.40,724.99 473.53,720.51 C483.31,718.44 509.82,718.49 519.30,720.60 C536.27,724.38 549.00,734.29 555.94,749.15 C563.04,764.36 563.20,765.94 563.72,826.25 L564.19,880.00L545.09,880.00 L526.00,880.00L526.00,832.68 C526.00,803.57 525.59,783.16 524.94,779.62 C521.79,762.60 512.78,754.65 496.50,754.55 C489.55,754.51 487.71,754.90 482.50,757.50 C475.55,760.98 470.93,766.45 468.32,774.29 C466.79,778.89 466.55,785.39 466.24,829.75 L465.88,880.00L447.39,880.00 L428.91,880.00L429.24,823.75 Z M587.00,816.50 L587.00,753.00L578.25,753.00 L569.50,752.99L565.68,744.87 C562.97,739.12 560.04,734.89 555.63,730.38 L549.41,724.00L568.05,724.00 L586.69,724.00L587.31,713.20 C589.15,681.00 604.86,666.87 640.00,665.79 L649.50,665.50L649.78,679.75 L650.05,694.00L646.21,694.00 C640.65,694.00 632.72,696.60 630.24,699.25 C626.62,703.10 625.00,708.41 625.00,716.47 L625.00,724.00L645.99,724.00 L666.98,724.00L667.24,683.75 L667.50,643.50L685.75,643.23 L704.00,642.95L704.00,761.48 L704.00,880.00L685.50,880.00 L667.00,880.00L667.00,816.50 L667.00,753.00L646.00,753.00 L625.00,753.00L625.00,816.50 L625.00,880.00L606.00,880.00 L587.00,880.00L587.00,816.50 Z M765.49,878.98 C747.80,875.47 734.87,865.76 727.56,850.50 C720.58,835.92 720.64,836.57 720.25,774.75 L719.89,719.00L738.37,719.00 L756.85,719.00L757.23,768.75 C757.59,816.63 757.68,818.75 759.78,825.04 C763.69,836.80 771.75,843.38 783.80,844.64 C796.17,845.93 806.89,841.13 811.92,832.03 C816.69,823.40 816.97,819.89 816.98,767.75 L817.00,719.00L836.07,719.00 L855.14,719.00L854.76,773.75 C854.40,826.38 854.30,828.81 852.19,836.50 C845.87,859.56 833.30,872.68 812.40,878.02 C806.04,879.65 801.59,879.98 787.09,879.89 C777.42,879.83 767.70,879.42 765.49,878.98 Z M870.24,824.75 C870.57,771.57 870.66,769.21 872.76,761.70 C879.03,739.28 893.58,724.95 914.59,720.50 C923.92,718.52 951.11,718.53 960.50,720.51 C976.65,723.92 990.92,735.00 997.42,749.18 C1004.25,764.09 1004.30,764.56 1004.73,825.25 L1005.12,880.00L986.06,880.00 L967.00,880.00L967.00,831.55 C967.00,799.48 966.62,781.31 965.88,777.80 C964.52,771.41 961.06,764.30 957.84,761.30 C951.89,755.76 940.10,753.01 930.68,754.96 C917.34,757.73 909.89,767.43 908.01,784.50 C907.46,789.45 907.01,812.96 907.01,836.75 L907.00,880.00L888.45,880.00 L869.89,880.00L870.24,824.75 Z M403.18,709.88 C391.95,708.01 391.25,705.22 401.52,703.32 C408.71,702.00 412.15,699.67 413.47,695.25 C413.96,693.58 413.67,692.83 412.32,692.38 C389.94,684.87 379.02,670.30 380.24,649.59 C381.83,622.70 402.23,608.70 437.50,610.30 C458.02,611.23 473.67,617.10 485.78,628.42 C495.74,637.73 500.12,646.73 500.16,658.01 C500.22,678.91 483.19,693.25 455.16,695.89 C445.32,696.82 444.74,697.00 440.82,700.54 C435.57,705.29 428.18,708.63 420.00,709.94 C412.62,711.13 410.63,711.12 403.18,709.88 Z M426.30,702.99 C430.97,701.55 434.27,699.67 437.98,696.33 L443.16,691.67L453.33,690.87 C473.33,689.30 487.14,681.49 492.47,668.73 C494.71,663.37 494.42,653.21 491.84,646.29 C487.24,633.96 471.46,622.24 453.74,617.99 C443.38,615.50 423.27,615.26 414.63,617.51 C396.27,622.29 387.02,632.92 386.17,650.21 C385.31,667.76 394.01,680.15 411.75,686.62 C418.26,689.00 419.00,689.54 418.96,691.88 C418.90,695.62 415.89,700.78 412.45,703.04 L409.50,704.99L414.64,704.99 C417.47,705.00 422.72,704.10 426.30,702.99 Z M430.76,678.69 C417.48,669.84 407.00,656.38 407.00,648.19 C407.00,643.80 410.71,637.20 414.19,635.40 C419.68,632.56 427.65,634.21 434.79,639.65 L438.18,642.24L442.84,637.73 C453.37,627.52 462.09,627.37 467.16,637.32 C468.78,640.48 469.13,642.73 468.83,647.98 C467.97,663.23 455.98,677.42 440.10,681.97 C437.39,682.75 436.24,682.34 430.76,678.69 Z M447.08,671.38 C459.20,663.96 466.11,645.89 459.69,638.43 C457.48,635.86 457.27,635.81 454.44,637.28 C452.82,638.12 448.87,641.55 445.66,644.91 C442.45,648.26 439.45,651.00 439.00,651.00 C438.56,651.00 436.23,649.36 433.84,647.35 C429.54,643.74 422.70,640.06 420.20,640.02 C417.96,639.98 414.00,644.79 414.00,647.55 C414.00,653.68 421.29,663.29 432.09,671.41 C438.70,676.38 438.91,676.38 447.08,671.38 Z"/>
</svg>